OpenSans-SemiBold.ufo
<glyph name="exclam" format="2">
  <advance width="554.2190476190476"/>
  <unicode hex="0021"/>
  <note>
exclam
</note>
  <outline>
    <contour>
      <point x="182.56666666666666" y="441.2047619047619" type="line"/>
      <point x="368.0047619047619" y="441.2047619047619" type="line"/>
      <point x="406.93333333333334" y="1462.0" type="line"/>
      <point x="142.97619047619048" y="1462.0" type="line"/>
    </contour>
    <contour>
      <point x="273.7857142857143" y="-21.985714285714288" type="curve" smooth="yes"/>
      <point x="363.8666666666667" y="-21.985714285714288"/>
      <point x="414.0333333333333" y="28.22380952380952"/>
      <point x="414.0333333333333" y="119.03809523809524" type="curve" smooth="yes"/>
      <point x="414.0333333333333" y="209.85238095238094"/>
      <point x="366.51428571428573" y="260.06190476190477"/>
      <point x="273.7857142857143" y="260.06190476190477" type="curve" smooth="yes"/>
      <point x="181.73333333333335" y="260.06190476190477"/>
      <point x="132.8904761904762" y="209.85238095238094"/>
      <point x="132.8904761904762" y="119.03809523809524" type="curve" smooth="yes"/>
      <point x="132.8904761904762" y="28.22380952380952"/>
      <point x="184.38095238095238" y="-21.985714285714288"/>
    </contour>
  </outline>
</glyph>
<glyph name="numbersign" format="2">
  <advance width="1323.0"/>
  <unicode hex="0023"/>
  <note>
numbersign
</note>
  <outline>
    <contour>
      <point x="225.52380952380952" y="0.0" type="line"/>
      <point x="396.26190476190476" y="0.0" type="line"/>
      <point x="474.9809523809524" y="423.2" type="line"/>
      <point x="746.2857142857143" y="423.2" type="line"/>
      <point x="665.5666666666667" y="0.0" type="line"/>
      <point x="837.6428571428571" y="0.0" type="line"/>
      <point x="918.347619047619" y="423.2" type="line"/>
      <point x="1224.4476190476191" y="423.2" type="line"/>
      <point x="1224.4476190476191" y="582.952380952381" type="line"/>
      <point x="949.2476190476191" y="582.952380952381" type="line"/>
      <point x="1003.4047619047619" y="875.047619047619" type="line"/>
      <point x="1293.8142857142857" y="875.047619047619" type="line"/>
      <point x="1293.8142857142857" y="1037.7857142857142" type="line"/>
      <point x="1034.6285714285714" y="1037.7857142857142" type="line"/>
      <point x="1115.347619047619" y="1462.0" type="line"/>
      <point x="945.2857142857143" y="1462.0" type="line"/>
      <point x="864.5666666666667" y="1037.7857142857142" type="line"/>
      <point x="592.2333333333333" y="1037.7857142857142" type="line"/>
      <point x="673.952380952381" y="1462.0" type="line"/>
      <point x="500.87619047619046" y="1462.0" type="line"/>
      <point x="421.4952380952381" y="1037.7857142857142" type="line"/>
      <point x="121.74761904761905" y="1037.7857142857142" type="line"/>
      <point x="121.74761904761905" y="875.047619047619" type="line"/>
      <point x="390.94761904761907" y="875.047619047619" type="line"/>
      <point x="336.12857142857143" y="582.952380952381" type="line"/>
      <point x="48.38095238095238" y="582.952380952381" type="line"/>
      <point x="48.38095238095238" y="423.2" type="line"/>
      <point x="304.9047619047619" y="423.2" type="line"/>
    </contour>
    <contour>
      <point x="506.1904761904762" y="582.952380952381" type="line"/>
      <point x="561.6857142857143" y="875.047619047619" type="line"/>
      <point x="833.3428571428572" y="875.047619047619" type="line"/>
      <point x="777.1857142857143" y="582.952380952381" type="line"/>
    </contour>
  </outline>
</glyph>
<glyph name="dollar" format="2">
  <advance width="1169.0"/>
  <unicode hex="0024"/>
  <note>
dollar
</note>
  <outline>
    <contour>
      <point x="509.2" y="-119.0" type="line"/>
      <point x="648.447619047619" y="-119.0" type="line"/>
      <point x="648.447619047619" y="97.14285714285714" type="line"/>
      <point x="899.3190476190476" y="128.12857142857143"/>
      <point x="1041.9666666666667" y="258.3666666666667"/>
      <point x="1041.9666666666667" y="457.20952380952383" type="curve" smooth="yes"/>
      <point x="1041.9666666666667" y="638.7714285714286"/>
      <point x="942.7142857142857" y="741.3619047619047"/>
      <point x="663.7142857142857" y="833.6571428571428" type="curve"/>
      <point x="648.447619047619" y="838.9666666666667" type="line"/>
      <point x="648.447619047619" y="1203.8380952380953" type="line"/>
      <point x="751.8857142857142" y="1194.852380952381"/>
      <point x="852.5904761904762" y="1168.2047619047619"/>
      <point x="949.9" y="1125.2190476190476" type="curve"/>
      <point x="1022.6142857142858" y="1305.2380952380952" type="line"/>
      <point x="905.052380952381" y="1355.1809523809525"/>
      <point x="780.1095238095238" y="1383.152380952381"/>
      <point x="648.447619047619" y="1389.152380952381" type="curve"/>
      <point x="648.447619047619" y="1554.0" type="line"/>
      <point x="509.2" y="1554.0" type="line"/>
      <point x="509.2" y="1387.152380952381" type="line"/>
      <point x="263.76666666666665" y="1359.490476190476"/>
      <point x="125.11904761904762" y="1237.1666666666667"/>
      <point x="125.11904761904762" y="1047.0142857142857" type="curve" smooth="yes"/>
      <point x="125.11904761904762" y="982.7333333333333"/>
      <point x="136.78095238095239" y="928.4380952380952"/>
      <point x="159.10476190476192" y="885.1285714285714" type="curve" smooth="yes"/>
      <point x="203.75238095238095" y="797.5238095238095"/>
      <point x="293.34285714285716" y="734.2714285714286"/>
      <point x="471.4" y="673.6238095238095" type="curve"/>
      <point x="509.2" y="660.0333333333333" type="line"/>
      <point x="509.2" y="277.7952380952381" type="line"/>
      <point x="384.9047619047619" y="284.4142857142857"/>
      <point x="227.5952380952381" y="329.0333333333333"/>
      <point x="113.6952380952381" y="385.6380952380952" type="curve"/>
      <point x="113.6952380952381" y="176.73333333333335" type="line"/>
      <point x="221.86190476190475" y="128.12857142857143"/>
      <point x="375.6095238095238" y="96.8047619047619"/>
      <point x="509.2" y="92.48095238095237" type="curve"/>
    </contour>
    <contour>
      <point x="648.447619047619" y="292.4" type="curve"/>
      <point x="648.447619047619" y="597.9238095238095" type="line"/>
      <point x="755.3285714285714" y="562.1333333333333"/>
      <point x="801.5714285714286" y="516.6238095238095"/>
      <point x="801.5714285714286" y="446.64761904761906" type="curve" smooth="yes"/>
      <point x="801.5714285714286" y="363.9666666666667"/>
      <point x="744.5952380952381" y="308.0761904761905"/>
    </contour>
    <contour>
      <point x="509.2" y="896.4142857142857" type="line"/>
      <point x="408.05238095238093" y="932.1904761904761"/>
      <point x="365.17619047619047" y="977.0238095238095"/>
      <point x="365.17619047619047" y="1050.9857142857143" type="curve" smooth="yes"/>
      <point x="365.17619047619047" y="1122.2714285714285"/>
      <point x="413.0809523809524" y="1178.1619047619047"/>
      <point x="509.2" y="1195.1904761904761" type="curve"/>
    </contour>
  </outline>
</glyph>
<glyph name="percent" format="2">
  <advance width="1780.0857142857144"/>
  <unicode hex="0025"/>
  <note>
percent
</note>
  <outline>
    <contour>
      <point x="392.85714285714283" y="0.0" type="line"/>
      <point x="582.1857142857143" y="0.0" type="line"/>
      <point x="1393.1857142857143" y="1462.0" type="line"/>
      <point x="1203.857142857143" y="1462.0" type="line"/>
    </contour>
    <contour>
      <point x="404.9428571428571" y="565.0" type="curve" smooth="yes"/>
      <point x="618.7571428571429" y="565.0"/>
      <point x="737.6428571428571" y="728.9714285714285"/>
      <point x="737.6428571428571" y="1026.0" type="curve" smooth="yes"/>
      <point x="737.6428571428571" y="1310.6904761904761"/>
      <point x="612.447619047619" y="1483.0"/>
      <point x="404.9428571428571" y="1483.0" type="curve" smooth="yes"/>
      <point x="195.43809523809523" y="1483.0"/>
      <point x="79.9047619047619" y="1321.0142857142857"/>
      <point x="79.9047619047619" y="1026.0" type="curve" smooth="yes"/>
      <point x="79.9047619047619" y="737.6333333333333"/>
      <point x="204.1142857142857" y="565.0"/>
    </contour>
    <contour>
      <point x="406.92857142857144" y="723.1619047619048" type="curve" smooth="yes"/>
      <point x="367.1666666666667" y="723.1619047619048"/>
      <point x="336.0952380952381" y="743.1761904761904"/>
      <point x="314.03809523809525" y="782.2047619047619" type="curve" smooth="yes"/>
      <point x="285.2761904761905" y="829.6285714285714"/>
      <point x="271.8952380952381" y="910.7857142857143"/>
      <point x="271.8952380952381" y="1024.0142857142857" type="curve" smooth="yes"/>
      <point x="271.8952380952381" y="1147.3142857142857"/>
      <point x="288.62857142857143" y="1232.1619047619047"/>
      <point x="324.7714285714286" y="1276.895238095238" type="curve" smooth="yes"/>
      <point x="345.4904761904762" y="1307.8666666666668"/>
      <point x="372.20952380952383" y="1322.852380952381"/>
      <point x="406.92857142857144" y="1322.852380952381" type="curve" smooth="yes"/>
      <point x="440.64761904761906" y="1322.852380952381"/>
      <point x="467.3666666666667" y="1307.8666666666668"/>
      <point x="489.0857142857143" y="1277.895238095238" type="curve" smooth="yes"/>
      <point x="525.9047619047619" y="1232.8238095238096"/>
      <point x="544.9904761904762" y="1148.6380952380953"/>
      <point x="544.9904761904762" y="1024.0142857142857" type="curve" smooth="yes"/>
      <point x="544.9904761904762" y="902.7428571428571"/>
      <point x="528.2571428571429" y="818.5714285714286"/>
      <point x="494.79047619047617" y="772.8238095238095" type="curve" smooth="yes"/>
      <point x="472.73333333333335" y="739.8238095238095"/>
      <point x="444.0" y="723.1619047619048"/>
    </contour>
    <contour>
      <point x="1378.747619047619" y="-19.69047619047619" type="curve" smooth="yes"/>
      <point x="1591.9" y="-19.69047619047619"/>
      <point x="1710.1095238095238" y="144.28095238095239"/>
      <point x="1710.1095238095238" y="440.64761904761906" type="curve" smooth="yes"/>
      <point x="1710.1095238095238" y="726.3380952380952"/>
      <point x="1584.9142857142856" y="897.6476190476191"/>
      <point x="1378.747619047619" y="897.6476190476191" type="curve" smooth="yes"/>
      <point x="1169.9190476190477" y="897.6476190476191"/>
      <point x="1052.3714285714286" y="737.3380952380952"/>
      <point x="1052.3714285714286" y="440.64761904761906" type="curve" smooth="yes"/>
      <point x="1052.3714285714286" y="154.28095238095239"/>
      <point x="1175.2428571428572" y="-19.69047619047619"/>
    </contour>
    <contour>
      <point x="1379.395238095238" y="139.48571428571427" type="curve" smooth="yes"/>
      <point x="1344.0" y="139.48571428571427"/>
      <point x="1315.942857142857" y="155.4714285714286"/>
      <point x="1295.2238095238095" y="186.45714285714286" type="curve" smooth="yes"/>
      <point x="1260.7571428571428" y="232.5285714285714"/>
      <point x="1244.3619047619047" y="316.37619047619046"/>
      <point x="1244.3619047619047" y="438.66190476190474" type="curve" smooth="yes"/>
      <point x="1244.3619047619047" y="563.3"/>
      <point x="1261.095238095238" y="647.1476190476191"/>
      <point x="1297.2380952380952" y="692.5428571428572" type="curve" smooth="yes"/>
      <point x="1317.9571428571428" y="722.5142857142857"/>
      <point x="1344.6761904761904" y="737.5"/>
      <point x="1379.395238095238" y="737.5" type="curve" smooth="yes"/>
      <point x="1414.4380952380952" y="737.5"/>
      <point x="1442.8190476190475" y="722.1904761904761"/>
      <point x="1462.5380952380951" y="690.5714285714286" type="curve" smooth="yes"/>
      <point x="1500.0333333333333" y="643.8523809523809"/>
      <point x="1518.1190476190477" y="560.3285714285714"/>
      <point x="1518.1190476190477" y="438.66190476190474" type="curve" smooth="yes"/>
      <point x="1518.1190476190477" y="325.03809523809525"/>
      <point x="1502.3857142857144" y="244.1904761904762"/>
      <point x="1470.2571428571428" y="194.7952380952381" type="curve" smooth="yes"/>
      <point x="1449.5238095238096" y="158.4714285714286"/>
      <point x="1418.7904761904763" y="139.48571428571427"/>
    </contour>
  </outline>
</glyph>
<glyph name="ampersand" format="2">
  <advance width="1510.304761904762"/>
  <unicode hex="0026"/>
  <note>
ampersand
</note>
  <outline>
    <contour>
      <point x="582.2523809523809" y="-20.0" type="curve" smooth="yes"/>
      <point x="789.0285714285715" y="-20.0"/>
      <point x="907.4809523809524" y="25.114285714285714"/>
      <point x="1063.1714285714286" y="153.31428571428572" type="curve"/>
      <point x="1212.4857142857143" y="0.0" type="line"/>
      <point x="1518.9190476190477" y="0.0" type="line"/>
      <point x="1228.4285714285713" y="285.87142857142857" type="line"/>
      <point x="1330.0619047619048" y="411.8285714285714"/>
      <point x="1410.652380952381" y="579.6428571428571"/>
      <point x="1451.3285714285714" y="752.9095238095238" type="curve"/>
      <point x="1211.695238095238" y="752.9095238095238" type="line"/>
      <point x="1179.9476190476191" y="624.3857142857142"/>
      <point x="1134.2142857142858" y="527.3142857142857"/>
      <point x="1067.7761904761905" y="439.9190476190476" type="curve"/>
      <point x="732.9333333333334" y="773.1428571428571" type="line"/>
      <point x="948.4714285714285" y="900.9190476190477"/>
      <point x="1028.7952380952381" y="1014.847619047619"/>
      <point x="1028.7952380952381" y="1158.1571428571428" type="curve" smooth="yes"/>
      <point x="1028.7952380952381" y="1360.4095238095238"/>
      <point x="882.5857142857143" y="1483.0142857142857"/>
      <point x="641.8285714285714" y="1483.0142857142857" type="curve" smooth="yes"/>
      <point x="393.07142857142856" y="1483.0142857142857"/>
      <point x="238.2" y="1356.395238095238"/>
      <point x="238.2" y="1154.804761904762" type="curve" smooth="yes"/>
      <point x="238.2" y="1041.2428571428572"/>
      <point x="282.1857142857143" y="948.2857142857143"/>
      <point x="367.53809523809525" y="853.947619047619" type="curve" smooth="yes"/>
      <point x="408.7809523809524" y="809.0142857142857" type="line"/>
      <point x="181.15714285714284" y="688.8428571428572"/>
      <point x="95.86190476190477" y="566.9142857142857"/>
      <point x="95.86190476190477" y="386.8857142857143" type="curve" smooth="yes"/>
      <point x="95.86190476190477" y="129.2952380952381"/>
      <point x="293.98571428571427" y="-20.0"/>
    </contour>
    <contour>
      <point x="603.152380952381" y="172.59523809523807" type="curve" smooth="yes"/>
      <point x="438.7523809523809" y="172.59523809523807"/>
      <point x="338.8619047619047" y="260.7809523809524"/>
      <point x="338.8619047619047" y="402.1380952380952" type="curve" smooth="yes"/>
      <point x="338.8619047619047" y="531.5380952380953"/>
      <point x="409.4714285714286" y="597.2857142857143"/>
      <point x="544.2952380952381" y="674.1761904761905" type="curve"/>
      <point x="918.0809523809523" y="297.06666666666666" type="line"/>
      <point x="830.0619047619048" y="211.6952380952381"/>
      <point x="729.8047619047619" y="172.59523809523807"/>
    </contour>
    <contour>
      <point x="602.7285714285714" y="906.3047619047619" type="curve"/>
      <point x="495.42857142857144" y="1007.6047619047619"/>
      <point x="458.3857142857143" y="1070.3380952380953"/>
      <point x="458.3857142857143" y="1150.1857142857143" type="curve" smooth="yes"/>
      <point x="458.3857142857143" y="1257.4"/>
      <point x="531.5285714285715" y="1316.2333333333333"/>
      <point x="638.5190476190476" y="1316.2333333333333" type="curve" smooth="yes"/>
      <point x="741.1285714285714" y="1316.2333333333333"/>
      <point x="808.2857142857143" y="1257.3714285714286"/>
      <point x="808.2857142857143" y="1160.1714285714286" type="curve" smooth="yes"/>
      <point x="808.2857142857143" y="1062.9571428571428"/>
      <point x="751.1857142857143" y="986.8714285714286"/>
    </contour>
  </outline>
</glyph>
<glyph name="parenleft" format="2">
  <advance width="647.6809523809524"/>
  <unicode hex="0028"/>
  <note>
parenleft
</note>
  <outline>
    <contour>
      <point x="373.73333333333335" y="-324.0" type="curve"/>
      <point x="583.3571428571429" y="-324.0" type="line"/>
      <point x="394.9190476190476" y="-69.56190476190476"/>
      <point x="299.87619047619046" y="238.35238095238094"/>
      <point x="299.87619047619046" y="572.9285714285714" type="curve" smooth="yes"/>
      <point x="299.87619047619046" y="922.5333333333333"/>
      <point x="401.5952380952381" y="1242.8285714285714"/>
      <point x="585.3571428571429" y="1481.195238095238" type="curve"/>
      <point x="373.73333333333335" y="1481.195238095238" type="line"/>
      <point x="183.36666666666667" y="1254.490476190476"/>
      <point x="82.0" y="939.152380952381"/>
      <point x="82.0" y="570.9285714285714" type="curve" smooth="yes"/>
      <point x="82.0" y="205.71904761904761"/>
      <point x="183.6904761904762" y="-104.28095238095239"/>
    </contour>
  </outline>
</glyph>
<glyph name="parenright" format="2">
  <advance width="647.6809523809524"/>
  <unicode hex="0029"/>
  <note>
parenright
</note>
  <outline>
    <contour>
      <point x="63.0" y="-324.0" type="curve"/>
      <point x="272.62380952380954" y="-324.0" type="line"/>
      <point x="462.3285714285714" y="-105.29523809523809"/>
      <point x="564.3571428571429" y="207.35238095238094"/>
      <point x="564.3571428571429" y="570.9285714285714" type="curve" smooth="yes"/>
      <point x="564.3571428571429" y="933.8428571428572"/>
      <point x="463.3285714285714" y="1253.490476190476"/>
      <point x="272.62380952380954" y="1481.195238095238" type="curve"/>
      <point x="61.0" y="1481.195238095238" type="line"/>
      <point x="246.74761904761905" y="1240.195238095238"/>
      <point x="346.4809523809524" y="920.5619047619048"/>
      <point x="346.4809523809524" y="572.9285714285714" type="curve" smooth="yes"/>
      <point x="346.4809523809524" y="237.02857142857144"/>
      <point x="249.45238095238096" y="-73.53333333333333"/>
    </contour>
  </outline>
</glyph>
<glyph name="asterisk" format="2">
  <advance width="1120.057142857143"/>
  <unicode hex="002A"/>
  <note>
asterisk
</note>
  <outline>
    <contour>
      <point x="398.77666666666664" y="628.13" type="line"/>
      <point x="552.3666666666667" y="961.7233333333334" type="line"/>
      <point x="721.1266666666667" y="627.2033333333333" type="line"/>
      <point x="908.14" y="729.2466666666667" type="line"/>
      <point x="679.6733333333334" y="1040.52" type="line"/>
      <point x="1037.1433333333334" y="1071.18" type="line"/>
      <point x="1008.73" y="1278.1666666666667" type="line"/>
      <point x="626.4333333333333" y="1175.5566666666666" type="line"/>
      <point x="663.8966666666666" y="1556.0" type="line"/>
      <point x="445.15333333333336" y="1556.0" type="line"/>
      <point x="484.15333333333336" y="1175.5566666666666" type="line"/>
      <point x="107.71000000000001" y="1278.1666666666667" type="line"/>
      <point x="76.66333333333334" y="1073.0333333333333" type="line"/>
      <point x="430.9866666666667" y="1040.52" type="line"/>
      <point x="205.66666666666669" y="729.2466666666667" type="line"/>
    </contour>
  </outline>
</glyph>
<glyph name="plus" format="2">
  <advance width="1169.0"/>
  <unicode hex="002B"/>
  <note>
plus
</note>
  <outline>
    <contour>
      <point x="499.9761904761905" y="239.40952380952382" type="line"/>
      <point x="668.6857142857143" y="239.40952380952382" type="line"/>
      <point x="668.6857142857143" y="638.3142857142857" type="line"/>
      <point x="1073.5619047619048" y="638.3142857142857" type="line"/>
      <point x="1073.5619047619048" y="806.3619047619047" type="line"/>
      <point x="668.6857142857143" y="806.3619047619047" type="line"/>
      <point x="668.6857142857143" y="1209.252380952381" type="line"/>
      <point x="499.9761904761905" y="1209.252380952381" type="line"/>
      <point x="499.9761904761905" y="806.3619047619047" type="line"/>
      <point x="95.77619047619048" y="806.3619047619047" type="line"/>
      <point x="95.77619047619048" y="638.3142857142857" type="line"/>
      <point x="499.9761904761905" y="638.3142857142857" type="line"/>
    </contour>
  </outline>
</glyph>
<glyph name="comma" format="2">
  <advance width="541.9333333333334"/>
  <unicode hex="002C"/>
  <outline>
    <contour>
      <point x="64.69047619047619" y="-273.92857142857144" type="curve"/>
      <point x="228.97619047619048" y="-273.92857142857144" type="line"/>
      <point x="289.0190476190476" y="-140.51904761904763"/>
      <point x="347.0190476190476" y="31.395238095238096"/>
      <point x="403.6380952380952" y="244.13809523809525" type="curve"/>
      <point x="390.9761904761905" y="266.46190476190475" type="line"/>
      <point x="170.05714285714285" y="266.46190476190475" type="line"/>
      <point x="150.7047619047619" y="121.41904761904762"/>
      <point x="110.3952380952381" y="-90.26666666666667"/>
    </contour>
  </outline>
</glyph>
<glyph name="hyphen" format="2">
  <advance width="659.0"/>
  <unicode hex="002D"/>
  <outline>
    <contour>
      <point x="71.48095238095237" y="457.06190476190477" type="line"/>
      <point x="588.1809523809524" y="457.06190476190477" type="line"/>
      <point x="588.1809523809524" y="645.6285714285714" type="line"/>
      <point x="71.48095238095237" y="645.6285714285714" type="line"/>
    </contour>
  </outline>
</glyph>
<glyph name="period" format="2">
  <advance width="551.2047619047619"/>
  <unicode hex="002E"/>
  <outline>
    <contour>
      <point x="273.7714285714286" y="-21.985714285714288" type="curve" smooth="yes"/>
      <point x="362.5285714285714" y="-21.985714285714288"/>
      <point x="412.6952380952381" y="28.22380952380952"/>
      <point x="412.6952380952381" y="119.03809523809524" type="curve" smooth="yes"/>
      <point x="412.6952380952381" y="210.5142857142857"/>
      <point x="364.51428571428573" y="260.06190476190477"/>
      <point x="273.7714285714286" y="260.06190476190477" type="curve" smooth="yes"/>
      <point x="181.05714285714285" y="260.06190476190477"/>
      <point x="132.21428571428572" y="210.5142857142857"/>
      <point x="132.21428571428572" y="119.03809523809524" type="curve" smooth="yes"/>
      <point x="132.21428571428572" y="27.561904761904763"/>
      <point x="184.36666666666667" y="-21.985714285714288"/>
    </contour>
  </outline>
</glyph>
<glyph name="slash" format="2">
  <advance width="795.9619047619047"/>
  <unicode hex="002F"/>
  <note>
slash
</note>
  <outline>
    <contour>
      <point x="17.71904761904762" y="-9.266666666666666" type="line"/>
      <point x="233.5809523809524" y="-9.266666666666666" type="line"/>
      <point x="778.5809523809523" y="1471.9285714285713" type="line"/>
      <point x="561.7190476190476" y="1471.9285714285713" type="line"/>
    </contour>
  </outline>
</glyph>
<glyph name="zero" format="2">
  <advance width="1169.0"/>
  <unicode hex="0030"/>
  <outline>
    <contour>
      <point x="583.3238095238095" y="-20.0" type="curve" smooth="yes"/>
      <point x="718.8285714285714" y="-20.0"/>
      <point x="826.3904761904762" y="18.942857142857143"/>
      <point x="905.347619047619" y="99.15238095238095" type="curve" smooth="yes"/>
      <point x="1023.4333333333333" y="216.46190476190475"/>
      <point x="1081.4761904761904" y="425.1952380952381"/>
      <point x="1081.4761904761904" y="732.3523809523809" type="curve" smooth="yes"/>
      <point x="1081.4761904761904" y="1018.4380952380952"/>
      <point x="1024.4476190476191" y="1223.8190476190475"/>
      <point x="913.0809523809523" y="1347.4666666666667" type="curve" smooth="yes"/>
      <point x="831.7857142857143" y="1437.7190476190476"/>
      <point x="721.5333333333333" y="1484.3380952380953"/>
      <point x="583.3238095238095" y="1484.3380952380953" type="curve" smooth="yes"/>
      <point x="448.3809523809524" y="1484.3380952380953"/>
      <point x="341.76190476190476" y="1445.3380952380953"/>
      <point x="262.79047619047617" y="1365.3380952380953" type="curve" smooth="yes"/>
      <point x="145.17142857142858" y="1248.0"/>
      <point x="87.86190476190477" y="1039.0"/>
      <point x="87.86190476190477" y="732.3523809523809" type="curve" smooth="yes"/>
      <point x="87.86190476190477" y="469.252380952381"/>
      <point x="135.21428571428572" y="274.1952380952381"/>
      <point x="227.5809523809524" y="149.1952380952381" type="curve" smooth="yes"/>
      <point x="309.87619047619046" y="36.957142857142856"/>
      <point x="429.12857142857143" y="-20.0"/>
    </contour>
    <contour>
      <point x="583.3238095238095" y="173.9190476190476" type="curve" smooth="yes"/>
      <point x="502.12380952380954" y="173.9190476190476"/>
      <point x="441.29047619047617" y="211.96190476190475"/>
      <point x="399.1619047619048" y="289.3857142857143" type="curve" smooth="yes"/>
      <point x="351.3285714285714" y="376.2047619047619"/>
      <point x="327.5809523809524" y="523.0809523809523"/>
      <point x="327.5809523809524" y="732.3523809523809" type="curve" smooth="yes"/>
      <point x="327.5809523809524" y="947.652380952381"/>
      <point x="353.0047619047619" y="1099.557142857143"/>
      <point x="407.8809523809524" y="1186.0380952380951" type="curve" smooth="yes"/>
      <point x="447.6714285714286" y="1255.404761904762"/>
      <point x="505.8142857142857" y="1289.095238095238"/>
      <point x="583.3238095238095" y="1289.095238095238" type="curve" smooth="yes"/>
      <point x="654.8047619047619" y="1289.095238095238"/>
      <point x="709.5952380952381" y="1258.4333333333334"/>
      <point x="749.047619047619" y="1196.7857142857142" type="curve" smooth="yes"/>
      <point x="810.9666666666667" y="1110.9952380952382"/>
      <point x="840.0809523809523" y="955.0619047619048"/>
      <point x="840.0809523809523" y="732.3523809523809" type="curve" smooth="yes"/>
      <point x="840.0809523809523" y="521.7142857142857"/>
      <point x="815.6571428571428" y="371.48571428571427"/>
      <point x="763.7952380952381" y="283.66666666666663" type="curve" smooth="yes"/>
      <point x="723.004761904762" y="210.94761904761904"/>
      <point x="663.1857142857143" y="173.9190476190476"/>
    </contour>
  </outline>
</glyph>
<glyph name="one" format="2">
  <advance width="1169.0"/>
  <unicode hex="0031"/>
  <outline>
    <contour>
      <point x="565.4666666666667" y="0.0" type="line"/>
      <point x="803.7904761904762" y="0.0" type="line"/>
      <point x="803.7904761904762" y="1462.0" type="line"/>
      <point x="592.6904761904761" y="1462.0" type="line"/>
      <point x="147.37142857142857" y="1113.3714285714286" type="line"/>
      <point x="272.54761904761904" y="958.3095238095239" type="line"/>
      <point x="402.68095238095236" y="1061.6666666666667"/>
      <point x="483.8380952380952" y="1126.1190476190477"/>
      <point x="515.3571428571429" y="1152.3285714285714" type="curve" smooth="yes"/>
      <point x="538.2714285714286" y="1172.5809523809523"/>
      <point x="557.5380952380953" y="1191.847619047619"/>
      <point x="574.8190476190476" y="1211.1142857142856" type="curve"/>
      <point x="568.8047619047619" y="1119.0285714285715"/>
      <point x="565.4666666666667" y="1025.6476190476192"/>
      <point x="565.4666666666667" y="929.9714285714285" type="curve" smooth="yes"/>
    </contour>
  </outline>
</glyph>
<glyph name="two" format="2">
  <advance width="1169.0"/>
  <unicode hex="0032"/>
  <outline>
    <contour>
      <point x="90.4952380952381" y="0.0" type="line"/>
      <point x="1073.009523809524" y="0.0" type="line"/>
      <point x="1073.009523809524" y="202.56666666666666" type="line"/>
      <point x="396.9142857142857" y="202.56666666666666" type="line"/>
      <point x="396.9142857142857" y="209.21428571428572" type="line"/>
      <point x="539.1238095238095" y="345.15714285714284"/>
      <point x="655.5190476190476" y="460.25714285714287"/>
      <point x="745.4380952380952" y="553.1761904761904" type="curve" smooth="yes"/>
      <point x="829.652380952381" y="639.3904761904762"/>
      <point x="890.1190476190476" y="713.8714285714286"/>
      <point x="933.5285714285715" y="781.3380952380952" type="curve" smooth="yes"/>
      <point x="997.8952380952381" y="885.3952380952381"/>
      <point x="1025.2190476190476" y="980.4095238095238"/>
      <point x="1025.2190476190476" y="1092.057142857143" type="curve" smooth="yes"/>
      <point x="1025.2190476190476" y="1337.0142857142857"/>
      <point x="842.4190476190477" y="1483.0"/>
      <point x="578.8142857142857" y="1483.0" type="curve" smooth="yes"/>
      <point x="389.43809523809523" y="1483.0"/>
      <point x="252.45238095238096" y="1424.057142857143"/>
      <point x="101.32857142857142" y="1291.9333333333334" type="curve"/>
      <point x="230.78571428571428" y="1137.547619047619" type="line"/>
      <point x="345.0952380952381" y="1232.5047619047618"/>
      <point x="448.85714285714283" y="1281.1380952380953"/>
      <point x="556.9571428571429" y="1281.1380952380953" type="curve" smooth="yes"/>
      <point x="696.2714285714286" y="1281.1380952380953"/>
      <point x="787.8523809523809" y="1194.895238095238"/>
      <point x="787.8523809523809" y="1065.5666666666666" type="curve" smooth="yes"/>
      <point x="787.8523809523809" y="972.7047619047619"/>
      <point x="757.1190476190476" y="894.5190476190476"/>
      <point x="680.3714285714286" y="793.7142857142857" type="curve" smooth="yes"/>
      <point x="642.3285714285714" y="743.6428571428571"/>
      <point x="569.9619047619047" y="663.2619047619048"/>
      <point x="464.2714285714286" y="552.9095238095238" type="curve" smooth="yes"/>
      <point x="90.4952380952381" y="167.42857142857144" type="line"/>
    </contour>
  </outline>
</glyph>
<glyph name="three" format="2">
  <advance width="1169.0"/>
  <unicode hex="0033"/>
  <outline>
    <contour>
      <point x="494.252380952381" y="-20.0" type="curve" smooth="yes"/>
      <point x="859.1380952380953" y="-20.0"/>
      <point x="1067.0238095238096" y="140.97142857142856"/>
      <point x="1067.0238095238096" y="413.9714285714286" type="curve" smooth="yes"/>
      <point x="1067.0238095238096" y="615.6476190476191"/>
      <point x="943.347619047619" y="734.3380952380952"/>
      <point x="704.3761904761905" y="764.0" type="curve"/>
      <point x="704.3761904761905" y="770.0" type="line"/>
      <point x="904.3190476190476" y="816.2523809523809"/>
      <point x="1023.347619047619" y="949.5761904761905"/>
      <point x="1023.347619047619" y="1130.5761904761905" type="curve" smooth="yes"/>
      <point x="1023.347619047619" y="1352.647619047619"/>
      <point x="856.447619047619" y="1483.0"/>
      <point x="572.2238095238096" y="1483.0" type="curve" smooth="yes"/>
      <point x="387.04285714285714" y="1483.0"/>
      <point x="225.3095238095238" y="1432.604761904762"/>
      <point x="92.45238095238095" y="1331.647619047619" type="curve"/>
      <point x="195.06666666666666" y="1173.304761904762" type="line"/>
      <point x="320.9" y="1255.7571428571428"/>
      <point x="423.26666666666665" y="1289.7714285714285"/>
      <point x="544.4380952380952" y="1289.7714285714285" type="curve" smooth="yes"/>
      <point x="691.0619047619048" y="1289.7714285714285"/>
      <point x="788.6" y="1215.5428571428572"/>
      <point x="788.6" y="1092.2571428571428" type="curve" smooth="yes"/>
      <point x="788.6" y="938.9428571428572"/>
      <point x="660.4285714285714" y="848.7"/>
      <point x="436.62380952380954" y="848.7" type="curve" smooth="yes"/>
      <point x="308.3952380952381" y="848.7" type="line"/>
      <point x="308.3952380952381" y="659.3714285714286" type="line"/>
      <point x="434.62380952380954" y="659.3714285714286" type="line" smooth="yes"/>
      <point x="517.3428571428572" y="659.3714285714286"/>
      <point x="586.0619047619048" y="652.0190476190476"/>
      <point x="641.4571428571428" y="635.9904761904762" type="curve" smooth="yes"/>
      <point x="761.2904761904762" y="602.5809523809523"/>
      <point x="818.7428571428571" y="534.0714285714286"/>
      <point x="818.7428571428571" y="424.56190476190477" type="curve" smooth="yes"/>
      <point x="818.7428571428571" y="259.85238095238094"/>
      <point x="704.5" y="171.25714285714287"/>
      <point x="465.76190476190476" y="171.25714285714287" type="curve" smooth="yes"/>
      <point x="348.0571428571429" y="171.25714285714287"/>
      <point x="202.6904761904762" y="204.27142857142857"/>
      <point x="83.4095238095238" y="265.9190476190476" type="curve"/>
      <point x="83.4095238095238" y="61.01428571428571" type="line"/>
      <point x="215.59047619047618" y="4.0285714285714285"/>
      <point x="341.9428571428571" y="-20.0"/>
    </contour>
  </outline>
</glyph>
<glyph name="four" format="2">
  <advance width="1169.0"/>
  <unicode hex="0034"/>
  <outline>
    <contour>
      <point x="711.6" y="0.0" type="line"/>
      <point x="942.6142857142858" y="0.0" type="line"/>
      <point x="942.6142857142858" y="331.3" type="line"/>
      <point x="1152.9142857142858" y="331.3" type="line"/>
      <point x="1152.9142857142858" y="513.9380952380952" type="line"/>
      <point x="942.6142857142858" y="513.9380952380952" type="line"/>
      <point x="942.6142857142858" y="1466.0285714285715" type="line"/>
      <point x="709.0904761904762" y="1466.0285714285715" type="line"/>
      <point x="37.7047619047619" y="501.5571428571429" type="line"/>
      <point x="37.7047619047619" y="331.3" type="line"/>
      <point x="711.6" y="331.3" type="line"/>
    </contour>
    <contour>
      <point x="259.96190476190475" y="513.9380952380952" type="line"/>
      <point x="612.4714285714285" y="1021.2571428571429" type="line" smooth="yes"/>
      <point x="662.9380952380952" y="1096.442857142857"/>
      <point x="696.6571428571428" y="1151.8238095238096"/>
      <point x="714.2904761904762" y="1188.7380952380952" type="curve"/>
      <point x="723.6142857142858" y="1188.7380952380952" type="line"/>
      <point x="717.2619047619048" y="1113.2952380952381"/>
      <point x="711.6" y="954.8857142857142"/>
      <point x="711.6" y="817.4285714285714" type="curve" smooth="yes"/>
      <point x="711.6" y="513.9380952380952" type="line"/>
    </contour>
  </outline>
</glyph>
<glyph name="five" format="2">
  <advance width="1169.0"/>
  <unicode hex="0035"/>
  <outline>
    <contour>
      <point x="507.3809523809524" y="-20.0" type="curve" smooth="yes"/>
      <point x="867.8142857142857" y="-20.0"/>
      <point x="1064.490476190476" y="156.9857142857143"/>
      <point x="1064.490476190476" y="469.56190476190477" type="curve" smooth="yes"/>
      <point x="1064.490476190476" y="738.8571428571429"/>
      <point x="880.7714285714286" y="915.4047619047619"/>
      <point x="589.952380952381" y="915.4047619047619" type="curve" smooth="yes"/>
      <point x="524.3333333333334" y="915.4047619047619"/>
      <point x="469.8095238095238" y="908.052380952381"/>
      <point x="379.04761904761904" y="891.7" type="curve"/>
      <point x="411.4714285714286" y="1258.1095238095238" type="line"/>
      <point x="969.8428571428572" y="1258.1095238095238" type="line"/>
      <point x="969.8428571428572" y="1462.0" type="line"/>
      <point x="205.6095238095238" y="1462.0" type="line"/>
      <point x="148.93333333333334" y="745.3428571428572" type="line"/>
      <point x="248.64761904761906" y="691.1190476190476" type="line"/>
      <point x="333.0571428571429" y="715.7952380952381"/>
      <point x="411.8047619047619" y="728.1333333333333"/>
      <point x="487.55238095238093" y="728.1333333333333" type="curve" smooth="yes"/>
      <point x="702.2047619047619" y="728.1333333333333"/>
      <point x="824.8142857142857" y="626.5809523809523"/>
      <point x="824.8142857142857" y="458.56190476190477" type="curve" smooth="yes"/>
      <point x="824.8142857142857" y="278.5285714285714"/>
      <point x="697.1904761904761" y="171.25714285714287"/>
      <point x="491.4952380952381" y="171.25714285714287" type="curve" smooth="yes"/>
      <point x="375.0857142857143" y="171.25714285714287"/>
      <point x="245.3" y="202.87619047619046"/>
      <point x="114.53809523809524" y="266.6095238095238" type="curve"/>
      <point x="114.53809523809524" y="61.01428571428571" type="line"/>
      <point x="211.8047619047619" y="8.014285714285714"/>
      <point x="349.8047619047619" y="-20.0"/>
    </contour>
  </outline>
</glyph>
<glyph name="six" format="2">
  <advance width="1169.0"/>
  <unicode hex="0036"/>
  <outline>
    <contour>
      <point x="604.7047619047619" y="-20.0" type="curve" smooth="yes"/>
      <point x="902.8714285714286" y="-20.0"/>
      <point x="1084.8142857142857" y="170.61904761904762"/>
      <point x="1084.8142857142857" y="480.20952380952383" type="curve" smooth="yes"/>
      <point x="1084.8142857142857" y="766.4619047619047"/>
      <point x="927.7714285714286" y="936.0952380952381"/>
      <point x="660.7285714285714" y="936.0952380952381" type="curve" smooth="yes"/>
      <point x="521.0238095238095" y="936.0952380952381"/>
      <point x="403.8952380952381" y="873.7285714285714"/>
      <point x="322.0904761904762" y="751.3333333333334" type="curve"/>
      <point x="309.7523809523809" y="751.3333333333334" type="line"/>
      <point x="319.1047619047619" y="950.6190476190476"/>
      <point x="371.14761904761906" y="1094.5523809523809"/>
      <point x="466.51428571428573" y="1183.752380952381" type="curve" smooth="yes"/>
      <point x="543.9380952380952" y="1258.9666666666667"/>
      <point x="650.7285714285714" y="1297.0809523809523"/>
      <point x="784.547619047619" y="1297.0809523809523" type="curve" smooth="yes"/>
      <point x="858.1809523809524" y="1297.0809523809523"/>
      <point x="922.1380952380953" y="1289.404761904762"/>
      <point x="979.7428571428571" y="1273.3904761904762" type="curve"/>
      <point x="979.7428571428571" y="1463.9857142857143" type="line"/>
      <point x="915.1666666666666" y="1477.0"/>
      <point x="852.2095238095238" y="1484.3380952380953"/>
      <point x="791.1952380952381" y="1484.3380952380953" type="curve" smooth="yes"/>
      <point x="641.9714285714285" y="1484.3380952380953"/>
      <point x="515.3952380952381" y="1453.3380952380953"/>
      <point x="412.45238095238096" y="1391.6619047619047" type="curve" smooth="yes"/>
      <point x="204.5809523809524" y="1269.3095238095239"/>
      <point x="91.94761904761904" y="1013.5904761904762"/>
      <point x="91.94761904761904" y="621.0142857142857" type="curve" smooth="yes"/>
      <point x="91.94761904761904" y="216.67619047619047"/>
      <point x="285.53809523809525" y="-20.0"/>
    </contour>
    <contour>
      <point x="600.0714285714286" y="171.9190476190476" type="curve" smooth="yes"/>
      <point x="541.3380952380952" y="171.9190476190476"/>
      <point x="489.26666666666665" y="195.22857142857143"/>
      <point x="447.1666666666667" y="238.53809523809525" type="curve" smooth="yes"/>
      <point x="376.5285714285714" y="298.68095238095236"/>
      <point x="332.66666666666663" y="401.6714285714286"/>
      <point x="332.66666666666663" y="507.9714285714286" type="curve" smooth="yes"/>
      <point x="332.66666666666663" y="554.6761904761905"/>
      <point x="348.34285714285716" y="599.7190476190476"/>
      <point x="378.04761904761904" y="639.1285714285714" type="curve" smooth="yes"/>
      <point x="427.85238095238094" y="707.0190476190476"/>
      <point x="512.8" y="750.8380952380952"/>
      <point x="608.4238095238095" y="750.8380952380952" type="curve" smooth="yes"/>
      <point x="761.8095238095239" y="750.8380952380952"/>
      <point x="852.0809523809523" y="652.5952380952381"/>
      <point x="852.0809523809523" y="477.5761904761905" type="curve" smooth="yes"/>
      <point x="852.0809523809523" y="372.3333333333333"/>
      <point x="825.3333333333334" y="293.14761904761906"/>
      <point x="777.5142857142857" y="242.6952380952381" type="curve" smooth="yes"/>
      <point x="734.7380952380952" y="195.96190476190475"/>
      <point x="674.2571428571429" y="171.9190476190476"/>
    </contour>
  </outline>
</glyph>
<glyph name="seven" format="2">
  <advance width="1169.0"/>
  <unicode hex="0037"/>
  <outline>
    <contour>
      <point x="254.57142857142856" y="0.0" type="line"/>
      <point x="507.26190476190476" y="0.0" type="line"/>
      <point x="1070.2238095238095" y="1314.2047619047619" type="line"/>
      <point x="1070.2238095238095" y="1461.3380952380953" type="line"/>
      <point x="73.25714285714287" y="1461.3380952380953" type="line"/>
      <point x="73.25714285714287" y="1258.1095238095238" type="line"/>
      <point x="810.9" y="1258.1095238095238" type="line"/>
    </contour>
  </outline>
</glyph>
<glyph name="eight" format="2">
  <advance width="1169.0"/>
  <unicode hex="0038"/>
  <outline>
    <contour>
      <point x="579.9857142857143" y="-20.0" type="curve" smooth="yes"/>
      <point x="888.4761904761905" y="-20.0"/>
      <point x="1078.4190476190477" y="132.6904761904762"/>
      <point x="1078.4190476190477" y="382.2952380952381" type="curve" smooth="yes"/>
      <point x="1078.4190476190477" y="544.0857142857143"/>
      <point x="992.3761904761905" y="661.0857142857143"/>
      <point x="754.9095238095238" y="774.0285714285715" type="curve"/>
      <point x="949.3619047619047" y="866.3952380952381"/>
      <point x="1032.0666666666666" y="978.7190476190476"/>
      <point x="1032.0666666666666" y="1131.0285714285715" type="curve" smooth="yes"/>
      <point x="1032.0666666666666" y="1352.3238095238096"/>
      <point x="859.7857142857143" y="1485.0142857142857"/>
      <point x="583.9857142857143" y="1485.0142857142857" type="curve" smooth="yes"/>
      <point x="318.9190476190476" y="1485.0142857142857"/>
      <point x="133.5809523809524" y="1356.0285714285715"/>
      <point x="133.5809523809524" y="1133.0285714285715" type="curve" smooth="yes"/>
      <point x="133.5809523809524" y="982.6476190476191"/>
      <point x="206.94761904761904" y="871.6904761904761"/>
      <point x="394.14761904761906" y="769.3666666666667" type="curve"/>
      <point x="180.6809523809524" y="674.3809523809524"/>
      <point x="88.56666666666666" y="551.9857142857143"/>
      <point x="88.56666666666666" y="379.6333333333333" type="curve" smooth="yes"/>
      <point x="88.56666666666666" y="120.64761904761905"/>
      <point x="262.4809523809524" y="-20.0"/>
    </contour>
    <contour>
      <point x="578.6619047619048" y="160.01904761904763" type="curve" smooth="yes"/>
      <point x="410.26190476190476" y="160.01904761904763"/>
      <point x="311.0333333333333" y="241.5285714285714"/>
      <point x="311.0333333333333" y="379.1952380952381" type="curve" smooth="yes"/>
      <point x="311.0333333333333" y="504.53809523809525"/>
      <point x="382.85238095238094" y="589.6809523809524"/>
      <point x="569.6047619047619" y="669.4571428571428" type="curve"/>
      <point x="791.1619047619048" y="572.3428571428572"/>
      <point x="855.2904761904762" y="498.9190476190476"/>
      <point x="855.2904761904762" y="380.252380952381" type="curve" smooth="yes"/>
      <point x="855.2904761904762" y="241.26190476190476"/>
      <point x="750.004761904762" y="160.01904761904763"/>
    </contour>
    <contour>
      <point x="586.0285714285715" y="872.5857142857143" type="curve"/>
      <point x="447.9952380952381" y="935.7"/>
      <point x="358.68095238095236" y="1000.7857142857143"/>
      <point x="358.68095238095236" y="1116.4809523809524" type="curve" smooth="yes"/>
      <point x="358.68095238095236" y="1231.8095238095239"/>
      <point x="449.5857142857143" y="1304.9952380952382"/>
      <point x="581.9857142857143" y="1304.9952380952382" type="curve" smooth="yes"/>
      <point x="716.7523809523809" y="1304.9952380952382"/>
      <point x="806.3047619047619" y="1231.4714285714285"/>
      <point x="806.3047619047619" y="1116.4809523809524" type="curve" smooth="yes"/>
      <point x="806.3047619047619" y="1013.1952380952381"/>
      <point x="746.1047619047619" y="943.347619047619"/>
    </contour>
  </outline>
</glyph>
<glyph name="nine" format="2">
  <advance width="1169.0"/>
  <unicode hex="0039"/>
  <outline>
    <contour>
      <point x="371.8047619047619" y="-20.0" type="curve" smooth="yes"/>
      <point x="515.4238095238095" y="-20.0"/>
      <point x="636.7190476190476" y="5.704761904761905"/>
      <point x="737.6904761904761" y="57.114285714285714" type="curve" smooth="yes"/>
      <point x="966.7571428571429" y="170.52380952380952"/>
      <point x="1078.3619047619047" y="421.5952380952381"/>
      <point x="1078.3619047619047" y="819.495238095238" type="curve" smooth="yes"/>
      <point x="1078.3619047619047" y="959.1142857142858"/>
      <point x="1057.3761904761905" y="1079.747619047619"/>
      <point x="1015.7285714285714" y="1178.7333333333333" type="curve" smooth="yes"/>
      <point x="933.7571428571429" y="1375.7190476190476"/>
      <point x="774.8285714285714" y="1481.0285714285715"/>
      <point x="561.6476190476191" y="1481.0285714285715" type="curve" smooth="yes"/>
      <point x="270.8333333333333" y="1481.0285714285715"/>
      <point x="81.21428571428572" y="1284.0142857142857"/>
      <point x="81.21428571428572" y="976.452380952381" type="curve" smooth="yes"/>
      <point x="81.21428571428572" y="691.5238095238095"/>
      <point x="236.9047619047619" y="525.2714285714286"/>
      <point x="499.3" y="525.2714285714286" type="curve" smooth="yes"/>
      <point x="650.9333333333334" y="525.2714285714286"/>
      <point x="764.1333333333333" y="582.3714285714286"/>
      <point x="848.5571428571428" y="710.3714285714286" type="curve"/>
      <point x="860.5571428571428" y="710.3714285714286" type="line"/>
      <point x="842.8666666666667" y="349.0238095238095"/>
      <point x="667.0761904761905" y="166.9190476190476"/>
      <point x="359.25714285714287" y="166.9190476190476" type="curve" smooth="yes"/>
      <point x="310.3" y="166.9190476190476"/>
      <point x="231.5095238095238" y="174.27142857142857"/>
      <point x="174.5095238095238" y="189.96190476190475" type="curve"/>
      <point x="174.5095238095238" y="-1.2809523809523808" type="line"/>
      <point x="228.21428571428572" y="-13.647619047619047"/>
      <point x="293.53809523809525" y="-20.0"/>
    </contour>
    <contour>
      <point x="559.5904761904762" y="709.2047619047619" type="curve" smooth="yes"/>
      <point x="399.1904761904762" y="709.2047619047619"/>
      <point x="313.6095238095238" y="807.3761904761905"/>
      <point x="313.6095238095238" y="982.452380952381" type="curve" smooth="yes"/>
      <point x="313.6095238095238" y="1088.9761904761904"/>
      <point x="342.68095238095236" y="1170.4857142857143"/>
      <point x="394.14761904761906" y="1221.2761904761905" type="curve" smooth="yes"/>
      <point x="437.9238095238095" y="1265.0523809523809"/>
      <point x="497.0809523809524" y="1287.7857142857142"/>
      <point x="566.9428571428572" y="1287.7857142857142" type="curve" smooth="yes"/>
      <point x="620.7476190476191" y="1287.7857142857142"/>
      <point x="667.5380952380953" y="1272.095238095238"/>
      <point x="708.3142857142857" y="1242.7" type="curve" smooth="yes"/>
      <point x="789.5285714285715" y="1183.5714285714287"/>
      <point x="837.9809523809524" y="1073.3142857142857"/>
      <point x="837.9809523809524" y="953.0571428571428" type="curve" smooth="yes"/>
      <point x="837.9809523809524" y="910.6619047619048"/>
      <point x="824.2904761904762" y="869.5904761904762"/>
      <point x="798.2333333333333" y="831.8428571428572" type="curve" smooth="yes"/>
      <point x="747.7666666666667" y="757.6571428571428"/>
      <point x="657.5238095238095" y="709.2047619047619"/>
    </contour>
  </outline>
</glyph>
<glyph name="colon" format="2">
  <advance width="551.2047619047619"/>
  <unicode hex="003A"/>
  <note>
colon
</note>
  <outline>
    <contour>
      <point x="273.7714285714286" y="821.6952380952381" type="curve" smooth="yes"/>
      <point x="358.5" y="821.6952380952381"/>
      <point x="412.6952380952381" y="870.2142857142857"/>
      <point x="412.6952380952381" y="963.7190476190476" type="curve" smooth="yes"/>
      <point x="412.6952380952381" y="1055.195238095238"/>
      <point x="364.51428571428573" y="1105.404761904762"/>
      <point x="273.7714285714286" y="1105.404761904762" type="curve" smooth="yes"/>
      <point x="181.71904761904761" y="1105.404761904762"/>
      <point x="132.21428571428572" y="1055.195238095238"/>
      <point x="132.21428571428572" y="963.7190476190476" type="curve" smooth="yes"/>
      <point x="132.21428571428572" y="870.2142857142857"/>
      <point x="186.40952380952382" y="821.6952380952381"/>
    </contour>
    <contour>
      <point x="273.7714285714286" y="-21.985714285714288" type="curve" smooth="yes"/>
      <point x="362.5285714285714" y="-21.985714285714288"/>
      <point x="412.6952380952381" y="28.22380952380952"/>
      <point x="412.6952380952381" y="119.03809523809524" type="curve" smooth="yes"/>
      <point x="412.6952380952381" y="210.5142857142857"/>
      <point x="364.51428571428573" y="260.06190476190477"/>
      <point x="273.7714285714286" y="260.06190476190477" type="curve" smooth="yes"/>
      <point x="181.05714285714285" y="260.06190476190477"/>
      <point x="132.21428571428572" y="210.5142857142857"/>
      <point x="132.21428571428572" y="119.03809523809524" type="curve" smooth="yes"/>
      <point x="132.21428571428572" y="27.561904761904763"/>
      <point x="184.36666666666667" y="-21.985714285714288"/>
    </contour>
  </outline>
</glyph>
<glyph name="semicolon" format="2">
  <advance width="557.8238095238095"/>
  <unicode hex="003B"/>
  <note>
semicolon
</note>
  <outline>
    <contour>
      <point x="67.19666666666667" y="-273.73" type="curve"/>
      <point x="231.35" y="-273.73" type="line"/>
      <point x="291.32666666666665" y="-140.85"/>
      <point x="349.32666666666665" y="31.66"/>
      <point x="406.27666666666664" y="244.33666666666667" type="curve"/>
      <point x="393.35" y="266.2633333333333" type="line"/>
      <point x="172.1" y="266.2633333333333" type="line"/>
      <point x="154.41666666666666" y="125.50666666666666"/>
      <point x="106.19666666666667" y="-119.24666666666667"/>
    </contour>
    <contour>
      <point x="270.2633333333333" y="821.96" type="curve" smooth="yes"/>
      <point x="356.64666666666665" y="821.96"/>
      <point x="410.18" y="870.3466666666667"/>
      <point x="410.18" y="964.05" type="curve" smooth="yes"/>
      <point x="410.18" y="1054.5333333333333"/>
      <point x="361.4033333333333" y="1105.1399999999999"/>
      <point x="270.2633333333333" y="1105.1399999999999" type="curve" smooth="yes"/>
      <point x="177.41666666666666" y="1105.1399999999999"/>
      <point x="129.56666666666666" y="1054.9966666666667"/>
      <point x="129.56666666666666" y="964.05" type="curve" smooth="yes"/>
      <point x="129.56666666666666" y="869.8833333333333"/>
      <point x="183.1" y="821.96"/>
    </contour>
  </outline>
</glyph>
<glyph name="equal" format="2">
  <advance width="1169.0"/>
  <unicode hex="003D"/>
  <note>
equal
</note>
  <outline>
    <contour>
      <point x="95.11428571428571" y="852.5666666666667" type="line"/>
      <point x="1074.2238095238095" y="852.5666666666667" type="line"/>
      <point x="1074.2238095238095" y="1020.6142857142858" type="line"/>
      <point x="95.11428571428571" y="1020.6142857142858" type="line"/>
    </contour>
    <contour>
      <point x="95.11428571428571" y="422.06190476190477" type="line"/>
      <point x="1074.2238095238095" y="422.06190476190477" type="line"/>
      <point x="1074.2238095238095" y="591.4333333333333" type="line"/>
      <point x="95.11428571428571" y="591.4333333333333" type="line"/>
    </contour>
  </outline>
</glyph>
<glyph name="greater" format="2">
  <advance width="1169.0"/>
  <unicode hex="003E"/>
  <note>
greater
</note>
  <outline>
    <contour>
      <point x="95.77619047619048" y="224.96190476190475" type="line"/>
      <point x="1072.9" y="656.847619047619" type="line"/>
      <point x="1072.9" y="768.8142857142857" type="line"/>
      <point x="95.77619047619048" y="1258.0380952380951" type="line"/>
      <point x="95.77619047619048" y="1069.047619047619" type="line"/>
      <point x="824.7857142857143" y="720.9714285714285" type="line"/>
      <point x="95.77619047619048" y="413.62857142857143" type="line"/>
    </contour>
  </outline>
</glyph>
<glyph name="question" format="2">
  <advance width="938.1190476190476"/>
  <unicode hex="003F"/>
  <note>
question
</note>
  <outline>
    <contour>
      <point x="286.3809523809524" y="441.2047619047619" type="line"/>
      <point x="472.96190476190475" y="441.2047619047619" type="line"/>
      <point x="472.96190476190475" y="472.4142857142857" type="line" smooth="yes"/>
      <point x="472.96190476190475" y="520.8666666666667"/>
      <point x="479.947619047619" y="558.2761904761904"/>
      <point x="494.25714285714287" y="585.9809523809524" type="curve" smooth="yes"/>
      <point x="512.2714285714286" y="630.4619047619047"/>
      <point x="555.9333333333334" y="674.8714285714286"/>
      <point x="634.3142857142857" y="734.2952380952381" type="curve" smooth="yes"/>
      <point x="708.652380952381" y="790.0142857142857"/>
      <point x="767.3428571428572" y="839.6904761904761"/>
      <point x="809.3571428571429" y="895.7047619047619" type="curve" smooth="yes"/>
      <point x="853.6809523809524" y="957.0142857142857"/>
      <point x="877.3571428571429" y="1025.647619047619"/>
      <point x="877.3571428571429" y="1115.9857142857143" type="curve" smooth="yes"/>
      <point x="877.3571428571429" y="1343.0"/>
      <point x="714.4571428571428" y="1483.0"/>
      <point x="445.3047619047619" y="1483.0" type="curve" smooth="yes"/>
      <point x="305.2238095238095" y="1483.0"/>
      <point x="178.84761904761905" y="1452.4380952380952"/>
      <point x="23.242857142857147" y="1374.5380952380951" type="curve"/>
      <point x="107.23809523809524" y="1205.1809523809525" type="line"/>
      <point x="227.47619047619048" y="1265.7857142857142"/>
      <point x="327.03809523809525" y="1294.404761904762"/>
      <point x="430.7142857142857" y="1294.404761904762" type="curve" smooth="yes"/>
      <point x="565.3809523809524" y="1294.404761904762"/>
      <point x="656.2714285714286" y="1220.1619047619047"/>
      <point x="656.2714285714286" y="1104.1142857142856" type="curve" smooth="yes"/>
      <point x="656.2714285714286" y="1023.2809523809524"/>
      <point x="624.8904761904762" y="965.1666666666666"/>
      <point x="546.1" y="900.7142857142857" type="curve" smooth="yes"/>
      <point x="521.3952380952381" y="880.0095238095238"/>
      <point x="493.7047619047619" y="858.3047619047619"/>
      <point x="465.6904761904762" y="836.2761904761904" type="curve" smooth="yes"/>
      <point x="330.0285714285714" y="733.1619047619048"/>
      <point x="286.3809523809524" y="650.1476190476191"/>
      <point x="286.3809523809524" y="501.37142857142857" type="curve" smooth="yes"/>
    </contour>
    <contour>
      <point x="389.6428571428571" y="-21.985714285714288" type="curve" smooth="yes"/>
      <point x="478.4" y="-21.985714285714288"/>
      <point x="529.8904761904762" y="27.561904761904763"/>
      <point x="529.8904761904762" y="119.03809523809524" type="curve" smooth="yes"/>
      <point x="529.8904761904762" y="209.85238095238094"/>
      <point x="481.04761904761904" y="260.06190476190477"/>
      <point x="389.6428571428571" y="260.06190476190477" type="curve" smooth="yes"/>
      <point x="296.92857142857144" y="260.06190476190477"/>
      <point x="248.74761904761905" y="210.5142857142857"/>
      <point x="248.74761904761905" y="119.03809523809524" type="curve" smooth="yes"/>
      <point x="248.74761904761905" y="26.9"/>
      <point x="300.23809523809524" y="-21.985714285714288"/>
    </contour>
  </outline>
</glyph>
<glyph name="at" format="2">
  <advance width="1829.5619047619048"/>
  <unicode hex="0040"/>
  <note>
at
</note>
  <outline>
    <contour>
      <point x="887.7428571428571" y="-177.14285714285714" type="curve" smooth="yes"/>
      <point x="1048.6" y="-177.14285714285714"/>
      <point x="1199.8380952380953" y="-147.4952380952381"/>
      <point x="1341.4571428571428" y="-89.86190476190477" type="curve"/>
      <point x="1341.4571428571428" y="69.37142857142857" type="line"/>
      <point x="1164.4285714285713" y="3.6809523809523768"/>
      <point x="1016.3333333333334" y="-22.60000000000001"/>
      <point x="877.7714285714286" y="-22.60000000000001" type="curve" smooth="yes"/>
      <point x="497.8952380952381" y="-22.60000000000001"/>
      <point x="281.1190476190476" y="197.57142857142856"/>
      <point x="281.1190476190476" y="584.8714285714286" type="curve" smooth="yes"/>
      <point x="281.1190476190476" y="1022.7904761904762"/>
      <point x="546.0095238095238" y="1315.695238095238"/>
      <point x="981.6190476190476" y="1315.695238095238" type="curve" smooth="yes"/>
      <point x="1341.804761904762" y="1315.695238095238"/>
      <point x="1564.357142857143" y="1098.4666666666667"/>
      <point x="1564.357142857143" y="739.547619047619" type="curve" smooth="yes"/>
      <point x="1564.357142857143" y="545.4857142857143"/>
      <point x="1497.804761904762" y="371.8380952380952"/>
      <point x="1384.6333333333334" y="371.8380952380952" type="curve" smooth="yes"/>
      <point x="1345.152380952381" y="371.8380952380952"/>
      <point x="1317.7285714285715" y="386.5571428571429"/>
      <point x="1301.009523809524" y="415.65714285714284" type="curve" smooth="yes"/>
      <point x="1287.642857142857" y="441.05238095238093"/>
      <point x="1280.6285714285714" y="477.1380952380952"/>
      <point x="1280.6285714285714" y="523.9142857142857" type="curve" smooth="yes"/>
      <point x="1281.2904761904763" y="543.1809523809524"/>
      <point x="1281.2904761904763" y="563.7714285714286"/>
      <point x="1281.952380952381" y="583.0380952380953" type="curve"/>
      <point x="1303.2904761904763" y="1027.8428571428572" type="line"/>
      <point x="1200.3190476190475" y="1059.4761904761904"/>
      <point x="1083.4761904761904" y="1078.1095238095238"/>
      <point x="984.1952380952381" y="1078.1095238095238" type="curve" smooth="yes"/>
      <point x="703.3523809523809" y="1078.1095238095238"/>
      <point x="513.452380952381" y="893.4047619047619"/>
      <point x="513.452380952381" y="611.8285714285714" type="curve" smooth="yes"/>
      <point x="513.452380952381" y="368.5761904761905"/>
      <point x="637.0428571428571" y="226.2952380952381"/>
      <point x="855.8857142857142" y="226.2952380952381" type="curve" smooth="yes"/>
      <point x="980.0285714285715" y="226.2952380952381"/>
      <point x="1080.7761904761905" y="281.7190476190476"/>
      <point x="1143.7333333333333" y="389.56666666666666" type="curve"/>
      <point x="1153.0285714285715" y="389.56666666666666" type="line"/>
      <point x="1181.5761904761905" y="288.07142857142856"/>
      <point x="1265.5333333333333" y="226.2952380952381"/>
      <point x="1377.9142857142858" y="226.2952380952381" type="curve" smooth="yes"/>
      <point x="1600.8" y="226.2952380952381"/>
      <point x="1733.7714285714285" y="453.43333333333334"/>
      <point x="1733.7714285714285" y="739.5619047619048" type="curve" smooth="yes"/>
      <point x="1733.7714285714285" y="1187.857142857143"/>
      <point x="1431.8857142857144" y="1465.2380952380952"/>
      <point x="980.3095238095239" y="1465.2380952380952" type="curve" smooth="yes"/>
      <point x="464.33809523809526" y="1465.2380952380952"/>
      <point x="105.71904761904761" y="1102.5333333333333"/>
      <point x="105.71904761904761" y="583.504761904762" type="curve" smooth="yes"/>
      <point x="105.71904761904761" y="106.18095238095238"/>
      <point x="398.252380952381" y="-177.14285714285714"/>
    </contour>
    <contour>
      <point x="883.8428571428572" y="371.8380952380952" type="curve" smooth="yes"/>
      <point x="823.0380952380953" y="371.8380952380952"/>
      <point x="777.952380952381" y="390.54285714285714"/>
      <point x="746.9095238095238" y="428.6142857142857" type="curve" smooth="yes"/>
      <point x="714.8666666666667" y="468.6714285714286"/>
      <point x="699.1904761904761" y="530.0809523809523"/>
      <point x="699.1904761904761" y="613.8285714285714" type="curve" smooth="yes"/>
      <point x="699.1904761904761" y="728.9285714285714"/>
      <point x="736.5428571428572" y="818.6904761904761"/>
      <point x="803.5714285714286" y="873.4380952380952" type="curve" smooth="yes"/>
      <point x="849.6285714285714" y="912.5238095238095"/>
      <point x="910.7142857142857" y="933.9047619047619"/>
      <point x="982.4904761904762" y="933.9047619047619" type="curve" smooth="yes"/>
      <point x="1032.0142857142857" y="933.9047619047619"/>
      <point x="1076.8190476190475" y="928.2142857142857"/>
      <point x="1117.2428571428572" y="916.1714285714286" type="curve"/>
      <point x="1104.5523809523809" y="688.052380952381" type="line" smooth="yes"/>
      <point x="1097.5523809523809" y="569.3047619047619"/>
      <point x="1073.1714285714286" y="485.57142857142856"/>
      <point x="1031.395238095238" y="435.85238095238094" type="curve" smooth="yes"/>
      <point x="996.6619047619048" y="393.17619047619047"/>
      <point x="947.2523809523809" y="371.8380952380952"/>
    </contour>
  </outline>
</glyph>
<glyph name="A" format="2">
  <advance width="1350.7904761904763"/>
  <unicode hex="0041"/>
  <anchor x="674.77" y="0.0" name="bottom"/>
  <anchor x="1213.4933333333333" y="10.0" name="ogonek"/>
  <anchor x="674.77" y="1462.0" name="top"/>
  <outline>
    <contour>
      <point x="1348.54" y="0.0" type="line"/>
      <point x="815.63" y="1468.0" type="line"/>
      <point x="536.57" y="1468.0" type="line"/>
      <point x="0.0" y="0.0" type="line"/>
      <point x="261.73" y="0.0" type="line"/>
      <point x="405.49666666666667" y="403.87333333333333" type="line"/>
      <point x="944.36" y="403.87333333333333" type="line"/>
      <point x="1086.6633333333334" y="0.0" type="line"/>
    </contour>
    <contour>
      <point x="463.3466666666667" y="603.3666666666667" type="line"/>
      <point x="528.1033333333332" y="803.3866666666667"/>
      <point x="583.2033333333333" y="968.6566666666666"/>
      <point x="628.0366666666666" y="1098.7133333333334" type="curve" smooth="yes"/>
      <point x="647.1833333333334" y="1162.76"/>
      <point x="663.4766666666667" y="1219.8333333333333"/>
      <point x="675.9166666666666" y="1269.9333333333334" type="curve"/>
      <point x="694.2833333333333" y="1196.9333333333334"/>
      <point x="729.5733333333334" y="1068.97"/>
      <point x="752.1333333333333" y="997.39" type="curve" smooth="yes"/>
      <point x="888.12" y="603.3666666666667" type="line"/>
    </contour>
  </outline>
</glyph>
<glyph name="B" format="2">
  <advance width="1344.895238095238"/>
  <unicode hex="0042"/>
  <anchor x="671.7857142857143" y="0.0" name="bottom"/>
  <anchor x="671.7857142857143" y="1462.0" name="top"/>
  <outline>
    <contour>
      <point x="191.77619047619046" y="0.0" type="line"/>
      <point x="695.3761904761905" y="0.0" type="line" smooth="yes"/>
      <point x="1031.3190476190475" y="0.0"/>
      <point x="1229.895238095238" y="156.2952380952381"/>
      <point x="1229.895238095238" y="423.9714285714286" type="curve" smooth="yes"/>
      <point x="1229.895238095238" y="614.3809523809524"/>
      <point x="1136.7952380952381" y="725.0428571428571"/>
      <point x="927.6238095238095" y="766.0" type="curve"/>
      <point x="927.6238095238095" y="773.9857142857143" type="line"/>
      <point x="1097.5" y="805.9857142857143"/>
      <point x="1196.5428571428572" y="928.2952380952381"/>
      <point x="1196.5428571428572" y="1094.647619047619" type="curve" smooth="yes"/>
      <point x="1196.5428571428572" y="1343.3095238095239"/>
      <point x="1020.6285714285714" y="1462.0"/>
      <point x="643.0809523809523" y="1462.0" type="curve" smooth="yes"/>
      <point x="191.77619047619046" y="1462.0" type="line"/>
    </contour>
    <contour>
      <point x="429.4666666666667" y="1275.3619047619047" type="line"/>
      <point x="639.0809523809523" y="1275.3619047619047" type="line" smooth="yes"/>
      <point x="846.5952380952381" y="1275.3619047619047"/>
      <point x="950.5285714285715" y="1211.557142857143"/>
      <point x="950.5285714285715" y="1068.847619047619" type="curve" smooth="yes"/>
      <point x="950.5285714285715" y="921.504761904762"/>
      <point x="857.0190476190476" y="852.7"/>
      <point x="657.4761904761905" y="852.7" type="curve" smooth="yes"/>
      <point x="429.4666666666667" y="852.7" type="line"/>
    </contour>
    <contour>
      <point x="662.7714285714286" y="670.6952380952381" type="line" smooth="yes"/>
      <point x="873.6380952380953" y="670.6952380952381"/>
      <point x="982.2190476190476" y="591.8761904761905"/>
      <point x="982.2190476190476" y="439.1952380952381" type="curve" smooth="yes"/>
      <point x="982.2190476190476" y="272.8095238095238"/>
      <point x="880.9761904761905" y="189.28571428571428"/>
      <point x="678.152380952381" y="189.28571428571428" type="curve" smooth="yes"/>
      <point x="429.4666666666667" y="189.28571428571428" type="line"/>
      <point x="429.4666666666667" y="670.6952380952381" type="line"/>
    </contour>
  </outline>
</glyph>
<glyph name="C" format="2">
  <advance width="1293.8428571428572"/>
  <unicode hex="0043"/>
  <anchor x="753.2523809523809" y="0.0" name="bottom"/>
  <anchor x="788.3428571428572" y="1462.0" name="top"/>
  <outline>
    <contour>
      <point x="794.9714285714285" y="-20.0" type="curve" smooth="yes"/>
      <point x="943.9428571428572" y="-20.0"/>
      <point x="1072.547619047619" y="1.6333333333333329"/>
      <point x="1180.8" y="44.9" type="curve"/>
      <point x="1180.8" y="248.0857142857143" type="line"/>
      <point x="1068.5333333333333" y="207.8190476190476"/>
      <point x="953.2238095238096" y="179.9047619047619"/>
      <point x="827.5761904761905" y="179.9047619047619" type="curve" smooth="yes"/>
      <point x="722.1238095238095" y="179.9047619047619"/>
      <point x="634.3333333333334" y="204.9190476190476"/>
      <point x="564.5571428571428" y="253.59523809523807" type="curve" smooth="yes"/>
      <point x="441.24285714285713" y="336.70952380952383"/>
      <point x="370.3952380952381" y="494.34761904761905"/>
      <point x="370.3952380952381" y="729.0285714285715" type="curve" smooth="yes"/>
      <point x="370.3952380952381" y="1074.147619047619"/>
      <point x="542.1047619047619" y="1283.7714285714285"/>
      <point x="826.3666666666667" y="1283.7714285714285" type="curve" smooth="yes"/>
      <point x="946.6761904761905" y="1283.7714285714285"/>
      <point x="1054.7047619047619" y="1250.8142857142857"/>
      <point x="1162.3666666666666" y="1199.1380952380953" type="curve"/>
      <point x="1240.4333333333334" y="1392.4095238095238" type="line"/>
      <point x="1112.8714285714286" y="1452.6904761904761"/>
      <point x="974.6190476190476" y="1483.0"/>
      <point x="825.0" y="1483.0" type="curve" smooth="yes"/>
      <point x="682.3523809523809" y="1483.0"/>
      <point x="558.0285714285715" y="1452.6619047619047"/>
      <point x="452.3666666666667" y="1391.0" type="curve" smooth="yes"/>
      <point x="239.7047619047619" y="1266.3380952380953"/>
      <point x="122.38095238095238" y="1031.3380952380953"/>
      <point x="122.38095238095238" y="731.0285714285715" type="curve" smooth="yes"/>
      <point x="122.38095238095238" y="251.71904761904761"/>
      <point x="370.07142857142856" y="-20.0"/>
    </contour>
  </outline>
</glyph>
<glyph name="E" format="2">
  <advance width="1141.252380952381"/>
  <unicode hex="0045"/>
  <anchor x="570.9571428571429" y="0.0" name="bottom"/>
  <anchor x="947.9142857142857" y="10.0" name="ogonek"/>
  <anchor x="570.9571428571429" y="1462.0" name="top"/>
  <anchor x="27.28095238095238" y="1462.0" name="topleft"/>
  <outline>
    <contour>
      <point x="1022.547619047619" y="199.9047619047619" type="line"/>
      <point x="429.4666666666667" y="199.9047619047619" type="line"/>
      <point x="429.4666666666667" y="664.0761904761905" type="line"/>
      <point x="985.5333333333333" y="664.0761904761905" type="line"/>
      <point x="985.5333333333333" y="861.3333333333334" type="line"/>
      <point x="429.4666666666667" y="861.3333333333334" type="line"/>
      <point x="429.4666666666667" y="1264.7428571428572" type="line"/>
      <point x="1022.547619047619" y="1264.7428571428572" type="line"/>
      <point x="1022.547619047619" y="1462.0" type="line"/>
      <point x="191.77619047619046" y="1462.0" type="line"/>
      <point x="191.77619047619046" y="0.0" type="line"/>
      <point x="1022.547619047619" y="0.0" type="line"/>
    </contour>
  </outline>
</glyph>
<glyph name="F" format="2">
  <advance width="1091.5428571428572"/>
  <unicode hex="0046"/>
  <anchor x="539.152380952381" y="0.0" name="bottom"/>
  <anchor x="539.152380952381" y="1462.0" name="top"/>
  <outline>
    <contour>
      <point x="426.81904761904764" y="604.6809523809524" type="line"/>
      <point x="983.5619047619048" y="604.6809523809524" type="line"/>
      <point x="983.5619047619048" y="802.9380952380952" type="line"/>
      <point x="426.81904761904764" y="802.9380952380952" type="line"/>
      <point x="426.81904761904764" y="1264.7428571428572" type="line"/>
      <point x="1021.9" y="1264.7428571428572" type="line"/>
      <point x="1021.9" y="1462.0" type="line"/>
      <point x="191.77619047619046" y="1462.0" type="line"/>
      <point x="191.77619047619046" y="0.0" type="line"/>
      <point x="426.81904761904764" y="0.0" type="line"/>
    </contour>
  </outline>
</glyph>
<glyph name="G" format="2">
  <advance width="1482.3238095238096"/>
  <unicode hex="0047"/>
  <anchor x="754.2380952380952" y="0.0" name="bottom"/>
  <anchor x="754.2380952380952" y="1462.0" name="top"/>
  <outline>
    <contour>
      <point x="840.1142857142858" y="-20.0" type="curve" smooth="yes"/>
      <point x="1019.2809523809524" y="-20.0"/>
      <point x="1197.8857142857144" y="9.338095238095239"/>
      <point x="1352.1095238095238" y="69.33809523809524" type="curve"/>
      <point x="1352.1095238095238" y="791.9380952380952" type="line"/>
      <point x="770.0857142857143" y="791.9380952380952" type="line"/>
      <point x="770.0857142857143" y="599.3" type="line"/>
      <point x="1124.3333333333333" y="599.3" type="line"/>
      <point x="1124.3333333333333" y="217.01904761904763" type="line"/>
      <point x="1051.852380952381" y="191.59523809523807"/>
      <point x="962.3" y="178.55238095238093"/>
      <point x="869.4238095238095" y="178.55238095238093" type="curve" smooth="yes"/>
      <point x="542.7238095238096" y="178.55238095238093"/>
      <point x="371.0571428571428" y="369.82380952380953"/>
      <point x="371.0571428571428" y="717.9571428571429" type="curve" smooth="yes"/>
      <point x="371.0571428571428" y="1082.147619047619"/>
      <point x="562.4285714285714" y="1284.4476190476191"/>
      <point x="877.2809523809524" y="1284.4476190476191" type="curve" smooth="yes"/>
      <point x="1006.9714285714285" y="1284.4476190476191"/>
      <point x="1131.6904761904761" y="1256.7714285714285"/>
      <point x="1248.1" y="1201.0809523809523" type="curve"/>
      <point x="1328.152380952381" y="1394.352380952381" type="line"/>
      <point x="1205.4761904761904" y="1449.7047619047619"/>
      <point x="1048.547619047619" y="1484.3380952380953"/>
      <point x="880.9857142857143" y="1484.3380952380953" type="curve" smooth="yes"/>
      <point x="729.0142857142857" y="1484.3380952380953"/>
      <point x="598.6904761904761" y="1455.0142857142857"/>
      <point x="487.6333333333333" y="1398.2809523809524" type="curve" smooth="yes"/>
      <point x="258.35238095238094" y="1281.2380952380952"/>
      <point x="122.38095238095238" y="1053.9285714285713"/>
      <point x="122.38095238095238" y="722.9285714285714" type="curve" smooth="yes"/>
      <point x="122.38095238095238" y="252.67619047619047"/>
      <point x="377.7047619047619" y="-20.0"/>
    </contour>
  </outline>
</glyph>
<glyph name="H" format="2">
  <advance width="1535.2190476190476"/>
  <unicode hex="0048"/>
  <anchor x="766.7857142857143" y="0.0" name="bottom"/>
  <anchor x="766.7857142857143" y="731.0" name="center"/>
  <anchor x="766.7857142857143" y="1462.0" name="top"/>
  <anchor x="27.28095238095238" y="1462.0" name="topleft"/>
  <outline>
    <contour>
      <point x="1340.7952380952381" y="1462.0" type="line"/>
      <point x="1101.442857142857" y="1462.0" type="line"/>
      <point x="1101.442857142857" y="862.6428571428571" type="line"/>
      <point x="430.12857142857143" y="862.6428571428571" type="line"/>
      <point x="430.12857142857143" y="1462.0" type="line"/>
      <point x="191.77619047619046" y="1462.0" type="line"/>
      <point x="191.77619047619046" y="0.0" type="line"/>
      <point x="430.12857142857143" y="0.0" type="line"/>
      <point x="430.12857142857143" y="662.0761904761905" type="line"/>
      <point x="1101.442857142857" y="662.0761904761905" type="line"/>
      <point x="1101.442857142857" y="0.0" type="line"/>
      <point x="1340.7952380952381" y="0.0" type="line"/>
    </contour>
  </outline>
</glyph>
<glyph name="I" format="2">
  <advance width="623.2285714285714"/>
  <unicode hex="0049"/>
  <anchor x="310.95238095238096" y="0.0" name="bottom"/>
  <anchor x="381.0952380952381" y="10.0" name="ogonek"/>
  <anchor x="310.95238095238096" y="1462.0" name="top"/>
  <anchor x="27.28095238095238" y="1462.0" name="topleft"/>
  <outline>
    <contour>
      <point x="430.79047619047617" y="0.0" type="line"/>
      <point x="430.79047619047617" y="1462.0" type="line"/>
      <point x="192.43809523809523" y="1462.0" type="line"/>
      <point x="192.43809523809523" y="0.0" type="line"/>
    </contour>
  </outline>
</glyph>
<glyph name="J" format="2">
  <advance width="619.847619047619"/>
  <unicode hex="004A"/>
  <anchor x="314.5571428571429" y="0.0" name="bottom"/>
  <anchor x="314.5571428571429" y="1462.0" name="top"/>
  <outline>
    <contour>
      <point x="13.333333333333329" y="-410.7" type="curve" smooth="yes"/>
      <point x="152.44285714285712" y="-410.7"/>
      <point x="256.947619047619" y="-371.44761904761907"/>
      <point x="327.84761904761905" y="-294.6047619047619" type="curve" smooth="yes"/>
      <point x="400.7761904761905" y="-215.07142857142858"/>
      <point x="438.07142857142856" y="-94.25714285714287"/>
      <point x="438.07142857142856" y="66.19047619047619" type="curve" smooth="yes"/>
      <point x="438.07142857142856" y="1462.0" type="line"/>
      <point x="199.05714285714285" y="1462.0" type="line"/>
      <point x="199.05714285714285" y="44.93809523809524" type="line" smooth="yes"/>
      <point x="199.05714285714285" y="-46.72380952380953"/>
      <point x="181.6904761904762" y="-113.4"/>
      <point x="145.97142857142856" y="-156.07619047619048" type="curve" smooth="yes"/>
      <point x="111.26666666666667" y="-198.4"/>
      <point x="58.22380952380952" y="-217.73809523809524"/>
      <point x="-15.142857142857142" y="-217.73809523809524" type="curve" smooth="yes"/>
      <point x="-59.49523809523809" y="-217.73809523809524"/>
      <point x="-101.55238095238096" y="-210.73809523809524"/>
      <point x="-162.8190476190476" y="-197.07619047619048" type="curve"/>
      <point x="-162.8190476190476" y="-386.34761904761905" type="line"/>
      <point x="-111.24285714285715" y="-402.3619047619048"/>
      <point x="-52.96190476190476" y="-410.7"/>
    </contour>
  </outline>
</glyph>
<glyph name="K" format="2">
  <advance width="1302.5238095238096"/>
  <unicode hex="004B"/>
  <anchor x="652.5857142857143" y="0.0" name="bottom"/>
  <anchor x="652.5857142857143" y="1462.0" name="top"/>
  <outline>
    <contour>
      <point x="757.6857142857143" y="826.7904761904762" type="line"/>
      <point x="1293.142857142857" y="1462.0" type="line"/>
      <point x="1022.8190476190476" y="1462.0" type="line"/>
      <point x="572.9333333333334" y="933.5" type="line"/>
      <point x="516.2857142857142" y="864.9380952380952"/>
      <point x="468.24285714285713" y="806.9666666666667"/>
      <point x="430.12857142857143" y="759.5857142857143" type="curve"/>
      <point x="430.12857142857143" y="1462.0" type="line"/>
      <point x="191.77619047619046" y="1462.0" type="line"/>
      <point x="191.77619047619046" y="0.0" type="line"/>
      <point x="430.12857142857143" y="0.0" type="line"/>
      <point x="430.12857142857143" y="548.3714285714286" type="line"/>
      <point x="589.3857142857142" y="673.3761904761905" type="line"/>
      <point x="1023.9619047619047" y="0.0" type="line"/>
      <point x="1297.8904761904762" y="0.0" type="line"/>
    </contour>
  </outline>
</glyph>
<glyph name="L" format="2">
  <advance width="1121.1619047619047"/>
  <unicode hex="004C"/>
  <anchor x="565.7142857142857" y="0.0" name="bottom"/>
  <anchor x="565.7142857142857" y="731.0" name="center"/>
  <anchor x="459.75714285714287" y="1462.0" name="top"/>
  <anchor x="996.452380952381" y="1462.0" name="topright"/>
  <outline>
    <contour>
      <point x="1064.247619047619" y="0.0" type="line"/>
      <point x="1064.247619047619" y="199.25714285714287" type="line"/>
      <point x="429.4666666666667" y="199.25714285714287" type="line"/>
      <point x="429.4666666666667" y="1462.0" type="line"/>
      <point x="191.77619047619046" y="1462.0" type="line"/>
      <point x="191.77619047619046" y="0.0" type="line"/>
    </contour>
  </outline>
</glyph>
<glyph name="M" format="2">
  <advance width="1875.5523809523809"/>
  <unicode hex="004D"/>
  <anchor x="940.2619047619048" y="0.0" name="bottom"/>
  <anchor x="940.2619047619048" y="1462.0" name="top"/>
  <outline>
    <contour>
      <point x="191.77619047619046" y="0.0" type="line"/>
      <point x="406.2714285714286" y="0.0" type="line"/>
      <point x="406.2714285714286" y="882.2047619047619" type="line" smooth="yes"/>
      <point x="406.2714285714286" y="975.1619047619048"/>
      <point x="401.2857142857143" y="1084.9761904761904"/>
      <point x="392.3142857142857" y="1212.3238095238096" type="curve"/>
      <point x="400.9761904761905" y="1212.3238095238096" type="line"/>
      <point x="831.4666666666667" y="0.0" type="line"/>
      <point x="1040.7619047619048" y="0.0" type="line"/>
      <point x="1471.2666666666667" y="1210.3238095238096" type="line"/>
      <point x="1479.2666666666667" y="1210.3238095238096" type="line"/>
      <point x="1471.9285714285713" y="1098.8619047619047"/>
      <point x="1465.942857142857" y="967.8952380952381"/>
      <point x="1465.942857142857" y="891.5571428571428" type="curve" smooth="yes"/>
      <point x="1465.942857142857" y="0.0" type="line"/>
      <point x="1689.4095238095238" y="0.0" type="line"/>
      <point x="1689.4095238095238" y="1462.0" type="line"/>
      <point x="1362.652380952381" y="1462.0" type="line"/>
      <point x="1034.642857142857" y="547.0428571428572" type="line"/>
      <point x="1005.2904761904762" y="462.0857142857143"/>
      <point x="975.9380952380952" y="376.12857142857143"/>
      <point x="946.5857142857143" y="291.1714285714286" type="curve"/>
      <point x="939.2619047619048" y="291.1714285714286" type="line"/>
      <point x="910.2476190476191" y="375.12857142857143"/>
      <point x="880.8952380952381" y="458.4238095238095"/>
      <point x="851.8809523809524" y="542.3809523809524" type="curve"/>
      <point x="519.8857142857142" y="1462.0" type="line"/>
      <point x="191.77619047619046" y="1462.0" type="line"/>
    </contour>
  </outline>
</glyph>
<glyph name="N" format="2">
  <advance width="1601.4380952380952"/>
  <unicode hex="004E"/>
  <anchor x="799.2333333333333" y="0.0" name="bottom"/>
  <anchor x="799.2333333333333" y="1462.0" name="top"/>
  <outline>
    <contour>
      <point x="191.77619047619046" y="0.0" type="line"/>
      <point x="406.2714285714286" y="0.0" type="line"/>
      <point x="406.2714285714286" y="814.2952380952381" type="line" smooth="yes"/>
      <point x="406.2714285714286" y="895.9428571428572"/>
      <point x="401.6095238095238" y="1015.9142857142857"/>
      <point x="390.96190476190475" y="1173.5619047619048" type="curve"/>
      <point x="399.62380952380954" y="1173.5619047619048" type="line"/>
      <point x="1112.0619047619048" y="0.0" type="line"/>
      <point x="1407.0142857142857" y="0.0" type="line"/>
      <point x="1407.0142857142857" y="1462.0" type="line"/>
      <point x="1190.857142857143" y="1462.0" type="line"/>
      <point x="1190.857142857143" y="643.6904761904761" type="line" smooth="yes"/>
      <point x="1190.857142857143" y="544.2952380952381"/>
      <point x="1194.5190476190476" y="428.3095238095238"/>
      <point x="1201.8428571428572" y="295.73333333333335" type="curve"/>
      <point x="1195.8428571428572" y="295.73333333333335" type="line"/>
      <point x="485.06666666666666" y="1462.0" type="line"/>
      <point x="191.77619047619046" y="1462.0" type="line"/>
    </contour>
  </outline>
</glyph>
<glyph name="O" format="2">
  <advance width="1608.0238095238096"/>
  <unicode hex="004F"/>
  <anchor x="803.5190476190476" y="0.0" name="bottom"/>
  <anchor x="803.5190476190476" y="731.0" name="center"/>
  <anchor x="1441.7571428571428" y="10.0" name="ogonek"/>
  <anchor x="803.5190476190476" y="1462.0" name="top"/>
  <anchor x="127.22857142857143" y="1462.0" name="topleft"/>
  <anchor x="1581.404761904762" y="1462.0" name="topright"/>
  <outline>
    <contour>
      <point x="1482.9952380952382" y="733.0" type="curve" smooth="yes"/>
      <point x="1482.9952380952382" y="1211.2380952380952"/>
      <point x="1238.9952380952382" y="1485.0"/>
      <point x="804.5190476190476" y="1485.0" type="curve" smooth="yes"/>
      <point x="372.3809523809524" y="1485.0"/>
      <point x="122.38095238095238" y="1209.9285714285713"/>
      <point x="122.38095238095238" y="735.0" type="curve" smooth="yes"/>
      <point x="122.38095238095238" y="256.0857142857143"/>
      <point x="371.6904761904762" y="-20.0"/>
      <point x="802.5190476190476" y="-20.0" type="curve" smooth="yes"/>
      <point x="1236.9952380952382" y="-20.0"/>
      <point x="1482.9952380952382" y="255.76190476190476"/>
    </contour>
    <contour>
      <point x="375.0285714285714" y="733.0" type="curve" smooth="yes"/>
      <point x="375.0285714285714" y="1089.104761904762"/>
      <point x="526.0190476190476" y="1282.0809523809523"/>
      <point x="804.5190476190476" y="1282.0809523809523" type="curve" smooth="yes"/>
      <point x="1082.0333333333333" y="1282.0809523809523"/>
      <point x="1230.347619047619" y="1094.4285714285713"/>
      <point x="1230.347619047619" y="733.0" type="curve" smooth="yes"/>
      <point x="1230.347619047619" y="370.8952380952381"/>
      <point x="1084.357142857143" y="183.8904761904762"/>
      <point x="802.5190476190476" y="183.8904761904762" type="curve" smooth="yes"/>
      <point x="523.6809523809524" y="183.8904761904762"/>
      <point x="375.0285714285714" y="376.8809523809524"/>
    </contour>
  </outline>
</glyph>
<glyph name="P" format="2">
  <advance width="1256.247619047619"/>
  <unicode hex="0050"/>
  <anchor x="628.7857142857143" y="0.0" name="bottom"/>
  <anchor x="628.7857142857143" y="1462.0" name="top"/>
  <outline>
    <contour>
      <point x="191.77619047619046" y="0.0" type="line"/>
      <point x="429.4666666666667" y="0.0" type="line"/>
      <point x="429.4666666666667" y="549.0619047619048" type="line"/>
      <point x="601.8523809523809" y="549.0619047619048" type="line" smooth="yes"/>
      <point x="955.1761904761904" y="549.0619047619048"/>
      <point x="1155.1761904761904" y="717.9619047619047"/>
      <point x="1155.1761904761904" y="1020.8190476190476" type="curve" smooth="yes"/>
      <point x="1155.1761904761904" y="1308.7619047619048"/>
      <point x="975.8809523809524" y="1462.0"/>
      <point x="617.952380952381" y="1462.0" type="curve" smooth="yes"/>
      <point x="191.77619047619046" y="1462.0" type="line"/>
    </contour>
    <contour>
      <point x="429.4666666666667" y="744.952380952381" type="line"/>
      <point x="429.4666666666667" y="1264.7571428571428" type="line"/>
      <point x="606.6" y="1264.7571428571428" type="line" smooth="yes"/>
      <point x="812.8761904761905" y="1264.7571428571428"/>
      <point x="910.8095238095239" y="1184.895238095238"/>
      <point x="910.8095238095239" y="1018.1428571428571" type="curve" smooth="yes"/>
      <point x="910.8095238095239" y="833.052380952381"/>
      <point x="801.9333333333334" y="744.952380952381"/>
      <point x="570.2333333333333" y="744.952380952381" type="curve" smooth="yes"/>
    </contour>
  </outline>
</glyph>
<glyph name="Q" format="2">
  <advance width="1608.0238095238096"/>
  <unicode hex="0051"/>
  <anchor x="803.5190476190476" y="0.0" name="bottom"/>
  <anchor x="803.5190476190476" y="1462.0" name="top"/>
  <outline>
    <contour>
      <point x="1108.804761904762" y="-348.0" type="line"/>
      <point x="1425.7190476190476" y="-348.0" type="line"/>
      <point x="1081.4666666666667" y="29.123809523809523" type="line"/>
      <point x="1338.752380952381" y="120.98095238095237"/>
      <point x="1482.9952380952382" y="369.46190476190475"/>
      <point x="1482.9952380952382" y="733.0" type="curve" smooth="yes"/>
      <point x="1482.9952380952382" y="1211.2380952380952"/>
      <point x="1238.9952380952382" y="1485.0"/>
      <point x="804.5190476190476" y="1485.0" type="curve" smooth="yes"/>
      <point x="372.3809523809524" y="1485.0"/>
      <point x="122.38095238095238" y="1209.9285714285713"/>
      <point x="122.38095238095238" y="735.0" type="curve" smooth="yes"/>
      <point x="122.38095238095238" y="256.747619047619"/>
      <point x="371.0285714285714" y="-18.33809523809524"/>
      <point x="800.5333333333333" y="-20.0" type="curve" smooth="yes"/>
      <point x="812.2666666666667" y="-20.0"/>
      <point x="826.0" y="-19.66190476190476"/>
      <point x="836.7333333333333" y="-18.66190476190476" type="curve"/>
    </contour>
    <contour>
      <point x="802.5190476190476" y="183.8904761904762" type="curve" smooth="yes"/>
      <point x="523.6809523809524" y="183.8904761904762"/>
      <point x="375.0285714285714" y="376.8809523809524"/>
      <point x="375.0285714285714" y="733.0" type="curve" smooth="yes"/>
      <point x="375.0285714285714" y="1089.104761904762"/>
      <point x="526.0190476190476" y="1282.0809523809523"/>
      <point x="804.5190476190476" y="1282.0809523809523" type="curve" smooth="yes"/>
      <point x="1082.0333333333333" y="1282.0809523809523"/>
      <point x="1230.347619047619" y="1094.4285714285713"/>
      <point x="1230.347619047619" y="733.0" type="curve" smooth="yes"/>
      <point x="1230.347619047619" y="370.8952380952381"/>
      <point x="1084.357142857143" y="183.8904761904762"/>
    </contour>
  </outline>
</glyph>
<glyph name="R" format="2">
  <advance width="1306.357142857143"/>
  <unicode hex="0052"/>
  <anchor x="655.3333333333334" y="0.0" name="bottom"/>
  <anchor x="655.3333333333334" y="1462.0" name="top"/>
  <outline>
    <contour>
      <point x="191.77619047619046" y="0.0" type="line"/>
      <point x="429.4666666666667" y="0.0" type="line"/>
      <point x="429.4666666666667" y="588.6809523809524" type="line"/>
      <point x="670.6761904761905" y="588.6809523809524" type="line"/>
      <point x="1016.5666666666667" y="0.0" type="line"/>
      <point x="1289.4809523809524" y="0.0" type="line"/>
      <point x="879.2428571428571" y="652.7619047619048" type="line"/>
      <point x="1068.4" y="726.9857142857143"/>
      <point x="1161.7952380952381" y="862.3380952380952"/>
      <point x="1161.7952380952381" y="1045.7619047619048" type="curve" smooth="yes"/>
      <point x="1161.7952380952381" y="1323.3666666666666"/>
      <point x="978.8952380952381" y="1462.0"/>
      <point x="600.0095238095238" y="1462.0" type="curve" smooth="yes"/>
      <point x="191.77619047619046" y="1462.0" type="line"/>
    </contour>
    <contour>
      <point x="429.4666666666667" y="773.3190476190476" type="line"/>
      <point x="429.4666666666667" y="1274.0238095238096" type="line"/>
      <point x="595.347619047619" y="1274.0238095238096" type="line" smooth="yes"/>
      <point x="819.5666666666667" y="1274.0238095238096"/>
      <point x="918.0904761904762" y="1199.2047619047619"/>
      <point x="918.0904761904762" y="1033.1285714285714" type="curve" smooth="yes"/>
      <point x="918.0904761904762" y="861.152380952381"/>
      <point x="809.847619047619" y="773.3190476190476"/>
      <point x="613.152380952381" y="773.3190476190476" type="curve" smooth="yes"/>
    </contour>
  </outline>
</glyph>
<glyph name="S" format="2">
  <advance width="1123.942857142857"/>
  <unicode hex="0053"/>
  <anchor x="568.8571428571429" y="0.0" name="bottom"/>
  <anchor x="571.9" y="1462.0" name="top"/>
  <outline>
    <contour>
      <point x="503.9142857142857" y="-20.0" type="curve" smooth="yes"/>
      <point x="849.5619047619048" y="-20.0"/>
      <point x="1059.009523809524" y="134.9857142857143"/>
      <point x="1059.009523809524" y="412.74285714285713" type="curve" smooth="yes"/>
      <point x="1059.009523809524" y="635.2380952380952"/>
      <point x="927.4142857142857" y="723.447619047619"/>
      <point x="676.7238095238096" y="827.052380952381" type="curve" smooth="yes"/>
      <point x="582.3142857142857" y="865.3904761904762"/>
      <point x="499.4142857142857" y="900.6571428571428"/>
      <point x="442.7523809523809" y="936.3190476190476" type="curve" smooth="yes"/>
      <point x="380.2285714285714" y="976.0952380952381"/>
      <point x="353.15714285714284" y="1025.8857142857144"/>
      <point x="353.15714285714284" y="1091.4380952380952" type="curve" smooth="yes"/>
      <point x="353.15714285714284" y="1214.8809523809523"/>
      <point x="447.4714285714286" y="1288.4190476190477"/>
      <point x="614.504761904762" y="1288.4190476190477" type="curve" smooth="yes"/>
      <point x="715.2238095238096" y="1288.4190476190477"/>
      <point x="833.547619047619" y="1260.7714285714285"/>
      <point x="961.8285714285714" y="1203.8142857142857" type="curve"/>
      <point x="1037.8809523809523" y="1392.4238095238095" type="line"/>
      <point x="902.347619047619" y="1452.0285714285715"/>
      <point x="757.7285714285714" y="1483.0"/>
      <point x="618.5190476190476" y="1483.0" type="curve" smooth="yes"/>
      <point x="312.3809523809524" y="1483.0"/>
      <point x="114.43809523809524" y="1334.395238095238"/>
      <point x="114.43809523809524" y="1075.1571428571428" type="curve" smooth="yes"/>
      <point x="114.43809523809524" y="1009.495238095238"/>
      <point x="126.77619047619048" y="952.1857142857143"/>
      <point x="151.7904761904762" y="902.2142857142857" type="curve" smooth="yes"/>
      <point x="204.15714285714284" y="800.5809523809523"/>
      <point x="304.94761904761907" y="729.6380952380953"/>
      <point x="490.9047619047619" y="658.6809523809524" type="curve" smooth="yes"/>
      <point x="688.8095238095239" y="583.6238095238095"/>
      <point x="817.6285714285714" y="531.9047619047619"/>
      <point x="817.6285714285714" y="391.56190476190477" type="curve" smooth="yes"/>
      <point x="817.6285714285714" y="264.1619047619048"/>
      <point x="721.6809523809524" y="179.24285714285713"/>
      <point x="513.8285714285714" y="179.24285714285713" type="curve" smooth="yes"/>
      <point x="394.5333333333333" y="179.24285714285713"/>
      <point x="226.92857142857142" y="210.4952380952381"/>
      <point x="99.74761904761905" y="272.0571428571428" type="curve"/>
      <point x="99.74761904761905" y="54.22380952380952" type="line"/>
      <point x="217.60476190476192" y="0.3095238095238093"/>
      <point x="368.07142857142856" y="-20.0"/>
    </contour>
  </outline>
</glyph>
<glyph name="T" format="2">
  <advance width="1147.7952380952381"/>
  <unicode hex="0054"/>
  <anchor x="546.7714285714286" y="0.0" name="bottom"/>
  <anchor x="570.0952380952381" y="731.0" name="center"/>
  <anchor x="570.0952380952381" y="1462.0" name="top"/>
  <outline>
    <contour>
      <point x="693.2428571428571" y="1260.7571428571428" type="line"/>
      <point x="1112.642857142857" y="1260.7571428571428" type="line"/>
      <point x="1112.642857142857" y="1462.0" type="line"/>
      <point x="34.49047619047619" y="1462.0" type="line"/>
      <point x="34.49047619047619" y="1260.7571428571428" type="line"/>
      <point x="454.55238095238093" y="1260.7571428571428" type="line"/>
      <point x="454.55238095238093" y="0.0" type="line"/>
      <point x="693.2428571428571" y="0.0" type="line"/>
    </contour>
  </outline>
</glyph>
<glyph name="U" format="2">
  <advance width="1522.642857142857"/>
  <unicode hex="0055"/>
  <anchor x="762.8142857142857" y="0.0" name="bottom"/>
  <anchor x="869.3666666666667" y="10.0" name="ogonek"/>
  <anchor x="762.8142857142857" y="1462.0" name="top"/>
  <anchor x="1496.6857142857143" y="1462.0" name="topright"/>
  <outline>
    <contour>
      <point x="756.1380952380953" y="-20.0" type="curve" smooth="yes"/>
      <point x="1131.9380952380952" y="-20.0"/>
      <point x="1344.8809523809523" y="188.60476190476192"/>
      <point x="1344.8809523809523" y="546.447619047619" type="curve" smooth="yes"/>
      <point x="1344.8809523809523" y="1462.0" type="line"/>
      <point x="1107.1904761904761" y="1462.0" type="line"/>
      <point x="1107.1904761904761" y="552.3333333333334" type="line" smooth="yes"/>
      <point x="1107.1904761904761" y="307.7952380952381"/>
      <point x="989.552380952381" y="180.53809523809525"/>
      <point x="765.4904761904762" y="180.53809523809525" type="curve" smooth="yes"/>
      <point x="542.047619047619" y="180.53809523809525"/>
      <point x="418.76190476190476" y="309.7952380952381"/>
      <point x="418.76190476190476" y="557.0380952380953" type="curve" smooth="yes"/>
      <point x="418.76190476190476" y="1462.0" type="line"/>
      <point x="179.40952380952382" y="1462.0" type="line"/>
      <point x="179.40952380952382" y="544.4904761904762" type="line" smooth="yes"/>
      <point x="179.40952380952382" y="184.63333333333333"/>
      <point x="389.33809523809526" y="-20.0"/>
    </contour>
  </outline>
</glyph>
<glyph name="V" format="2">
  <advance width="1280.6238095238095"/>
  <unicode hex="0056"/>
  <anchor x="646.6" y="0.0" name="bottom"/>
  <anchor x="646.6" y="1462.0" name="top"/>
  <outline>
    <contour>
      <point x="513.4933333333333" y="0.0" type="line"/>
      <point x="777.2433333333333" y="0.0" type="line"/>
      <point x="1292.7366666666667" y="1462.0" type="line"/>
      <point x="1028.3733333333334" y="1462.0" type="line"/>
      <point x="718.5766666666666" y="526.4833333333333" type="line" smooth="yes"/>
      <point x="687.4533333333333" y="432.53000000000003"/>
      <point x="657.21" y="313.83"/>
      <point x="646.0633333333334" y="243.9066666666667" type="curve"/>
      <point x="634.0133333333333" y="314.2733333333333"/>
      <point x="604.3533333333332" y="428.2"/>
      <point x="553.9133333333334" y="584.6866666666666" type="curve" smooth="yes"/>
      <point x="264.2166666666667" y="1462.0" type="line"/>
      <point x="0.0" y="1462.0" type="line"/>
    </contour>
  </outline>
</glyph>
<glyph name="W" format="2">
  <advance width="1928.2714285714285"/>
  <unicode hex="0057"/>
  <anchor x="959.0095238095238" y="0.0" name="bottom"/>
  <anchor x="959.0095238095238" y="1462.0" name="top"/>
  <outline>
    <contour>
      <point x="400.70952380952383" y="0.0" type="line"/>
      <point x="663.4380952380952" y="0.0" type="line"/>
      <point x="904.3619047619047" y="924.3333333333334" type="line" smooth="yes"/>
      <point x="926.6857142857143" y="1014.5571428571428"/>
      <point x="945.6428571428571" y="1117.3"/>
      <point x="956.6428571428571" y="1188.5380952380951" type="curve"/>
      <point x="969.6428571428571" y="1107.695238095238"/>
      <point x="998.2476190476191" y="975.4333333333334"/>
      <point x="1017.9666666666667" y="900.3047619047619" type="curve" smooth="yes"/>
      <point x="1254.904761904762" y="0.0" type="line"/>
      <point x="1516.2952380952381" y="0.0" type="line"/>
      <point x="1900.4380952380952" y="1462.0" type="line"/>
      <point x="1668.3666666666666" y="1462.0" type="line"/>
      <point x="1427.8809523809523" y="504.95238095238096" type="line" smooth="yes"/>
      <point x="1401.6285714285714" y="390.7190476190476"/>
      <point x="1385.6714285714286" y="304.6380952380952"/>
      <point x="1376.6714285714286" y="244.06190476190477" type="curve"/>
      <point x="1361.6714285714286" y="335.9190476190476"/>
      <point x="1323.7714285714285" y="514.3190476190476"/>
      <point x="1287.1238095238095" y="659.1190476190476" type="curve" smooth="yes"/>
      <point x="1072.2285714285715" y="1462.0" type="line"/>
      <point x="842.0714285714286" y="1462.0" type="line"/>
      <point x="647.6714285714286" y="729.8857142857142" type="line" smooth="yes"/>
      <point x="603.6142857142858" y="558.7857142857142"/>
      <point x="559.0238095238095" y="356.9190476190476"/>
      <point x="542.3619047619047" y="245.39999999999998" type="curve"/>
      <point x="521.9809523809524" y="364.2047619047619"/>
      <point x="502.6857142857143" y="452.62380952380954"/>
      <point x="462.31904761904764" y="616.6380952380953" type="curve" smooth="yes"/>
      <point x="251.32857142857142" y="1462.0" type="line"/>
      <point x="17.242857142857147" y="1462.0" type="line"/>
    </contour>
  </outline>
</glyph>
<glyph name="X" format="2">
  <advance width="1276.7428571428572"/>
  <unicode hex="0058"/>
  <anchor x="637.047619047619" y="0.0" name="bottom"/>
  <anchor x="1156.804761904762" y="0.0" name="cyrillicbighook"/>
  <anchor x="637.047619047619" y="1462.0" name="top"/>
  <outline>
    <contour>
      <point x="778.8" y="742.1571428571428" type="line"/>
      <point x="1236.4333333333334" y="1462.0" type="line"/>
      <point x="969.2380952380952" y="1462.0" type="line"/>
      <point x="636.4142857142857" y="916.7523809523809" type="line"/>
      <point x="302.3095238095238" y="1462.0" type="line"/>
      <point x="37.71904761904762" y="1462.0" type="line"/>
      <point x="488.6904761904762" y="755.3809523809524" type="line"/>
      <point x="0.0" y="0.0" type="line"/>
      <point x="267.88571428571424" y="0.0" type="line"/>
      <point x="634.4142857142857" y="578.0809523809523" type="line"/>
      <point x="998.2380952380952" y="0.0" type="line"/>
      <point x="1272.7714285714285" y="0.0" type="line"/>
    </contour>
  </outline>
</glyph>
<glyph name="Z" format="2">
  <advance width="1183.9714285714285"/>
  <unicode hex="005A"/>
  <anchor x="594.6333333333333" y="0.0" name="bottom"/>
  <anchor x="594.6333333333333" y="1462.0" name="top"/>
  <outline>
    <contour>
      <point x="1133.0809523809523" y="199.25714285714287" type="line"/>
      <point x="359.97142857142853" y="199.25714285714287" type="line"/>
      <point x="1113.3904761904762" y="1308.557142857143" type="line"/>
      <point x="1113.3904761904762" y="1462.0" type="line"/>
      <point x="88.56666666666666" y="1462.0" type="line"/>
      <point x="88.56666666666666" y="1262.7428571428572" type="line"/>
      <point x="812.9" y="1262.7428571428572" type="line"/>
      <point x="60.15714285714286" y="154.10476190476192" type="line"/>
      <point x="60.15714285714286" y="0.0" type="line"/>
      <point x="1133.0809523809523" y="0.0" type="line"/>
    </contour>
  </outline>
</glyph>
<glyph name="bracketleft" format="2">
  <advance width="669.547619047619"/>
  <unicode hex="005B"/>
  <note>
bracketleft
</note>
  <outline>
    <contour>
      <point x="153.48095238095237" y="-333.26666666666665" type="line"/>
      <point x="614.5761904761905" y="-333.26666666666665" type="line"/>
      <point x="614.5761904761905" y="-164.7952380952381" type="line"/>
      <point x="352.7523809523809" y="-164.7952380952381" type="line"/>
      <point x="352.7523809523809" y="1313.0619047619048" type="line"/>
      <point x="614.5761904761905" y="1313.0619047619048" type="line"/>
      <point x="614.5761904761905" y="1481.195238095238" type="line"/>
      <point x="153.48095238095237" y="1481.195238095238" type="line"/>
    </contour>
  </outline>
</glyph>
<glyph name="backslash" format="2">
  <advance width="795.9619047619047"/>
  <unicode hex="005C"/>
  <note>
backslash
</note>
  <outline>
    <contour>
      <point x="561.7333333333333" y="-9.266666666666666" type="line"/>
      <point x="777.3233333333334" y="-9.266666666666666" type="line"/>
      <point x="231.25" y="1471.73" type="line"/>
      <point x="16.196666666666665" y="1471.73" type="line"/>
    </contour>
  </outline>
</glyph>
<glyph name="bracketright" format="2">
  <advance width="669.547619047619"/>
  <unicode hex="005D"/>
  <note>
bracketright
</note>
  <outline>
    <contour>
      <point x="51.0" y="-333.26666666666665" type="line"/>
      <point x="512.7571428571429" y="-333.26666666666665" type="line"/>
      <point x="512.7571428571429" y="1481.195238095238" type="line"/>
      <point x="51.0" y="1481.195238095238" type="line"/>
      <point x="51.0" y="1313.0619047619048" type="line"/>
      <point x="312.82380952380953" y="1313.0619047619048" type="line"/>
      <point x="312.82380952380953" y="-164.7952380952381" type="line"/>
      <point x="51.0" y="-164.7952380952381" type="line"/>
    </contour>
  </outline>
</glyph>
<glyph name="asciicircum" format="2">
  <advance width="1116.7095238095237"/>
  <unicode hex="005E"/>
  <note>
asciicircum
</note>
  <outline>
    <contour>
      <point x="35.04761904761905" y="533.8619047619047" type="line"/>
      <point x="221.0952380952381" y="533.8619047619047" type="line"/>
      <point x="549.5952380952381" y="1225.5761904761905" type="line"/>
      <point x="895.6142857142858" y="533.8619047619047" type="line"/>
      <point x="1086.2952380952381" y="533.8619047619047" type="line"/>
      <point x="603.7904761904762" y="1470.352380952381" type="line"/>
      <point x="488.7952380952381" y="1470.352380952381" type="line"/>
    </contour>
  </outline>
</glyph>
<glyph name="a" format="2">
  <advance width="1185.6095238095238"/>
  <unicode hex="0061"/>
  <anchor x="590.6571428571428" y="0.0" name="bottom"/>
  <anchor x="979.4904761904762" y="10.0" name="ogonek"/>
  <anchor x="590.6571428571428" y="1108.1809523809525" name="top"/>
  <outline>
    <contour>
      <point x="1024.8761904761905" y="0.0" type="line"/>
      <point x="1024.8761904761905" y="732.2666666666667" type="line" smooth="yes"/>
      <point x="1024.8761904761905" y="993.2809523809524"/>
      <point x="885.3714285714286" y="1127.8428571428572"/>
      <point x="621.8809523809524" y="1127.8428571428572" type="curve" smooth="yes"/>
      <point x="465.8285714285714" y="1127.8428571428572"/>
      <point x="325.32380952380953" y="1097.195238095238"/>
      <point x="200.36666666666667" y="1035.2380952380952" type="curve"/>
      <point x="272.44761904761907" y="869.8095238095239" type="line"/>
      <point x="389.7142857142857" y="925.8095238095239"/>
      <point x="493.7142857142857" y="953.8095238095239"/>
      <point x="586.7714285714286" y="953.8095238095239" type="curve" smooth="yes"/>
      <point x="729.4238095238095" y="953.8095238095239"/>
      <point x="793.2" y="874.947619047619"/>
      <point x="793.2" y="720.9" type="curve" smooth="yes"/>
      <point x="793.2" y="674.7142857142857" type="line"/>
      <point x="594.8047619047619" y="668.7142857142857" type="line" smooth="yes"/>
      <point x="267.0857142857143" y="658.7142857142857"/>
      <point x="90.05714285714285" y="540.7142857142857"/>
      <point x="90.05714285714285" y="315.4761904761905" type="curve" smooth="yes"/>
      <point x="90.05714285714285" y="104.6047619047619"/>
      <point x="217.7047619047619" y="-20.0"/>
      <point x="430.7047619047619" y="-20.0" type="curve" smooth="yes"/>
      <point x="595.6476190476191" y="-20.0"/>
      <point x="696.6904761904761" y="26.042857142857144"/>
      <point x="803.7047619047619" y="162.07142857142858" type="curve"/>
      <point x="811.7047619047619" y="162.07142857142858" type="line"/>
      <point x="859.8714285714286" y="0.0" type="line"/>
    </contour>
    <contour>
      <point x="510.8380952380952" y="156.04761904761904" type="curve" smooth="yes"/>
      <point x="395.24285714285713" y="156.04761904761904"/>
      <point x="331.4095238095238" y="214.5285714285714"/>
      <point x="331.4095238095238" y="319.4190476190476" type="curve" smooth="yes"/>
      <point x="331.4095238095238" y="453.35238095238094"/>
      <point x="424.5952380952381" y="515.452380952381"/>
      <point x="648.1809523809524" y="525.1428571428571" type="curve" smooth="yes"/>
      <point x="791.847619047619" y="531.1571428571428" type="line"/>
      <point x="791.847619047619" y="432.76190476190476" type="line" smooth="yes"/>
      <point x="791.847619047619" y="261.62857142857143"/>
      <point x="679.2952380952381" y="156.04761904761904"/>
    </contour>
  </outline>
</glyph>
<glyph name="b" format="2">
  <advance width="1269.9666666666667"/>
  <unicode hex="0062"/>
  <anchor x="639.7857142857143" y="0.0" name="bottom"/>
  <anchor x="639.7857142857143" y="1108.1809523809525" name="top"/>
  <outline>
    <contour>
      <point x="727.0190476190476" y="-20.0" type="curve" smooth="yes"/>
      <point x="1004.7952380952381" y="-20.0"/>
      <point x="1166.852380952381" y="191.94285714285715"/>
      <point x="1166.852380952381" y="556.2523809523809" type="curve" smooth="yes"/>
      <point x="1166.852380952381" y="922.9285714285714"/>
      <point x="1011.8523809523809" y="1128.5190476190476"/>
      <point x="734.3285714285714" y="1128.5190476190476" type="curve" smooth="yes"/>
      <point x="587.5380952380953" y="1128.5190476190476"/>
      <point x="481.81904761904764" y="1074.8142857142857"/>
      <point x="401.4666666666667" y="949.7714285714286" type="curve"/>
      <point x="391.81904761904764" y="949.7714285714286" type="line"/>
      <point x="398.1428571428571" y="1052.095238095238"/>
      <point x="401.4666666666667" y="1131.1380952380953"/>
      <point x="401.4666666666667" y="1182.8714285714286" type="curve" smooth="yes"/>
      <point x="401.4666666666667" y="1556.0" type="line"/>
      <point x="167.43809523809523" y="1556.0" type="line"/>
      <point x="167.43809523809523" y="0.0" type="line"/>
      <point x="341.96190476190475" y="0.0" type="line"/>
      <point x="385.84761904761905" y="139.5095238095238" type="line"/>
      <point x="401.4666666666667" y="139.5095238095238" type="line"/>
      <point x="480.0857142857143" y="33.76190476190476"/>
      <point x="582.6095238095238" y="-20.0"/>
    </contour>
    <contour>
      <point x="668.1095238095238" y="173.24285714285713" type="curve" smooth="yes"/>
      <point x="483.68095238095236" y="173.24285714285713"/>
      <point x="401.4666666666667" y="278.76666666666665"/>
      <point x="401.4666666666667" y="540.5761904761905" type="curve" smooth="yes"/>
      <point x="401.4666666666667" y="574.7857142857143" type="line" smooth="yes"/>
      <point x="401.4666666666667" y="831.6952380952381"/>
      <point x="478.9761904761905" y="938.5714285714286"/>
      <point x="666.8" y="938.5714285714286" type="curve" smooth="yes"/>
      <point x="839.5952380952381" y="938.5714285714286"/>
      <point x="926.1619047619048" y="812.0190476190476"/>
      <point x="926.1619047619048" y="558.9142857142857" type="curve" smooth="yes"/>
      <point x="926.1619047619048" y="309.5"/>
      <point x="837.5952380952381" y="173.24285714285713"/>
    </contour>
  </outline>
</glyph>
<glyph name="c" format="2">
  <advance width="1025.952380952381"/>
  <unicode hex="0063"/>
  <anchor x="547.8952380952381" y="0.0" name="bottom"/>
  <anchor x="514.8" y="1108.1809523809525" name="top"/>
  <outline>
    <contour>
      <point x="629.2380952380952" y="-20.0" type="curve" smooth="yes"/>
      <point x="755.4761904761905" y="-20.0"/>
      <point x="860.3761904761905" y="4.280952380952381"/>
      <point x="943.9380952380952" y="53.50476190476191" type="curve"/>
      <point x="943.9380952380952" y="247.43809523809523" type="line"/>
      <point x="849.6714285714286" y="197.21428571428572"/>
      <point x="750.0666666666666" y="172.59523809523807"/>
      <point x="643.7857142857143" y="172.59523809523807" type="curve" smooth="yes"/>
      <point x="559.9666666666667" y="172.59523809523807"/>
      <point x="492.5" y="197.97619047619048"/>
      <point x="442.7238095238095" y="245.7238095238095" type="curve" smooth="yes"/>
      <point x="376.24285714285713" y="309.17619047619047"/>
      <point x="340.81904761904764" y="412.3619047619048"/>
      <point x="340.81904761904764" y="550.2523809523809" type="curve" smooth="yes"/>
      <point x="340.81904761904764" y="714.5380952380953"/>
      <point x="387.5809523809524" y="831.0619047619048"/>
      <point x="477.7809523809524" y="891.1619047619048" type="curve" smooth="yes"/>
      <point x="524.2190476190476" y="921.8809523809524"/>
      <point x="582.3455904761905" y="938.5714285714286"/>
      <point x="650.8428571428572" y="938.5714285714286" type="curve" smooth="yes"/>
      <point x="728.447619047619" y="938.5714285714286"/>
      <point x="806.4761904761905" y="917.2761904761904"/>
      <point x="901.1380952380953" y="881.6428571428571" type="curve"/>
      <point x="968.5142857142857" y="1062.9714285714285" type="line"/>
      <point x="868.6142857142858" y="1106.5619047619048"/>
      <point x="763.3904761904762" y="1128.5190476190476"/>
      <point x="652.1809523809524" y="1128.5190476190476" type="curve" smooth="yes"/>
      <point x="305.3952380952381" y="1128.5190476190476"/>
      <point x="101.12857142857143" y="915.5333333333333"/>
      <point x="101.12857142857143" y="548.2523809523809" type="curve" smooth="yes"/>
      <point x="101.12857142857143" y="186.0"/>
      <point x="290.43809523809523" y="-20.0"/>
    </contour>
  </outline>
</glyph>
<glyph name="d" format="2">
  <advance width="1269.9666666666667"/>
  <unicode hex="0064"/>
  <anchor x="629.8571428571429" y="0.0" name="bottom"/>
  <anchor x="629.8571428571429" y="544.0" name="center"/>
  <anchor x="629.8571428571429" y="1087.0" name="top"/>
  <anchor x="1493.2238095238095" y="1556.0" name="topright"/>
  <outline>
    <contour>
      <point x="535.6666666666666" y="-20.0" type="curve" smooth="yes"/>
      <point x="680.0761904761905" y="-20.0"/>
      <point x="790.1333333333333" y="38.028571428571425"/>
      <point x="865.8523809523809" y="155.40952380952382" type="curve"/>
      <point x="877.1619047619048" y="155.40952380952382" type="line"/>
      <point x="929.3" y="0.0" type="line"/>
      <point x="1100.8666666666666" y="0.0" type="line"/>
      <point x="1100.8666666666666" y="1556.0" type="line"/>
      <point x="865.8523809523809" y="1556.0" type="line"/>
      <point x="865.8523809523809" y="1206.0380952380951" type="line" smooth="yes"/>
      <point x="865.8523809523809" y="1121.0666666666666"/>
      <point x="869.8380952380952" y="1036.4190476190477"/>
      <point x="877.8095238095239" y="949.7714285714286" type="curve"/>
      <point x="871.1476190476191" y="949.7714285714286" type="line"/>
      <point x="785.4428571428572" y="1080.1666666666667"/>
      <point x="684.047619047619" y="1128.5190476190476"/>
      <point x="540.947619047619" y="1128.5190476190476" type="curve" smooth="yes"/>
      <point x="260.14285714285717" y="1128.5190476190476"/>
      <point x="101.12857142857143" y="917.2380952380952"/>
      <point x="101.12857142857143" y="545.2095238095238" type="curve" smooth="yes"/>
      <point x="101.12857142857143" y="208.72857142857143"/>
      <point x="245.5952380952381" y="-20.0"/>
    </contour>
    <contour>
      <point x="609.8" y="170.59523809523807" type="curve" smooth="yes"/>
      <point x="431.6952380952381" y="170.59523809523807"/>
      <point x="340.15714285714284" y="296.7952380952381"/>
      <point x="340.15714285714284" y="543.2380952380952" type="curve" smooth="yes"/>
      <point x="340.15714285714284" y="796.6952380952381"/>
      <point x="431.6952380952381" y="934.6"/>
      <point x="606.4761904761905" y="934.6" type="curve" smooth="yes"/>
      <point x="798.9047619047619" y="934.6"/>
      <point x="881.0761904761905" y="825.4"/>
      <point x="881.0761904761905" y="552.2809523809524" type="curve" smooth="yes"/>
      <point x="881.0761904761905" y="528.6619047619048" type="line" smooth="yes"/>
      <point x="879.0904761904762" y="276.7809523809524"/>
      <point x="798.5380952380953" y="170.59523809523807"/>
    </contour>
  </outline>
</glyph>
<glyph name="e" format="2">
  <advance width="1180.9238095238095"/>
  <unicode hex="0065"/>
  <anchor x="592.447619047619" y="0.0" name="bottom"/>
  <anchor x="756.6619047619048" y="29.79047619047619" name="ogonek"/>
  <anchor x="592.447619047619" y="1108.1809523809525" name="top"/>
  <outline>
    <contour>
      <point x="646.8142857142857" y="-20.0" type="curve" smooth="yes"/>
      <point x="797.6285714285714" y="-20.0"/>
      <point x="903.5428571428572" y="-2.0142857142857142"/>
      <point x="1026.5428571428572" y="55.61904761904762" type="curve"/>
      <point x="1026.5428571428572" y="233.65238095238095" type="line"/>
      <point x="886.5142857142857" y="174.0047619047619"/>
      <point x="798.6142857142858" y="157.37142857142857"/>
      <point x="668.6571428571428" y="157.37142857142857" type="curve" smooth="yes"/>
      <point x="461.3142857142857" y="157.37142857142857"/>
      <point x="343.81904761904764" y="278.65714285714284"/>
      <point x="340.15714285714284" y="498.2285714285714" type="curve"/>
      <point x="1084.104761904762" y="498.2285714285714" type="line"/>
      <point x="1084.104761904762" y="621.2523809523809" type="line" smooth="yes"/>
      <point x="1084.104761904762" y="941.4904761904762"/>
      <point x="909.5571428571428" y="1128.5190476190476"/>
      <point x="613.8428571428572" y="1128.5190476190476" type="curve" smooth="yes"/>
      <point x="292.4095238095238" y="1128.5190476190476"/>
      <point x="101.12857142857143" y="909.8"/>
      <point x="101.12857142857143" y="546.2523809523809" type="curve" smooth="yes"/>
      <point x="101.12857142857143" y="185.9857142857143"/>
      <point x="302.35238095238094" y="-20.0"/>
    </contour>
    <contour>
      <point x="346.81904761904764" y="659.0380952380953" type="line"/>
      <point x="363.1857142857143" y="856.1571428571428"/>
      <point x="465.73809523809524" y="958.4428571428572"/>
      <point x="620.4619047619047" y="958.4428571428572" type="curve" smooth="yes"/>
      <point x="770.4380952380952" y="958.4428571428572"/>
      <point x="861.947619047619" y="844.847619047619"/>
      <point x="863.2714285714286" y="659.0380952380953" type="curve"/>
    </contour>
  </outline>
</glyph>
<glyph name="f" format="2">
  <advance width="732.4809523809524"/>
  <unicode hex="0066"/>
  <anchor x="361.2761904761905" y="0.0" name="bottom"/>
  <anchor x="361.2761904761905" y="1108.1809523809525" name="top"/>
  <outline>
    <contour>
      <point x="215.1142857142857" y="0.0" type="line"/>
      <point x="449.1428571428571" y="0.0" type="line"/>
      <point x="449.1428571428571" y="926.2047619047619" type="line"/>
      <point x="698.5238095238095" y="926.2047619047619" type="line"/>
      <point x="698.5238095238095" y="1108.1809523809525" type="line"/>
      <point x="449.1428571428571" y="1108.1809523809525" type="line"/>
      <point x="449.1428571428571" y="1176.0857142857142" type="line" smooth="yes"/>
      <point x="449.1428571428571" y="1269.3285714285714"/>
      <point x="466.5095238095238" y="1328.8238095238096"/>
      <point x="506.947619047619" y="1359.9095238095238" type="curve" smooth="yes"/>
      <point x="530.6809523809524" y="1378.304761904762"/>
      <point x="562.1047619047619" y="1386.9952380952382"/>
      <point x="603.2333333333333" y="1386.9952380952382" type="curve" smooth="yes"/>
      <point x="652.9238095238095" y="1386.9952380952382"/>
      <point x="703.2761904761904" y="1378.9952380952382"/>
      <point x="754.2904761904762" y="1363.9809523809524" type="curve"/>
      <point x="805.0904761904762" y="1527.4238095238095" type="line"/>
      <point x="715.9666666666667" y="1555.352380952381"/>
      <point x="646.0380952380953" y="1567.0"/>
      <point x="565.5190476190476" y="1567.0" type="curve" smooth="yes"/>
      <point x="321.33809523809526" y="1567.0"/>
      <point x="218.42380952380952" y="1446.3380952380953"/>
      <point x="218.42380952380952" y="1164.7761904761905" type="curve" smooth="yes"/>
      <point x="218.42380952380952" y="1110.5619047619048" type="line"/>
      <point x="36.94285714285714" y="1046.4238095238095" type="line"/>
      <point x="36.94285714285714" y="926.2047619047619" type="line"/>
      <point x="215.1142857142857" y="926.2047619047619" type="line"/>
    </contour>
  </outline>
</glyph>
<glyph name="g" format="2">
  <advance width="1127.9238095238095"/>
  <unicode hex="0067"/>
  <anchor x="561.152380952381" y="0.0" name="bottom"/>
  <anchor x="561.152380952381" y="1108.1809523809525" name="top"/>
  <outline>
    <contour>
      <point x="726.347619047619" y="1108.1809523809525" type="line"/>
      <point x="683.3761904761905" y="1119.5333333333333"/>
      <point x="592.9571428571429" y="1128.5190476190476"/>
      <point x="535.8571428571429" y="1128.5190476190476" type="curve" smooth="yes"/>
      <point x="265.1142857142857" y="1128.5190476190476"/>
      <point x="105.2" y="986.1809523809524"/>
      <point x="105.2" y="755.2809523809524" type="curve" smooth="yes"/>
      <point x="105.2" y="604.6619047619048"/>
      <point x="177.8761904761905" y="488.64761904761906"/>
      <point x="300.24285714285713" y="436.64761904761906" type="curve"/>
      <point x="193.34285714285716" y="372.3809523809524"/>
      <point x="156.6095238095238" y="317.64761904761906"/>
      <point x="156.6095238095238" y="245.97142857142856" type="curve" smooth="yes"/>
      <point x="156.6095238095238" y="180.2952380952381"/>
      <point x="206.8904761904762" y="116.70476190476191"/>
      <point x="273.87619047619046" y="88.70476190476191" type="curve"/>
      <point x="110.9047619047619" y="51.38095238095238"/>
      <point x="19.185714285714287" y="-44.661904761904765"/>
      <point x="19.185714285714287" y="-187.04285714285714" type="curve" smooth="yes"/>
      <point x="19.185714285714287" y="-381.0"/>
      <point x="186.77619047619046" y="-492.0"/>
      <point x="482.2809523809524" y="-492.0" type="curve" smooth="yes"/>
      <point x="864.0095238095238" y="-492.0"/>
      <point x="1081.5" y="-347.43809523809523"/>
      <point x="1081.5" y="-96.5952380952381" type="curve" smooth="yes"/>
      <point x="1081.5" y="102.31904761904761"/>
      <point x="953.8238095238095" y="203.6142857142857"/>
      <point x="709.2190476190476" y="203.6142857142857" type="curve" smooth="yes"/>
      <point x="520.5428571428572" y="203.6142857142857" type="line" smooth="yes"/>
      <point x="419.70952380952383" y="203.6142857142857"/>
      <point x="349.2047619047619" y="226.67142857142858"/>
      <point x="349.2047619047619" y="285.0809523809524" type="curve" smooth="yes"/>
      <point x="349.2047619047619" y="326.23809523809524"/>
      <point x="373.9952380952381" y="365.04285714285714"/>
      <point x="420.56190476190477" y="394.79047619047617" type="curve"/>
      <point x="443.20952380952383" y="390.12857142857143"/>
      <point x="476.8857142857143" y="388.12857142857143"/>
      <point x="522.5761904761905" y="388.12857142857143" type="curve" smooth="yes"/>
      <point x="806.5571428571428" y="388.12857142857143"/>
      <point x="966.4857142857143" y="529.8047619047619"/>
      <point x="966.4857142857143" y="755.3523809523809" type="curve" smooth="yes"/>
      <point x="966.4857142857143" y="826.4809523809524"/>
      <point x="945.7523809523809" y="891.2714285714286"/>
      <point x="903.6238095238095" y="949.7238095238096" type="curve"/>
      <point x="1096.1904761904761" y="983.5809523809523" type="line"/>
      <point x="1096.1904761904761" y="1108.1809523809525" type="line"/>
    </contour>
    <contour>
      <point x="228.10476190476192" y="-164.14285714285714" type="curve" smooth="yes"/>
      <point x="228.10476190476192" y="-53.476190476190474"/>
      <point x="312.2190476190476" y="9.300000000000004"/>
      <point x="458.26666666666665" y="9.300000000000004" type="curve" smooth="yes"/>
      <point x="624.3523809523809" y="9.300000000000004" type="line" smooth="yes"/>
      <point x="778.0190476190476" y="9.300000000000004"/>
      <point x="869.9619047619047" y="-25.18095238095238"/>
      <point x="869.9619047619047" y="-128.38095238095238" type="curve" smooth="yes"/>
      <point x="869.9619047619047" y="-269.34285714285716"/>
      <point x="713.7238095238096" y="-333.8666666666667"/>
      <point x="495.5761904761905" y="-333.8666666666667" type="curve" smooth="yes"/>
      <point x="322.5571428571429" y="-333.8666666666667"/>
      <point x="228.10476190476192" y="-273.42857142857144"/>
    </contour>
    <contour>
      <point x="329.6380952380952" y="754.6190476190476" type="curve" smooth="yes"/>
      <point x="329.6380952380952" y="903.1571428571428"/>
      <point x="405.1904761904762" y="986.3142857142857"/>
      <point x="535.1666666666666" y="986.3142857142857" type="curve" smooth="yes"/>
      <point x="667.8333333333334" y="986.3142857142857"/>
      <point x="741.3857142857142" y="909.2"/>
      <point x="741.3857142857142" y="755.9714285714285" type="curve" smooth="yes"/>
      <point x="741.3857142857142" y="608.7714285714286"/>
      <point x="668.5238095238095" y="531.9809523809524"/>
      <point x="536.504761904762" y="531.9809523809524" type="curve" smooth="yes"/>
      <point x="407.2047619047619" y="531.9809523809524"/>
      <point x="329.6380952380952" y="610.447619047619"/>
    </contour>
  </outline>
</glyph>
<glyph name="h" format="2">
  <advance width="1299.3428571428572"/>
  <unicode hex="0068"/>
  <anchor x="649.0095238095238" y="0.0" name="bottom"/>
  <anchor x="649.0095238095238" y="544.0" name="center"/>
  <anchor x="649.0095238095238" y="1475.9" name="top"/>
  <outline>
    <contour>
      <point x="167.43809523809523" y="0.0" type="line"/>
      <point x="401.4666666666667" y="0.0" type="line"/>
      <point x="401.4666666666667" y="553.004761904762" type="line" smooth="yes"/>
      <point x="401.4666666666667" y="716.4285714285714"/>
      <point x="433.2" y="822.1619047619048"/>
      <point x="502.34285714285716" y="880.8666666666667" type="curve" smooth="yes"/>
      <point x="548.4428571428572" y="919.8952380952381"/>
      <point x="610.2476190476191" y="938.5714285714286"/>
      <point x="690.0952380952381" y="938.5714285714286" type="curve" smooth="yes"/>
      <point x="835.4380952380952" y="938.5714285714286"/>
      <point x="904.9190476190477" y="852.5142857142857"/>
      <point x="904.9190476190477" y="664.6238095238095" type="curve" smooth="yes"/>
      <point x="904.9190476190477" y="0.0" type="line"/>
      <point x="1139.2714285714285" y="0.0" type="line"/>
      <point x="1139.2714285714285" y="722.9142857142857" type="line" smooth="yes"/>
      <point x="1139.2714285714285" y="987.2523809523809"/>
      <point x="1005.0190476190476" y="1128.5190476190476"/>
      <point x="754.7095238095238" y="1128.5190476190476" type="curve" smooth="yes"/>
      <point x="593.2142857142857" y="1128.5190476190476"/>
      <point x="481.81904761904764" y="1079.4761904761904"/>
      <point x="403.4666666666667" y="955.0952380952381" type="curve"/>
      <point x="391.8333333333333" y="955.0952380952381" type="line"/>
      <point x="398.1428571428571" y="1038.8238095238096"/>
      <point x="401.4666666666667" y="1116.9333333333334"/>
      <point x="401.4666666666667" y="1188.0857142857144" type="curve" smooth="yes"/>
      <point x="401.4666666666667" y="1556.0" type="line"/>
      <point x="167.43809523809523" y="1556.0" type="line"/>
    </contour>
  </outline>
</glyph>
<glyph name="k" format="2">
  <advance width="1175.6714285714286"/>
  <unicode hex="006B"/>
  <anchor x="586.0190476190476" y="0.0" name="bottom"/>
  <anchor x="586.0190476190476" y="1108.1809523809525" name="top"/>
  <outline>
    <contour>
      <point x="167.43809523809523" y="0.0" type="line"/>
      <point x="402.79047619047617" y="0.0" type="line"/>
      <point x="402.79047619047617" y="350.5952380952381" type="line"/>
      <point x="556.9619047619047" y="482.8095238095238" type="line"/>
      <point x="893.8428571428572" y="0.0" type="line"/>
      <point x="1164.4190476190477" y="0.0" type="line"/>
      <point x="721.2619047619048" y="636.2380952380952" type="line"/>
      <point x="1133.3761904761905" y="1108.1809523809525" type="line"/>
      <point x="866.4333333333333" y="1108.1809523809525" type="line"/>
      <point x="517.5095238095238" y="705.6666666666666" type="line" smooth="yes"/>
      <point x="480.1428571428571" y="661.652380952381"/>
      <point x="439.1428571428571" y="610.0333333333333"/>
      <point x="394.8333333333333" y="551.1333333333333" type="curve"/>
      <point x="388.5095238095238" y="551.1333333333333" type="line"/>
      <point x="397.8047619047619" y="651.1333333333333"/>
      <point x="402.79047619047617" y="751.4571428571428"/>
      <point x="402.79047619047617" y="854.1047619047619" type="curve"/>
      <point x="402.79047619047617" y="1556.0" type="line"/>
      <point x="167.43809523809523" y="1556.0" type="line"/>
    </contour>
  </outline>
</glyph>
<glyph name="l" format="2">
  <advance width="570.2285714285714"/>
  <unicode hex="006C"/>
  <anchor x="268.9666666666667" y="0.0" name="bottom"/>
  <anchor x="285.6142857142857" y="544.0" name="center"/>
  <anchor x="366.1142857142857" y="1556.0" name="top"/>
  <anchor x="794.4857142857143" y="1556.0" name="topright"/>
  <outline>
    <contour>
      <point x="401.4666666666667" y="1556.0" type="line"/>
      <point x="167.43809523809523" y="1556.0" type="line"/>
      <point x="167.43809523809523" y="0.0" type="line"/>
      <point x="401.4666666666667" y="0.0" type="line"/>
    </contour>
  </outline>
</glyph>
<glyph name="m" format="2">
  <advance width="1942.3666666666668"/>
  <unicode hex="006D"/>
  <anchor x="966.8809523809524" y="0.0" name="bottom"/>
  <anchor x="966.8809523809524" y="1108.1809523809525" name="top"/>
  <outline>
    <contour>
      <point x="167.43809523809523" y="0.0" type="line"/>
      <point x="401.4666666666667" y="0.0" type="line"/>
      <point x="401.4666666666667" y="551.6809523809524" type="line" smooth="yes"/>
      <point x="401.4666666666667" y="685.4"/>
      <point x="419.8333333333333" y="781.7809523809524"/>
      <point x="460.56666666666666" y="843.8238095238096" type="curve" smooth="yes"/>
      <point x="502.3142857142857" y="908.5428571428572"/>
      <point x="567.4428571428572" y="938.5714285714286"/>
      <point x="658.9666666666667" y="938.5714285714286" type="curve" smooth="yes"/>
      <point x="790.5619047619048" y="938.5714285714286"/>
      <point x="852.7190476190476" y="853.1904761904761"/>
      <point x="852.7190476190476" y="684.0904761904762" type="curve" smooth="yes"/>
      <point x="852.7190476190476" y="0.0" type="line"/>
      <point x="1088.747619047619" y="0.0" type="line"/>
      <point x="1088.747619047619" y="586.6952380952381" type="line" smooth="yes"/>
      <point x="1088.747619047619" y="706.4285714285714"/>
      <point x="1108.452380952381" y="793.8095238095239"/>
      <point x="1149.2" y="851.1761904761905" type="curve" smooth="yes"/>
      <point x="1191.2857142857142" y="910.2190476190476"/>
      <point x="1256.0761904761905" y="938.5714285714286"/>
      <point x="1344.9238095238095" y="938.5714285714286" type="curve" smooth="yes"/>
      <point x="1478.857142857143" y="938.5714285714286"/>
      <point x="1540.6619047619047" y="852.8523809523809"/>
      <point x="1540.6619047619047" y="667.9904761904762" type="curve" smooth="yes"/>
      <point x="1540.6619047619047" y="0.0" type="line"/>
      <point x="1774.3523809523808" y="0.0" type="line"/>
      <point x="1774.3523809523808" y="722.9142857142857" type="line" smooth="yes"/>
      <point x="1774.3523809523808" y="1000.9"/>
      <point x="1652.7047619047619" y="1128.5190476190476"/>
      <point x="1401.142857142857" y="1128.5190476190476" type="curve" smooth="yes"/>
      <point x="1256.4238095238095" y="1128.5190476190476"/>
      <point x="1134.0857142857144" y="1066.1380952380953"/>
      <point x="1066.395238095238" y="956.0380952380953" type="curve"/>
      <point x="1049.8190476190475" y="956.0380952380953" type="line"/>
      <point x="992.8761904761905" y="1071.1380952380953"/>
      <point x="880.8904761904762" y="1128.5190476190476"/>
      <point x="713.2" y="1128.5190476190476" type="curve" smooth="yes"/>
      <point x="574.9047619047619" y="1128.5190476190476"/>
      <point x="456.24285714285713" y="1069.8285714285714"/>
      <point x="396.24285714285713" y="963.152380952381" type="curve"/>
      <point x="382.3" y="963.152380952381" type="line"/>
      <point x="348.06190476190477" y="1108.1809523809525" type="line"/>
      <point x="167.43809523809523" y="1108.1809523809525" type="line"/>
    </contour>
  </outline>
</glyph>
<glyph name="n" format="2">
  <advance width="1299.3428571428572"/>
  <unicode hex="006E"/>
  <anchor x="649.0095238095238" y="0.0" name="bottom"/>
  <anchor x="691.9428571428572" y="1108.1809523809525" name="top"/>
  <outline>
    <contour>
      <point x="167.43809523809523" y="0.0" type="line"/>
      <point x="401.4666666666667" y="0.0" type="line"/>
      <point x="401.4666666666667" y="551.6809523809524" type="line" smooth="yes"/>
      <point x="401.4666666666667" y="695.0190476190476"/>
      <point x="424.8333333333333" y="793.3857142857142"/>
      <point x="473.56666666666666" y="854.1047619047619" type="curve" smooth="yes"/>
      <point x="520.3428571428572" y="912.5285714285715"/>
      <point x="591.5142857142857" y="938.5714285714286"/>
      <point x="690.0952380952381" y="938.5714285714286" type="curve" smooth="yes"/>
      <point x="838.0857142857143" y="938.5714285714286"/>
      <point x="905.5809523809523" y="851.8523809523809"/>
      <point x="905.5809523809523" y="664.6238095238095" type="curve" smooth="yes"/>
      <point x="905.5809523809523" y="0.0" type="line"/>
      <point x="1139.2714285714285" y="0.0" type="line"/>
      <point x="1139.2714285714285" y="722.9142857142857" type="line" smooth="yes"/>
      <point x="1139.2714285714285" y="987.2523809523809"/>
      <point x="1005.6809523809524" y="1128.5190476190476"/>
      <point x="756.6952380952381" y="1128.5190476190476" type="curve" smooth="yes"/>
      <point x="588.9333333333334" y="1128.5190476190476"/>
      <point x="465.25714285714287" y="1073.5047619047618"/>
      <point x="396.24285714285713" y="963.152380952381" type="curve"/>
      <point x="382.3" y="963.152380952381" type="line"/>
      <point x="349.4" y="1108.1809523809525" type="line"/>
      <point x="167.43809523809523" y="1108.1809523809525" type="line"/>
    </contour>
  </outline>
</glyph>
<glyph name="o" format="2">
  <advance width="1245.009523809524"/>
  <unicode hex="006F"/>
  <anchor x="621.8428571428572" y="0.0" name="bottom"/>
  <anchor x="621.8428571428572" y="554.5904761904762" name="center"/>
  <anchor x="1121.0380952380951" y="10.0" name="ogonek"/>
  <anchor x="621.8428571428572" y="1108.1809523809525" name="top"/>
  <anchor x="1225.6714285714286" y="1108.1809523809525" name="topright"/>
  <outline>
    <contour>
      <point x="617.8428571428572" y="-20.0" type="curve" smooth="yes"/>
      <point x="946.6571428571428" y="-20.0"/>
      <point x="1141.2333333333333" y="193.97142857142856"/>
      <point x="1141.2333333333333" y="556.2523809523809" type="curve" smooth="yes"/>
      <point x="1141.2333333333333" y="907.2380952380952"/>
      <point x="944.6857142857143" y="1128.5190476190476"/>
      <point x="623.8428571428572" y="1128.5190476190476" type="curve" smooth="yes"/>
      <point x="296.04285714285714" y="1128.5190476190476"/>
      <point x="101.12857142857143" y="917.8714285714286"/>
      <point x="101.12857142857143" y="556.2523809523809" type="curve" smooth="yes"/>
      <point x="101.12857142857143" y="213.7047619047619"/>
      <point x="293.6333333333333" y="-20.0"/>
    </contour>
    <contour>
      <point x="621.8428571428572" y="162.66666666666666" type="curve" smooth="yes"/>
      <point x="529.6714285714286" y="162.66666666666666"/>
      <point x="459.51428571428573" y="197.37142857142857"/>
      <point x="413.7238095238095" y="264.76666666666665" type="curve" smooth="yes"/>
      <point x="365.5809523809524" y="332.2047619047619"/>
      <point x="340.81904761904764" y="430.37619047619046"/>
      <point x="340.81904761904764" y="556.2523809523809" type="curve" smooth="yes"/>
      <point x="340.81904761904764" y="701.8047619047619"/>
      <point x="373.25714285714287" y="809.9761904761905"/>
      <point x="435.0904761904762" y="874.4142857142857" type="curve" smooth="yes"/>
      <point x="480.8666666666667" y="921.4857142857143"/>
      <point x="542.347619047619" y="945.8523809523809"/>
      <point x="619.8428571428572" y="945.8523809523809" type="curve" smooth="yes"/>
      <point x="707.7333333333333" y="945.8523809523809"/>
      <point x="775.5809523809523" y="915.1047619047619"/>
      <point x="822.047619047619" y="856.6238095238095" type="curve" smooth="yes"/>
      <point x="874.8095238095239" y="790.847619047619"/>
      <point x="900.8809523809524" y="689.7190476190476"/>
      <point x="900.8809523809524" y="556.2523809523809" type="curve" smooth="yes"/>
      <point x="900.8809523809524" y="427.12380952380954"/>
      <point x="877.1476190476191" y="327.3333333333333"/>
      <point x="828.3857142857142" y="260.8952380952381" type="curve" smooth="yes"/>
      <point x="782.2571428571429" y="196.75238095238095"/>
      <point x="712.0714285714286" y="162.66666666666666"/>
    </contour>
  </outline>
</glyph>
<glyph name="p" format="2">
  <advance width="1269.9666666666667"/>
  <unicode hex="0070"/>
  <anchor x="639.7857142857143" y="0.0" name="bottom"/>
  <anchor x="639.7857142857143" y="1108.1809523809525" name="top"/>
  <outline>
    <contour>
      <point x="167.43809523809523" y="-492.0" type="line"/>
      <point x="401.4666666666667" y="-492.0" type="line"/>
      <point x="401.4666666666667" y="-58.804761904761904" type="line" smooth="yes"/>
      <point x="401.4666666666667" y="-20.014285714285712"/>
      <point x="398.1428571428571" y="45.74761904761905"/>
      <point x="389.8333333333333" y="141.52380952380952" type="curve"/>
      <point x="401.4666666666667" y="141.52380952380952" type="line"/>
      <point x="484.4238095238095" y="28.438095238095237"/>
      <point x="589.2142857142857" y="-20.0"/>
      <point x="732.3857142857142" y="-20.0" type="curve" smooth="yes"/>
      <point x="1000.4714285714285" y="-20.0"/>
      <point x="1166.852380952381" y="194.60476190476192"/>
      <point x="1166.852380952381" y="554.9142857142857" type="curve" smooth="yes"/>
      <point x="1166.852380952381" y="920.9285714285714"/>
      <point x="1012.1619047619048" y="1128.5190476190476"/>
      <point x="739.0190476190476" y="1128.5190476190476" type="curve" smooth="yes"/>
      <point x="591.5666666666666" y="1128.5190476190476"/>
      <point x="481.1714285714286" y="1071.5047619047618"/>
      <point x="406.8333333333333" y="958.4761904761905" type="curve"/>
      <point x="395.53809523809525" y="958.4761904761905" type="line"/>
      <point x="359.9904761904762" y="1108.1809523809525" type="line"/>
      <point x="167.43809523809523" y="1108.1809523809525" type="line"/>
    </contour>
    <contour>
      <point x="672.1380952380953" y="173.24285714285713" type="curve" smooth="yes"/>
      <point x="482.65238095238095" y="173.24285714285713"/>
      <point x="401.4666666666667" y="281.7523809523809"/>
      <point x="401.4666666666667" y="554.9" type="curve" smooth="yes"/>
      <point x="401.4666666666667" y="586.2380952380952" type="line" smooth="yes"/>
      <point x="401.4666666666667" y="825.7809523809524"/>
      <point x="483.37142857142857" y="938.5714285714286"/>
      <point x="672.1666666666666" y="938.5714285714286" type="curve" smooth="yes"/>
      <point x="844.9190476190477" y="938.5714285714286"/>
      <point x="926.1619047619048" y="816.3"/>
      <point x="926.1619047619048" y="554.8857142857142" type="curve" smooth="yes"/>
      <point x="926.1619047619048" y="302.8952380952381"/>
      <point x="838.2142857142857" y="173.24285714285713"/>
    </contour>
  </outline>
</glyph>
<glyph name="q" format="2">
  <advance width="1269.9666666666667"/>
  <unicode hex="0071"/>
  <anchor x="629.8571428571429" y="0.0" name="bottom"/>
  <anchor x="629.8571428571429" y="1108.1809523809525" name="top"/>
  <outline>
    <contour>
      <point x="867.1761904761905" y="-492.0" type="line"/>
      <point x="1100.8666666666666" y="-492.0" type="line"/>
      <point x="1100.8666666666666" y="1108.1809523809525" type="line"/>
      <point x="899.047619047619" y="1108.1809523809525" type="line"/>
      <point x="876.4142857142857" y="961.1380952380953" type="line"/>
      <point x="869.0904761904762" y="961.1380952380953" type="line"/>
      <point x="795.7238095238096" y="1073.1666666666667"/>
      <point x="684.3428571428572" y="1128.5190476190476"/>
      <point x="536.6095238095238" y="1128.5190476190476" type="curve" smooth="yes"/>
      <point x="261.4809523809524" y="1128.5190476190476"/>
      <point x="101.12857142857143" y="914.8857142857142"/>
      <point x="101.12857142857143" y="547.2238095238096" type="curve" smooth="yes"/>
      <point x="101.12857142857143" y="186.9142857142857"/>
      <point x="260.1714285714286" y="-20.0"/>
      <point x="530.6095238095238" y="-20.0" type="curve" smooth="yes"/>
      <point x="683.047619047619" y="-20.0"/>
      <point x="795.4571428571428" y="39.028571428571425"/>
      <point x="867.1761904761905" y="157.42380952380952" type="curve"/>
      <point x="875.8238095238096" y="157.42380952380952" type="line"/>
      <point x="870.5" y="71.43809523809524"/>
      <point x="867.1761904761905" y="1.6761904761904762"/>
      <point x="867.1761904761905" y="-52.84761904761905" type="curve" smooth="yes"/>
    </contour>
    <contour>
      <point x="605.4190476190477" y="167.28571428571428" type="curve" smooth="yes"/>
      <point x="431.3857142857143" y="167.28571428571428"/>
      <point x="340.81904761904764" y="288.54285714285714"/>
      <point x="340.81904761904764" y="543.2380952380952" type="curve" smooth="yes"/>
      <point x="340.81904761904764" y="804.9904761904762"/>
      <point x="432.3857142857143" y="939.8952380952381"/>
      <point x="608.4761904761905" y="939.8952380952381" type="curve" smooth="yes"/>
      <point x="699.9714285714285" y="939.8952380952381"/>
      <point x="766.1" y="914.2047619047619"/>
      <point x="810.2" y="857.1619047619048" type="curve" smooth="yes"/>
      <point x="859.004761904762" y="797.4"/>
      <point x="881.0761904761905" y="701.552380952381"/>
      <point x="881.0761904761905" y="562.2809523809524" type="curve" smooth="yes"/>
      <point x="881.0761904761905" y="534.3952380952381" type="line" smooth="yes"/>
      <point x="881.0761904761905" y="435.5761904761905"/>
      <point x="870.0619047619048" y="360.1095238095238"/>
      <point x="847.0333333333333" y="303.9952380952381" type="curve" smooth="yes"/>
      <point x="806.2857142857143" y="208.06190476190477"/>
      <point x="729.7619047619048" y="167.28571428571428"/>
    </contour>
  </outline>
</glyph>
<glyph name="r" format="2">
  <advance width="885.0333333333333"/>
  <unicode hex="0072"/>
  <anchor x="276.7285714285714" y="0.0" name="bottom"/>
  <anchor x="481.5761904761905" y="1108.1809523809525" name="top"/>
  <outline>
    <contour>
      <point x="167.43809523809523" y="0.0" type="line"/>
      <point x="401.4666666666667" y="0.0" type="line"/>
      <point x="401.4666666666667" y="580.1428571428571" type="line" smooth="yes"/>
      <point x="401.4666666666667" y="655.9047619047619"/>
      <point x="417.4809523809524" y="722.3428571428572"/>
      <point x="447.1714285714286" y="775.1047619047619" type="curve" smooth="yes"/>
      <point x="494.2285714285714" y="858.9666666666667"/>
      <point x="576.652380952381" y="908.7714285714286"/>
      <point x="684.7095238095238" y="908.7714285714286" type="curve" smooth="yes"/>
      <point x="737.6809523809524" y="908.7714285714286"/>
      <point x="783.3571428571429" y="903.4333333333334"/>
      <point x="822.4" y="893.7571428571429" type="curve"/>
      <point x="848.6809523809524" y="1115.8428571428572" type="line"/>
      <point x="797.6666666666666" y="1124.1809523809525"/>
      <point x="756.6095238095238" y="1128.5190476190476"/>
      <point x="713.9190476190477" y="1128.5190476190476" type="curve" smooth="yes"/>
      <point x="581.8333333333334" y="1128.5190476190476"/>
      <point x="471.2857142857143" y="1060.9285714285713"/>
      <point x="393.53809523809525" y="919.4619047619047" type="curve"/>
      <point x="381.24285714285713" y="919.4619047619047" type="line"/>
      <point x="347.4142857142857" y="1108.1809523809525" type="line"/>
      <point x="167.43809523809523" y="1108.1809523809525" type="line"/>
    </contour>
  </outline>
</glyph>
<glyph name="s" format="2">
  <advance width="996.3619047619047"/>
  <unicode hex="0073"/>
  <anchor x="484.44761904761907" y="-0.3380952380952381" name="bottom"/>
  <anchor x="496.85714285714283" y="1108.1809523809525" name="top"/>
  <outline>
    <contour>
      <point x="446.8142857142857" y="-20.0" type="curve" smooth="yes"/>
      <point x="755.6428571428571" y="-20.0"/>
      <point x="915.5714285714286" y="90.64761904761905"/>
      <point x="915.5714285714286" y="312.7714285714286" type="curve" smooth="yes"/>
      <point x="915.5714285714286" y="367.4190476190476"/>
      <point x="905.2333333333333" y="413.7142857142857"/>
      <point x="885.2190476190476" y="453.0238095238095" type="curve" smooth="yes"/>
      <point x="840.5" y="540.0238095238095"/>
      <point x="754.7666666666667" y="590.2904761904762"/>
      <point x="594.047619047619" y="651.6428571428571" type="curve" smooth="yes"/>
      <point x="495.68095238095236" y="688.6571428571428"/>
      <point x="429.8904761904762" y="714.7"/>
      <point x="377.9047619047619" y="751.7428571428571" type="curve" smooth="yes"/>
      <point x="344.5095238095238" y="777.152380952381"/>
      <point x="329.4809523809524" y="809.9142857142857"/>
      <point x="329.4809523809524" y="843.0142857142857" type="curve" smooth="yes"/>
      <point x="329.4809523809524" y="918.947619047619"/>
      <point x="405.0761904761905" y="958.4285714285714"/>
      <point x="523.1238095238095" y="958.4285714285714" type="curve" smooth="yes"/>
      <point x="614.504761904762" y="958.4285714285714"/>
      <point x="721.0666666666666" y="930.4857142857143"/>
      <point x="830.7571428571429" y="883.8238095238096" type="curve"/>
      <point x="899.5285714285715" y="1049.2809523809524" type="line"/>
      <point x="777.9809523809524" y="1101.8857142857144"/>
      <point x="660.6857142857143" y="1128.5190476190476"/>
      <point x="525.8142857142857" y="1128.5190476190476" type="curve" smooth="yes"/>
      <point x="258.9714285714286" y="1128.5190476190476"/>
      <point x="103.05714285714285" y="1021.9142857142857"/>
      <point x="103.05714285714285" y="823.4380952380952" type="curve" smooth="yes"/>
      <point x="103.05714285714285" y="749.9285714285714"/>
      <point x="130.86190476190475" y="696.504761904762"/>
      <point x="183.76666666666665" y="649.7714285714286" type="curve" smooth="yes"/>
      <point x="230.83809523809524" y="586.2952380952381"/>
      <point x="299.0904761904762" y="543.7761904761904"/>
      <point x="426.6666666666667" y="493.4952380952381" type="curve" smooth="yes"/>
      <point x="576.1904761904761" y="435.43809523809523"/>
      <point x="691.8095238095239" y="379.76190476190476"/>
      <point x="691.8095238095239" y="295.1666666666667" type="curve" smooth="yes"/>
      <point x="691.8095238095239" y="210.21904761904761"/>
      <point x="611.2428571428571" y="160.6952380952381"/>
      <point x="460.4761904761905" y="160.6952380952381" type="curve" smooth="yes"/>
      <point x="338.44761904761907" y="160.6952380952381"/>
      <point x="203.59047619047618" y="193.65238095238095"/>
      <point x="89.29523809523809" y="247.32857142857142" type="curve"/>
      <point x="89.29523809523809" y="45.01428571428571" type="line"/>
      <point x="191.51904761904763" y="-1.3238095238095238"/>
      <point x="321.5047619047619" y="-20.0"/>
    </contour>
  </outline>
</glyph>
<glyph name="t" format="2">
  <advance width="820.3666666666667"/>
  <unicode hex="0074"/>
  <anchor x="414.62857142857143" y="0.0" name="bottom"/>
  <anchor x="403.8952380952381" y="554.5904761904762" name="center"/>
  <anchor x="403.8952380952381" y="1108.1809523809525" name="top"/>
  <anchor x="871.9380952380952" y="1565.2666666666667" name="topright"/>
  <outline>
    <contour>
      <point x="512.0095238095238" y="-20.0" type="curve" smooth="yes"/>
      <point x="604.7952380952381" y="-20.0"/>
      <point x="673.6952380952381" y="-7.366666666666667"/>
      <point x="748.1714285714286" y="21.87142857142857" type="curve"/>
      <point x="748.1714285714286" y="197.18571428571428" type="line"/>
      <point x="689.2571428571429" y="178.9047619047619"/>
      <point x="631.2857142857142" y="170.59523809523807"/>
      <point x="572.9190476190477" y="170.59523809523807" type="curve" smooth="yes"/>
      <point x="472.4095238095238" y="170.59523809523807"/>
      <point x="426.0" y="229.39999999999998"/>
      <point x="426.0" y="352.7142857142857" type="curve" smooth="yes"/>
      <point x="426.0" y="926.2047619047619" type="line"/>
      <point x="725.8047619047619" y="926.2047619047619" type="line"/>
      <point x="725.8047619047619" y="1108.1809523809525" type="line"/>
      <point x="426.0" y="1108.1809523809525" type="line"/>
      <point x="426.0" y="1354.6333333333334" type="line"/>
      <point x="279.6857142857143" y="1354.6333333333334" type="line"/>
      <point x="206.51904761904763" y="1112.604761904762" type="line"/>
      <point x="39.56190476190476" y="1031.2" type="line"/>
      <point x="39.56190476190476" y="926.2047619047619" type="line"/>
      <point x="189.3095238095238" y="926.2047619047619" type="line"/>
      <point x="189.3095238095238" y="333.4190476190476" type="line" smooth="yes"/>
      <point x="189.3095238095238" y="91.57619047619048"/>
      <point x="286.9142857142857" y="-20.0"/>
    </contour>
  </outline>
</glyph>
<glyph name="u" format="2">
  <advance width="1299.3428571428572"/>
  <unicode hex="0075"/>
  <anchor x="648.347619047619" y="0.0" name="bottom"/>
  <anchor x="1076.5904761904762" y="10.0" name="ogonek"/>
  <anchor x="648.347619047619" y="1108.1809523809525" name="top"/>
  <anchor x="1270.7380952380952" y="1108.1809523809525" name="topright"/>
  <outline>
    <contour>
      <point x="541.6619047619048" y="-20.0" type="curve" smooth="yes"/>
      <point x="711.4095238095238" y="-20.0"/>
      <point x="834.4238095238095" y="37.0"/>
      <point x="902.1142857142858" y="146.02857142857144" type="curve"/>
      <point x="916.0571428571428" y="146.02857142857144" type="line"/>
      <point x="948.6190476190476" y="0.0" type="line"/>
      <point x="1130.5809523809523" y="0.0" type="line"/>
      <point x="1130.5809523809523" y="1108.1809523809525" type="line"/>
      <point x="896.8904761904762" y="1108.1809523809525" type="line"/>
      <point x="896.8904761904762" y="556.5" type="line" smooth="yes"/>
      <point x="896.8904761904762" y="416.42857142857144"/>
      <point x="874.8333333333334" y="319.37142857142857"/>
      <point x="826.0571428571428" y="258.3285714285714" type="curve" smooth="yes"/>
      <point x="778.6190476190476" y="197.96190476190475"/>
      <point x="706.4619047619047" y="171.27142857142857"/>
      <point x="607.9238095238095" y="171.27142857142857" type="curve" smooth="yes"/>
      <point x="459.2714285714286" y="171.27142857142857"/>
      <point x="393.1" y="257.3285714285714"/>
      <point x="393.1" y="443.8952380952381" type="curve" smooth="yes"/>
      <point x="393.1" y="1108.1809523809525" type="line"/>
      <point x="159.40952380952382" y="1108.1809523809525" type="line"/>
      <point x="159.40952380952382" y="385.6047619047619" type="line" smooth="yes"/>
      <point x="159.40952380952382" y="120.6047619047619"/>
      <point x="294.0" y="-20.0"/>
    </contour>
  </outline>
</glyph>
<glyph name="v" format="2">
  <advance width="1088.9285714285713"/>
  <unicode hex="0076"/>
  <anchor x="542.28" y="0.0" name="bottom"/>
  <anchor x="542.28" y="1108.3133333333333" name="top"/>
  <outline>
    <contour>
      <point x="425.56" y="0.0" type="line"/>
      <point x="658.5366666666666" y="0.0" type="line"/>
      <point x="1084.0966666666668" y="1108.3133333333333" type="line"/>
      <point x="840.7800000000001" y="1108.3133333333333" type="line"/>
      <point x="596.8466666666667" y="401.43" type="line" smooth="yes"/>
      <point x="575.7233333333334" y="341.64666666666665"/>
      <point x="557.9166666666666" y="279.96"/>
      <point x="543.4266666666666" y="214.9066666666667" type="curve"/>
      <point x="536.9633333333334" y="214.9066666666667" type="line"/>
      <point x="524.0833333333334" y="280.35"/>
      <point x="501.35" y="351.9133333333333"/>
      <point x="483.5433333333333" y="401.2833333333333" type="curve" smooth="yes"/>
      <point x="243.78" y="1108.3133333333333" type="line"/>
      <point x="0.0" y="1108.3133333333333" type="line"/>
    </contour>
  </outline>
</glyph>
<glyph name="w" format="2">
  <advance width="1661.0380952380951"/>
  <unicode hex="0077"/>
  <anchor x="825.0619047619048" y="0.0" name="bottom"/>
  <anchor x="825.0619047619048" y="1108.1809523809525" name="top"/>
  <outline>
    <contour>
      <point x="333.3952380952381" y="0.0" type="line"/>
      <point x="576.3523809523809" y="0.0" type="line"/>
      <point x="760.1047619047619" y="611.8142857142857" type="line" smooth="yes"/>
      <point x="779.8238095238095" y="678.5904761904762"/>
      <point x="799.1476190476191" y="766.7428571428571"/>
      <point x="826.1047619047619" y="893.0333333333333" type="curve"/>
      <point x="832.1047619047619" y="893.0333333333333" type="line"/>
      <point x="849.8095238095239" y="801.0333333333333"/>
      <point x="875.4857142857143" y="680.8666666666667"/>
      <point x="886.4714285714285" y="640.2904761904762" type="curve" smooth="yes"/>
      <point x="1073.5047619047618" y="0.0" type="line"/>
      <point x="1323.1238095238095" y="0.0" type="line"/>
      <point x="1625.404761904762" y="1108.1809523809525" type="line"/>
      <point x="1396.9952380952382" y="1108.1809523809525" type="line"/>
      <point x="1261.7809523809524" y="572.2142857142857" type="line" smooth="yes"/>
      <point x="1221.652380952381" y="415.4190476190476"/>
      <point x="1203.0190476190476" y="291.1714285714286"/>
      <point x="1195.3428571428572" y="212.96190476190475" type="curve"/>
      <point x="1189.3428571428572" y="212.96190476190475" type="line"/>
      <point x="1179.6666666666667" y="276.1857142857143"/>
      <point x="1161.3285714285714" y="367.43809523809523"/>
      <point x="1114.904761904762" y="539.1857142857143" type="curve" smooth="yes"/>
      <point x="956.5190476190476" y="1108.1809523809525" type="line"/>
      <point x="707.6619047619048" y="1108.1809523809525" type="line"/>
      <point x="539.9238095238095" y="540.495238095238" type="line" smooth="yes"/>
      <point x="510.34761904761905" y="421.9952380952381"/>
      <point x="492.62857142857143" y="337.9809523809524"/>
      <point x="467.1619047619048" y="211.62380952380954" type="curve"/>
      <point x="461.1619047619048" y="211.62380952380954" type="line"/>
      <point x="451.1333333333333" y="302.84761904761905"/>
      <point x="434.7952380952381" y="401.0857142857143"/>
      <point x="394.06190476190477" y="568.8619047619047" type="curve" smooth="yes"/>
      <point x="258.79047619047617" y="1108.1809523809525" type="line"/>
      <point x="23.71904761904762" y="1108.1809523809525" type="line"/>
    </contour>
  </outline>
</glyph>
<glyph name="x" format="2">
  <advance width="1128.5523809523809"/>
  <unicode hex="0078"/>
  <anchor x="562.952380952381" y="0.0" name="bottom"/>
  <anchor x="1001.1428571428571" y="0.0" name="cyrillicbighook"/>
  <anchor x="562.952380952381" y="1108.1809523809525" name="top"/>
  <outline>
    <contour>
      <point x="25.214285714285715" y="0.0" type="line"/>
      <point x="289.76190476190476" y="0.0" type="line"/>
      <point x="562.2761904761904" y="419.4714285714286" type="line"/>
      <point x="834.1142857142858" y="0.0" type="line"/>
      <point x="1101.3523809523808" y="0.0" type="line"/>
      <point x="715.9142857142857" y="567.6047619047619" type="line"/>
      <point x="1080.9714285714285" y="1108.1809523809525" type="line"/>
      <point x="815.7619047619048" y="1108.1809523809525" type="line"/>
      <point x="562.2761904761904" y="715.047619047619" type="line"/>
      <point x="308.43809523809523" y="1108.1809523809525" type="line"/>
      <point x="41.53809523809524" y="1108.1809523809525" type="line"/>
      <point x="405.3142857142857" y="567.6047619047619" type="line"/>
    </contour>
  </outline>
</glyph>
<glyph name="y" format="2">
  <advance width="1088.9285714285713"/>
  <unicode hex="0079"/>
  <anchor x="781.1476190476191" y="0.0" name="bottom"/>
  <anchor x="542.1476190476191" y="1108.1809523809525" name="top"/>
  <outline>
    <contour>
      <point x="194.23333333333335" y="-492.0" type="curve" smooth="yes"/>
      <point x="415.947619047619" y="-492.0"/>
      <point x="519.9571428571428" y="-378.66190476190474"/>
      <point x="615.1666666666666" y="-127.68095238095239" type="curve" smooth="yes"/>
      <point x="1083.6333333333332" y="1108.1809523809525" type="line"/>
      <point x="843.9571428571429" y="1108.1809523809525" type="line"/>
      <point x="630.1809523809524" y="482.33809523809526" type="line" smooth="yes"/>
      <point x="579.6" y="344.37142857142857"/>
      <point x="570.2619047619048" y="309.73809523809524"/>
      <point x="545.1333333333333" y="219.12857142857143" type="curve"/>
      <point x="537.8095238095239" y="219.12857142857143" type="line"/>
      <point x="526.0904761904762" y="277.5238095238095"/>
      <point x="489.9047619047619" y="389.9666666666667"/>
      <point x="457.76190476190476" y="479.64761904761906" type="curve" smooth="yes"/>
      <point x="245.63333333333333" y="1108.1809523809525" type="line"/>
      <point x="0.0" y="1108.1809523809525" type="line"/>
      <point x="429.9" y="7.280952380952381" type="line"/>
      <point x="380.06666666666666" y="-126.88095238095238"/>
      <point x="352.0238095238095" y="-182.3047619047619"/>
      <point x="333.0238095238095" y="-209.9952380952381" type="curve" smooth="yes"/>
      <point x="292.34761904761905" y="-268.7285714285714"/>
      <point x="244.02380952380952" y="-298.4047619047619"/>
      <point x="168.3190476190476" y="-298.4047619047619" type="curve" smooth="yes"/>
      <point x="130.36190476190475" y="-298.4047619047619"/>
      <point x="87.34761904761905" y="-294.06666666666666"/>
      <point x="50.33333333333333" y="-284.3904761904762" type="curve"/>
      <point x="50.33333333333333" y="-472.98571428571427" type="line"/>
      <point x="100.64285714285714" y="-485.66190476190474"/>
      <point x="147.6" y="-492.0"/>
    </contour>
  </outline>
</glyph>
<glyph name="z" format="2">
  <advance width="980.4047619047619"/>
  <unicode hex="007A"/>
  <anchor x="491.1952380952381" y="0.0" name="bottom"/>
  <anchor x="491.1952380952381" y="1108.1809523809525" name="top"/>
  <outline>
    <contour>
      <point x="914.9238095238095" y="185.96190476190475" type="line"/>
      <point x="347.32380952380953" y="185.96190476190475" type="line"/>
      <point x="903.6571428571428" y="962.4428571428572" type="line"/>
      <point x="903.6571428571428" y="1108.1809523809525" type="line"/>
      <point x="101.86190476190477" y="1108.1809523809525" type="line"/>
      <point x="101.86190476190477" y="922.2190476190476" type="line"/>
      <point x="627.7142857142858" y="922.2190476190476" type="line"/>
      <point x="64.12857142857143" y="137.13333333333333" type="line"/>
      <point x="64.12857142857143" y="0.0" type="line"/>
      <point x="914.9238095238095" y="0.0" type="line"/>
    </contour>
  </outline>
</glyph>
<glyph name="braceleft" format="2">
  <advance width="778.6"/>
  <unicode hex="007B"/>
  <note>
braceleft
</note>
  <outline>
    <contour>
      <point x="709.9095238095238" y="-333.26666666666665" type="curve"/>
      <point x="709.9095238095238" y="-155.55714285714288" type="line"/>
      <point x="661.2619047619048" y="-153.89523809523808"/>
      <point x="622.2619047619048" y="-148.89523809523808"/>
      <point x="594.5571428571428" y="-141.55714285714288" type="curve" smooth="yes"/>
      <point x="517.3714285714286" y="-121.51428571428572"/>
      <point x="481.0047619047619" y="-75.06190476190477"/>
      <point x="481.0047619047619" y="4.771428571428572" type="curve" smooth="yes"/>
      <point x="481.0047619047619" y="304.92857142857144" type="line" smooth="yes"/>
      <point x="481.0047619047619" y="459.66190476190474"/>
      <point x="418.70952380952383" y="537.3380952380952"/>
      <point x="270.51428571428573" y="564.3380952380952" type="curve"/>
      <point x="270.51428571428573" y="573.6619047619048" type="line"/>
      <point x="418.7238095238095" y="600.3380952380952"/>
      <point x="481.0047619047619" y="677.6761904761905"/>
      <point x="481.0047619047619" y="840.0857142857143" type="curve" smooth="yes"/>
      <point x="481.0047619047619" y="1129.8619047619047" type="line" smooth="yes"/>
      <point x="481.0047619047619" y="1206.0190476190476"/>
      <point x="514.3714285714286" y="1252.4714285714285"/>
      <point x="580.8523809523809" y="1275.5285714285715" type="curve" smooth="yes"/>
      <point x="610.5714285714286" y="1285.8809523809523"/>
      <point x="652.9238095238095" y="1291.895238095238"/>
      <point x="709.9095238095238" y="1293.895238095238" type="curve"/>
      <point x="709.9095238095238" y="1471.9285714285713" type="line"/>
      <point x="590.3047619047619" y="1470.5904761904762"/>
      <point x="497.3619047619048" y="1453.8857142857144"/>
      <point x="431.74285714285713" y="1421.1380952380953" type="curve" smooth="yes"/>
      <point x="325.33809523809526" y="1374.4476190476191"/>
      <point x="278.4238095238095" y="1293.7857142857142"/>
      <point x="278.4238095238095" y="1150.3809523809523" type="curve" smooth="yes"/>
      <point x="278.4238095238095" y="844.7285714285714" type="line" smooth="yes"/>
      <point x="278.4238095238095" y="804.0238095238095"/>
      <point x="269.76190476190476" y="769.3333333333334"/>
      <point x="251.1" y="741.9809523809524" type="curve" smooth="yes"/>
      <point x="216.1142857142857" y="688.3047619047619"/>
      <point x="145.8190476190476" y="660.3047619047619"/>
      <point x="41.14285714285714" y="659.6285714285714" type="curve"/>
      <point x="41.14285714285714" y="477.0333333333333" type="line"/>
      <point x="128.52380952380952" y="475.6952380952381"/>
      <point x="193.52380952380952" y="453.3285714285714"/>
      <point x="233.17142857142858" y="409.2714285714286" type="curve" smooth="yes"/>
      <point x="262.79047619047617" y="378.9190476190476"/>
      <point x="278.4238095238095" y="337.5809523809524"/>
      <point x="278.4238095238095" y="285.9047619047619" type="curve" smooth="yes"/>
      <point x="278.4238095238095" y="-9.395238095238096" type="line" smooth="yes"/>
      <point x="278.4238095238095" y="-98.02857142857142"/>
      <point x="294.4238095238095" y="-166.0142857142857"/>
      <point x="329.43809523809523" y="-213.6904761904762" type="curve" smooth="yes"/>
      <point x="388.07142857142856" y="-295.6190476190476"/>
      <point x="504.6047619047619" y="-333.26666666666665"/>
    </contour>
  </outline>
</glyph>
<glyph name="bar" format="2">
  <advance width="1121.2380952380952"/>
  <unicode hex="007C"/>
  <note>
bar
</note>
  <outline>
    <contour>
      <point x="473.5809523809524" y="-478.2" type="line"/>
      <point x="646.995238095238" y="-478.2" type="line"/>
      <point x="646.995238095238" y="1559.0142857142857" type="line"/>
      <point x="473.5809523809524" y="1559.0142857142857" type="line"/>
    </contour>
  </outline>
</glyph>
<glyph name="braceright" format="2">
  <advance width="778.6"/>
  <unicode hex="007D"/>
  <note>
braceright
</note>
  <outline>
    <contour>
      <point x="78.61904761904762" y="-333.26666666666665" type="line"/>
      <point x="202.23809523809524" y="-333.26666666666665"/>
      <point x="295.18095238095236" y="-317.23809523809524"/>
      <point x="359.8" y="-285.5047619047619" type="curve" smooth="yes"/>
      <point x="465.54285714285714" y="-238.81428571428572"/>
      <point x="510.1047619047619" y="-157.81428571428572"/>
      <point x="510.1047619047619" y="-9.395238095238096" type="curve" smooth="yes"/>
      <point x="510.1047619047619" y="285.9047619047619" type="line" smooth="yes"/>
      <point x="510.1047619047619" y="332.5952380952381"/>
      <point x="522.7523809523809" y="371.2714285714286"/>
      <point x="546.0619047619048" y="400.62380952380954" type="curve" smooth="yes"/>
      <point x="585.3714285714286" y="450.0047619047619"/>
      <point x="652.6952380952381" y="475.6952380952381"/>
      <point x="746.7238095238096" y="477.0333333333333" type="curve"/>
      <point x="746.7238095238096" y="659.6285714285714" type="line"/>
      <point x="643.6952380952381" y="660.3047619047619"/>
      <point x="575.047619047619" y="687.3190476190476"/>
      <point x="538.7380952380952" y="740.6857142857143" type="curve" smooth="yes"/>
      <point x="519.4285714285714" y="768.3619047619047"/>
      <point x="510.1047619047619" y="803.0380952380953"/>
      <point x="510.1047619047619" y="844.7285714285714" type="curve" smooth="yes"/>
      <point x="510.1047619047619" y="1150.3809523809523" type="line" smooth="yes"/>
      <point x="510.1047619047619" y="1251.7619047619048"/>
      <point x="482.37142857142857" y="1326.4666666666667"/>
      <point x="429.24285714285713" y="1375.4809523809524" type="curve" smooth="yes"/>
      <point x="366.5952380952381" y="1441.3238095238096"/>
      <point x="257.1047619047619" y="1471.9285714285713"/>
      <point x="78.61904761904762" y="1471.9285714285713" type="curve"/>
      <point x="78.61904761904762" y="1293.895238095238" type="line"/>
      <point x="136.60476190476192" y="1291.895238095238"/>
      <point x="178.95714285714286" y="1285.8809523809523"/>
      <point x="208.67619047619047" y="1275.1904761904761" type="curve" smooth="yes"/>
      <point x="273.4952380952381" y="1251.7952380952381"/>
      <point x="306.8619047619048" y="1205.3428571428572"/>
      <point x="306.8619047619048" y="1129.8619047619047" type="curve" smooth="yes"/>
      <point x="306.8619047619048" y="840.0857142857143" type="line" smooth="yes"/>
      <point x="306.8619047619048" y="676.3380952380952"/>
      <point x="370.4809523809524" y="599.3380952380952"/>
      <point x="518.0142857142857" y="573.6619047619048" type="curve"/>
      <point x="518.0142857142857" y="564.3380952380952" type="line"/>
      <point x="369.81904761904764" y="537.3380952380952"/>
      <point x="306.8619047619048" y="459.66190476190474"/>
      <point x="306.8619047619048" y="304.92857142857144" type="curve" smooth="yes"/>
      <point x="306.8619047619048" y="4.771428571428572" type="line" smooth="yes"/>
      <point x="306.8619047619048" y="-56.04761904761905"/>
      <point x="285.81904761904764" y="-97.82380952380953"/>
      <point x="240.36666666666667" y="-123.54285714285714" type="curve" smooth="yes"/>
      <point x="205.9857142857143" y="-142.89523809523808"/>
      <point x="152.2952380952381" y="-153.89523809523808"/>
      <point x="78.61904761904762" y="-155.55714285714288" type="curve"/>
    </contour>
  </outline>
</glyph>
<glyph name="asciitilde" format="2">
  <advance width="1169.0"/>
  <unicode hex="007E"/>
  <note>
asciitilde
</note>
  <outline>
    <contour>
      <point x="95.77619047619048" y="579.3285714285714" type="line"/>
      <point x="174.0857142857143" y="658.9904761904762"/>
      <point x="254.43809523809523" y="699.3285714285714"/>
      <point x="323.4095238095238" y="699.3285714285714" type="curve" smooth="yes"/>
      <point x="390.3952380952381" y="699.3285714285714"/>
      <point x="466.04285714285714" y="680.9904761904762"/>
      <point x="551.0285714285715" y="643.652380952381" type="curve" smooth="yes"/>
      <point x="658.6619047619048" y="596.9761904761905"/>
      <point x="740.7190476190476" y="574.9619047619047"/>
      <point x="825.6619047619048" y="574.9619047619047" type="curve" smooth="yes"/>
      <point x="926.6333333333333" y="574.9619047619047"/>
      <point x="1006.9142857142857" y="617.6666666666666"/>
      <point x="1073.5619047619048" y="686.6380952380953" type="curve"/>
      <point x="1073.5619047619048" y="868.0238095238095" type="line"/>
      <point x="994.5333333333333" y="786.995238095238"/>
      <point x="916.9428571428572" y="745.0095238095238"/>
      <point x="845.9142857142857" y="745.0095238095238" type="curve" smooth="yes"/>
      <point x="778.9428571428572" y="745.0095238095238"/>
      <point x="703.2952380952381" y="763.347619047619"/>
      <point x="617.3095238095239" y="801.6857142857143" type="curve" smooth="yes"/>
      <point x="490.252380952381" y="855.3904761904762"/>
      <point x="428.9714285714286" y="868.7142857142857"/>
      <point x="342.67619047619047" y="868.7142857142857" type="curve" smooth="yes"/>
      <point x="249.0857142857143" y="868.7142857142857"/>
      <point x="166.45238095238096" y="832.3761904761905"/>
      <point x="95.77619047619048" y="760.0380952380953" type="curve"/>
    </contour>
  </outline>
</glyph>
<glyph name="exclamdown" format="2">
  <advance width="554.2190476190476"/>
  <unicode hex="00A1"/>
  <note>
exclamdown
</note>
  <outline>
    <contour>
      <point x="140.32857142857142" y="-355.8047619047619" type="line"/>
      <point x="404.2857142857143" y="-355.8047619047619" type="line"/>
      <point x="365.3571428571429" y="665.3285714285714" type="line"/>
      <point x="179.9190476190476" y="665.3285714285714" type="line"/>
    </contour>
    <contour>
      <point x="273.1380952380952" y="845.4714285714285" type="curve" smooth="yes"/>
      <point x="362.5" y="845.4714285714285"/>
      <point x="414.70952380952383" y="893.9904761904762"/>
      <point x="414.70952380952383" y="988.1571428571428" type="curve" smooth="yes"/>
      <point x="414.70952380952383" y="1078.3095238095239"/>
      <point x="365.2047619047619" y="1128.5190476190476"/>
      <point x="273.1380952380952" y="1128.5190476190476" type="curve" smooth="yes"/>
      <point x="183.73333333333335" y="1128.5190476190476"/>
      <point x="134.22857142857143" y="1078.9714285714285"/>
      <point x="134.22857142857143" y="988.1571428571428" type="curve" smooth="yes"/>
      <point x="134.22857142857143" y="893.3285714285714"/>
      <point x="185.77619047619046" y="845.4714285714285"/>
    </contour>
  </outline>
</glyph>
<glyph name="cent" format="2">
  <advance width="1169.0"/>
  <unicode hex="00A2"/>
  <note>
cent
</note>
  <outline>
    <contour>
      <point x="577.5095238095238" y="-20.0" type="line"/>
      <point x="717.7571428571429" y="-20.0" type="line"/>
      <point x="717.7571428571429" y="286.29047619047617" type="line"/>
      <point x="628.7047619047619" y="171.42380952380952" type="line"/>
      <point x="684.0857142857143" y="170.76190476190476" type="line" smooth="yes"/>
      <point x="804.9714285714285" y="170.76190476190476"/>
      <point x="909.8571428571429" y="195.71904761904761"/>
      <point x="999.4047619047619" y="248.60476190476192" type="curve"/>
      <point x="999.4047619047619" y="441.87619047619046" type="line"/>
      <point x="901.7857142857143" y="389.6380952380952"/>
      <point x="802.8571428571429" y="364.68095238095236"/>
      <point x="703.2809523809524" y="364.68095238095236" type="curve" smooth="yes"/>
      <point x="625.8571428571429" y="364.68095238095236"/>
      <point x="562.4333333333333" y="386.6952380952381"/>
      <point x="515.0095238095238" y="430.3857142857143" type="curve" smooth="yes"/>
      <point x="443.4714285714286" y="492.1619047619048"/>
      <point x="405.68095238095236" y="599.052380952381"/>
      <point x="405.68095238095236" y="744.6904761904761" type="curve" smooth="yes"/>
      <point x="405.68095238095236" y="898.6380952380953"/>
      <point x="446.1047619047619" y="1009.5"/>
      <point x="521.2761904761904" y="1072.6" type="curve" smooth="yes"/>
      <point x="569.3761904761905" y="1113.3190476190475"/>
      <point x="631.504761904762" y="1134.347619047619"/>
      <point x="706.9857142857143" y="1134.347619047619" type="curve" smooth="yes"/>
      <point x="784.5904761904762" y="1134.347619047619"/>
      <point x="860.9428571428572" y="1112.7142857142858"/>
      <point x="952.5904761904762" y="1075.404761904762" type="curve"/>
      <point x="1022.6428571428571" y="1254.057142857143" type="line"/>
      <point x="917.3761904761905" y="1300.3238095238096"/>
      <point x="810.8142857142857" y="1323.6190476190477"/>
      <point x="703.2952380952381" y="1323.6190476190477" type="curve" smooth="yes"/>
      <point x="630.6904761904761" y="1321.6333333333334" type="line"/>
      <point x="717.7571428571429" y="1209.4142857142858" type="line"/>
      <point x="717.7571428571429" y="1483.0" type="line"/>
      <point x="577.5095238095238" y="1483.0" type="line"/>
      <point x="577.5095238095238" y="1312.9714285714285" type="line"/>
      <point x="314.94761904761907" y="1263.6761904761904"/>
      <point x="165.9904761904762" y="1056.647619047619"/>
      <point x="165.9904761904762" y="742.3523809523809" type="curve" smooth="yes"/>
      <point x="165.9904761904762" y="418.76190476190476"/>
      <point x="313.62380952380954" y="219.40952380952382"/>
      <point x="577.5095238095238" y="178.74761904761905" type="curve"/>
    </contour>
  </outline>
</glyph>
<glyph name="sterling" format="2">
  <advance width="1169.0"/>
  <unicode hex="00A3"/>
  <note>
sterling
</note>
  <outline>
    <contour>
      <point x="80.64761904761905" y="0.0" type="line"/>
      <point x="1106.095238095238" y="0.0" type="line"/>
      <point x="1106.095238095238" y="202.56666666666666" type="line"/>
      <point x="361.3" y="202.56666666666666" type="line"/>
      <point x="465.96190476190475" y="260.6095238095238"/>
      <point x="514.5952380952381" y="352.37142857142857"/>
      <point x="514.5952380952381" y="481.5571428571429" type="curve" smooth="yes"/>
      <point x="514.5952380952381" y="663.4238095238095" type="line"/>
      <point x="894.4857142857143" y="663.4238095238095" type="line"/>
      <point x="894.4857142857143" y="836.1047619047619" type="line"/>
      <point x="514.5952380952381" y="836.1047619047619" type="line"/>
      <point x="514.5952380952381" y="1046.4238095238095" type="line" smooth="yes"/>
      <point x="514.5952380952381" y="1213.2047619047619"/>
      <point x="579.4428571428572" y="1289.0809523809523"/>
      <point x="715.8142857142857" y="1289.0809523809523" type="curve" smooth="yes"/>
      <point x="797.2238095238096" y="1289.0809523809523"/>
      <point x="888.6047619047619" y="1269.0666666666666"/>
      <point x="990.9571428571429" y="1228.3761904761905" type="curve"/>
      <point x="1061.0380952380951" y="1408.3666666666666" type="line"/>
      <point x="945.4619047619047" y="1458.0"/>
      <point x="823.547619047619" y="1482.9857142857143"/>
      <point x="695.9571428571429" y="1482.9857142857143" type="curve" smooth="yes"/>
      <point x="428.12857142857143" y="1482.9857142857143"/>
      <point x="281.87619047619046" y="1328.9857142857143"/>
      <point x="281.87619047619046" y="1049.7047619047619" type="curve" smooth="yes"/>
      <point x="281.87619047619046" y="836.1047619047619" type="line"/>
      <point x="91.3952380952381" y="836.1047619047619" type="line"/>
      <point x="91.3952380952381" y="663.4238095238095" type="line"/>
      <point x="281.87619047619046" y="663.4238095238095" type="line"/>
      <point x="281.87619047619046" y="479.5571428571429" type="line" smooth="yes"/>
      <point x="281.87619047619046" y="430.48571428571427"/>
      <point x="274.8619047619048" y="387.4142857142857"/>
      <point x="261.4952380952381" y="351.68095238095236" type="curve" smooth="yes"/>
      <point x="234.1" y="277.2"/>
      <point x="184.28095238095239" y="229.42380952380952"/>
      <point x="80.64761904761905" y="189.9047619047619" type="curve"/>
    </contour>
  </outline>
</glyph>
<glyph name="currency" format="2">
  <advance width="1169.0"/>
  <unicode hex="00A4"/>
  <note>
currency
</note>
  <outline>
    <contour>
      <point x="934.004761904762" y="258.7190476190476" type="line"/>
      <point x="1048.604761904762" y="372.9952380952381" type="line"/>
      <point x="917.547619047619" y="504.06666666666666" type="line"/>
      <point x="962.3238095238095" y="567.447619047619"/>
      <point x="985.0428571428571" y="639.8714285714286"/>
      <point x="985.0428571428571" y="723.0" type="curve" smooth="yes"/>
      <point x="985.0428571428571" y="807.1"/>
      <point x="962.3238095238095" y="880.5238095238095"/>
      <point x="917.547619047619" y="943.9333333333334" type="curve"/>
      <point x="1051.252380952381" y="1077.652380952381" type="line"/>
      <point x="934.004761904762" y="1190.604761904762" type="line"/>
      <point x="804.947619047619" y="1055.2238095238095" type="line"/>
      <point x="740.9047619047619" y="1102.6619047619047"/>
      <point x="667.1428571428571" y="1125.7190476190476"/>
      <point x="583.3380952380952" y="1125.7190476190476" type="curve" smooth="yes"/>
      <point x="499.5190476190476" y="1125.7190476190476"/>
      <point x="426.75714285714287" y="1102.6619047619047"/>
      <point x="364.37619047619046" y="1057.2095238095237" type="curve"/>
      <point x="232.9952380952381" y="1190.604761904762" type="line"/>
      <point x="117.73333333333333" y="1073.6809523809525" type="line"/>
      <point x="250.1142857142857" y="943.2714285714286" type="line"/>
      <point x="206.0" y="876.552380952381"/>
      <point x="183.28095238095239" y="803.1285714285714"/>
      <point x="183.28095238095239" y="723.0" type="curve" smooth="yes"/>
      <point x="183.28095238095239" y="640.8714285714286"/>
      <point x="206.0" y="568.447619047619"/>
      <point x="250.1142857142857" y="504.7285714285714" type="curve"/>
      <point x="119.05714285714285" y="374.31904761904764" type="line"/>
      <point x="232.9952380952381" y="259.3809523809524" type="line"/>
      <point x="362.3904761904762" y="388.8047619047619" type="line"/>
      <point x="424.12380952380954" y="344.01428571428573"/>
      <point x="497.2238095238095" y="321.6190476190476"/>
      <point x="583.3380952380952" y="321.6190476190476" type="curve" smooth="yes"/>
      <point x="664.1428571428571" y="321.6190476190476"/>
      <point x="738.5666666666667" y="344.67619047619047"/>
      <point x="804.947619047619" y="390.12857142857143" type="curve"/>
    </contour>
    <contour>
      <point x="583.3380952380952" y="484.3571428571429" type="curve" smooth="yes"/>
      <point x="452.9809523809524" y="484.3571428571429"/>
      <point x="346.70952380952383" y="590.9809523809524"/>
      <point x="346.70952380952383" y="723.0" type="curve" smooth="yes"/>
      <point x="346.70952380952383" y="855.0190476190476"/>
      <point x="452.65714285714284" y="963.6428571428571"/>
      <point x="583.3380952380952" y="963.6428571428571" type="curve" smooth="yes"/>
      <point x="714.004761904762" y="963.6428571428571"/>
      <point x="822.2761904761904" y="855.6809523809524"/>
      <point x="822.2761904761904" y="723.0" type="curve" smooth="yes"/>
      <point x="822.2761904761904" y="588.9809523809524"/>
      <point x="715.3428571428572" y="484.3571428571429"/>
    </contour>
  </outline>
</glyph>
<glyph name="yen" format="2">
  <advance width="1169.0"/>
  <unicode hex="00A5"/>
  <note>
yen
</note>
  <outline>
    <contour>
      <point x="470.4428571428571" y="0.0" type="line"/>
      <point x="695.2476190476191" y="0.0" type="line"/>
      <point x="695.2476190476191" y="262.6380952380952" type="line"/>
      <point x="988.9" y="262.6380952380952" type="line"/>
      <point x="988.9" y="402.8857142857143" type="line"/>
      <point x="695.2476190476191" y="402.8857142857143" type="line"/>
      <point x="695.2476190476191" y="567.5095238095238" type="line"/>
      <point x="988.9" y="567.5095238095238" type="line"/>
      <point x="988.9" y="709.0809523809523" type="line"/>
      <point x="746.9380952380952" y="709.0809523809523" type="line"/>
      <point x="1147.1666666666667" y="1462.0" type="line"/>
      <point x="902.8" y="1462.0" type="line"/>
      <point x="584.0142857142857" y="801.0285714285715" type="line"/>
      <point x="266.56666666666666" y="1462.0" type="line"/>
      <point x="18.50952380952381" y="1462.0" type="line"/>
      <point x="412.76666666666665" y="709.0809523809523" type="line"/>
      <point x="175.8047619047619" y="709.0809523809523" type="line"/>
      <point x="175.8047619047619" y="567.5095238095238" type="line"/>
      <point x="470.4428571428571" y="567.5095238095238" type="line"/>
      <point x="470.4428571428571" y="402.8857142857143" type="line"/>
      <point x="175.8047619047619" y="402.8857142857143" type="line"/>
      <point x="175.8047619047619" y="262.6380952380952" type="line"/>
      <point x="470.4428571428571" y="262.6380952380952" type="line"/>
    </contour>
  </outline>
</glyph>
<glyph name="brokenbar" format="2">
  <advance width="1121.2380952380952"/>
  <unicode hex="00A6"/>
  <note>
brokenbar
</note>
  <outline>
    <contour>
      <point x="473.5809523809524" y="-478.2" type="line"/>
      <point x="646.995238095238" y="-478.2" type="line"/>
      <point x="646.995238095238" y="320.8809523809524" type="line"/>
      <point x="473.5809523809524" y="320.8809523809524" type="line"/>
    </contour>
    <contour>
      <point x="473.5809523809524" y="759.9333333333334" type="line"/>
      <point x="646.995238095238" y="759.9333333333334" type="line"/>
      <point x="646.995238095238" y="1559.0142857142857" type="line"/>
      <point x="473.5809523809524" y="1559.0142857142857" type="line"/>
    </contour>
  </outline>
</glyph>
<glyph name="section" format="2">
  <advance width="1015.9619047619047"/>
  <unicode hex="00A7"/>
  <note>
section
</note>
  <outline>
    <contour>
      <point x="459.04285714285714" y="-13.928571428571429" type="curve" smooth="yes"/>
      <point x="726.3523809523809" y="-13.928571428571429"/>
      <point x="888.3380952380952" y="98.64761904761905"/>
      <point x="888.3380952380952" y="287.9142857142857" type="curve" smooth="yes"/>
      <point x="888.3380952380952" y="392.2809523809524"/>
      <point x="838.6190476190476" y="465.9"/>
      <point x="738.1809523809524" y="525.2095238095238" type="curve"/>
      <point x="856.8857142857142" y="598.1666666666666"/>
      <point x="906.9714285714285" y="682.2238095238096"/>
      <point x="906.9714285714285" y="791.9285714285714" type="curve" smooth="yes"/>
      <point x="906.9714285714285" y="924.6190476190476"/>
      <point x="819.0285714285715" y="1017.8714285714286"/>
      <point x="573.6190476190476" y="1107.5047619047618" type="curve" smooth="yes"/>
      <point x="524.3619047619047" y="1123.9285714285713"/>
      <point x="487.17619047619047" y="1138.6619047619047"/>
      <point x="462.4" y="1151.057142857143" type="curve" smooth="yes"/>
      <point x="374.45714285714286" y="1192.7190476190476"/>
      <point x="332.2047619047619" y="1235.7047619047619"/>
      <point x="332.2047619047619" y="1298.4380952380952" type="curve" smooth="yes"/>
      <point x="332.2047619047619" y="1375.2714285714285"/>
      <point x="401.74285714285713" y="1420.7380952380952"/>
      <point x="531.1" y="1420.7380952380952" type="curve" smooth="yes"/>
      <point x="620.2" y="1420.7380952380952"/>
      <point x="711.1142857142858" y="1397.7952380952381"/>
      <point x="820.8619047619047" y="1348.8238095238096" type="curve"/>
      <point x="884.9857142857143" y="1494.352380952381" type="line"/>
      <point x="772.6904761904761" y="1543.9714285714285"/>
      <point x="655.3952380952381" y="1568.2809523809524"/>
      <point x="533.7619047619048" y="1568.2809523809524" type="curve" smooth="yes"/>
      <point x="295.14285714285717" y="1568.2809523809524"/>
      <point x="142.86190476190475" y="1466.3380952380953"/>
      <point x="142.86190476190475" y="1297.7619047619048" type="curve" smooth="yes"/>
      <point x="142.86190476190475" y="1195.057142857143"/>
      <point x="191.2" y="1121.4380952380952"/>
      <point x="296.2714285714286" y="1055.7904761904763" type="curve"/>
      <point x="185.22857142857143" y="999.495238095238"/>
      <point x="119.18571428571428" y="907.452380952381"/>
      <point x="119.18571428571428" y="808.3666666666667" type="curve" smooth="yes"/>
      <point x="119.18571428571428" y="760.3952380952381"/>
      <point x="128.5095238095238" y="717.7619047619048"/>
      <point x="149.17142857142858" y="681.7761904761904" type="curve" smooth="yes"/>
      <point x="173.52380952380952" y="638.0857142857143"/>
      <point x="213.25714285714287" y="600.7333333333333"/>
      <point x="279.0333333333333" y="561.7190476190476" type="curve" smooth="yes"/>
      <point x="323.3571428571429" y="534.4238095238095"/>
      <point x="381.65238095238095" y="506.4666666666667"/>
      <point x="458.55238095238093" y="474.8619047619048" type="curve" smooth="yes"/>
      <point x="537.5952380952381" y="443.8619047619048"/>
      <point x="592.652380952381" y="417.8619047619048"/>
      <point x="625.0619047619048" y="396.5238095238095" type="curve" smooth="yes"/>
      <point x="679.9380952380952" y="363.1142857142857"/>
      <point x="700.3333333333334" y="333.07142857142856"/>
      <point x="700.3333333333334" y="280.5904761904762" type="curve" smooth="yes"/>
      <point x="700.3333333333334" y="186.06666666666666"/>
      <point x="616.7666666666667" y="134.27619047619046"/>
      <point x="457.6904761904762" y="134.27619047619046" type="curve" smooth="yes"/>
      <point x="361.66190476190474" y="134.27619047619046"/>
      <point x="228.8190476190476" y="170.86666666666667"/>
      <point x="115.76190476190476" y="226.17619047619047" type="curve"/>
      <point x="115.76190476190476" y="62.338095238095235" type="line"/>
      <point x="222.8190476190476" y="9.366666666666667"/>
      <point x="330.0857142857143" y="-13.928571428571429"/>
    </contour>
    <contour>
      <point x="607.847619047619" y="592.6714285714286" type="curve"/>
      <point x="510.7047619047619" y="632.6857142857143"/>
      <point x="441.92857142857144" y="665.6857142857143"/>
      <point x="402.1952380952381" y="691.0095238095238" type="curve" smooth="yes"/>
      <point x="335.62857142857143" y="729.0809523809523"/>
      <point x="308.2190476190476" y="766.4619047619047"/>
      <point x="308.2190476190476" y="828.9714285714285" type="curve" smooth="yes"/>
      <point x="308.2190476190476" y="902.4666666666667"/>
      <point x="355.7285714285714" y="961.2857142857143"/>
      <point x="431.2952380952381" y="987.652380952381" type="curve"/>
      <point x="513.8047619047619" y="959.2857142857143"/>
      <point x="574.2714285714286" y="933.5952380952381"/>
      <point x="615.3428571428572" y="909.2571428571429" type="curve" smooth="yes"/>
      <point x="689.5428571428572" y="867.5380952380953"/>
      <point x="718.2761904761904" y="825.1714285714286"/>
      <point x="718.2761904761904" y="759.3809523809524" type="curve" smooth="yes"/>
      <point x="718.2761904761904" y="695.5619047619048"/>
      <point x="679.1190476190476" y="636.4190476190477"/>
    </contour>
  </outline>
</glyph>
<glyph name="copyright" format="2">
  <advance width="1704.0"/>
  <unicode hex="00A9"/>
  <note>
copyright
</note>
  <outline>
    <contour>
      <point x="882.9714285714285" y="271.0571428571429" type="curve" smooth="yes"/>
      <point x="965.8857142857142" y="271.0571428571429"/>
      <point x="1045.4761904761904" y="288.7047619047619"/>
      <point x="1120.7571428571428" y="324.66190476190474" type="curve"/>
      <point x="1120.7571428571428" y="479.51428571428573" type="line"/>
      <point x="1042.7714285714285" y="442.57142857142856"/>
      <point x="967.504761904762" y="424.6"/>
      <point x="894.9571428571429" y="424.6" type="curve" smooth="yes"/>
      <point x="734.3761904761905" y="424.6"/>
      <point x="654.2333333333333" y="519.4190476190477"/>
      <point x="654.2333333333333" y="732.3380952380952" type="curve" smooth="yes"/>
      <point x="654.2333333333333" y="926.9047619047619"/>
      <point x="745.0666666666666" y="1035.7380952380952"/>
      <point x="896.3380952380952" y="1035.7380952380952" type="curve" smooth="yes"/>
      <point x="961.3095238095239" y="1035.7380952380952"/>
      <point x="1028.6190476190477" y="1018.7523809523809"/>
      <point x="1096.2666666666667" y="986.1047619047619" type="curve"/>
      <point x="1158.4190476190477" y="1125.3666666666666" type="line"/>
      <point x="1071.857142857143" y="1168.3095238095239"/>
      <point x="981.2952380952381" y="1189.2809523809524"/>
      <point x="887.7333333333333" y="1189.2809523809524" type="curve" smooth="yes"/>
      <point x="625.8333333333334" y="1189.2809523809524"/>
      <point x="467.81904761904764" y="1011.9285714285714"/>
      <point x="467.81904761904764" y="729.6333333333333" type="curve" smooth="yes"/>
      <point x="467.81904761904764" y="436.33809523809526"/>
      <point x="618.0857142857143" y="271.0571428571429"/>
    </contour>
    <contour>
      <point x="852.0" y="-20.0" type="curve" smooth="yes"/>
      <point x="990.3380952380952" y="-20.0"/>
      <point x="1116.6761904761904" y="14.338095238095239"/>
      <point x="1233.0142857142857" y="82.67619047619047" type="curve" smooth="yes"/>
      <point x="1464.6904761904761" y="219.6904761904762"/>
      <point x="1604.0" y="464.0285714285714"/>
      <point x="1604.0" y="731.0" type="curve" smooth="yes"/>
      <point x="1604.0" y="867.9857142857143"/>
      <point x="1569.3380952380953" y="993.6476190476191"/>
      <point x="1501.6761904761904" y="1110.647619047619" type="curve" smooth="yes"/>
      <point x="1364.6904761904761" y="1343.647619047619"/>
      <point x="1117.6761904761904" y="1483.0"/>
      <point x="852.0" y="1483.0" type="curve" smooth="yes"/>
      <point x="717.0" y="1483.0"/>
      <point x="592.0" y="1449.0"/>
      <point x="475.0" y="1382.0" type="curve" smooth="yes"/>
      <point x="242.0" y="1247.0"/>
      <point x="100.0" y="998.0"/>
      <point x="100.0" y="731.0" type="curve" smooth="yes"/>
      <point x="100.0" y="599.0"/>
      <point x="133.0" y="475.0"/>
      <point x="198.0" y="360.0" type="curve" smooth="yes"/>
      <point x="328.0" y="129.0"/>
      <point x="576.0" y="-20.0"/>
    </contour>
    <contour>
      <point x="852.0" y="105.0952380952381" type="curve" smooth="yes"/>
      <point x="739.6190476190476" y="105.0952380952381"/>
      <point x="635.5761904761905" y="133.1095238095238"/>
      <point x="539.2095238095238" y="188.8" type="curve" smooth="yes"/>
      <point x="346.8" y="300.5190476190476"/>
      <point x="226.0952380952381" y="505.9142857142857"/>
      <point x="226.0952380952381" y="731.0" type="curve" smooth="yes"/>
      <point x="226.0952380952381" y="842.7047619047619"/>
      <point x="254.1095238095238" y="947.0714285714286"/>
      <point x="310.46190476190475" y="1044.1142857142856" type="curve" smooth="yes"/>
      <point x="422.84285714285716" y="1238.5238095238096"/>
      <point x="628.2523809523809" y="1357.904761904762"/>
      <point x="852.0" y="1357.904761904762" type="curve" smooth="yes"/>
      <point x="967.0428571428571" y="1357.904761904762"/>
      <point x="1072.0857142857142" y="1328.8904761904762"/>
      <point x="1169.7904761904763" y="1271.8619047619047" type="curve" smooth="yes"/>
      <point x="1363.2" y="1156.804761904762"/>
      <point x="1478.5666666666666" y="952.4095238095238"/>
      <point x="1478.5666666666666" y="731.0" type="curve" smooth="yes"/>
      <point x="1478.5666666666666" y="618.6190476190476"/>
      <point x="1450.5523809523809" y="513.9142857142857"/>
      <point x="1394.2" y="417.54761904761904" type="curve" smooth="yes"/>
      <point x="1281.1571428571428" y="224.47619047619048"/>
      <point x="1077.0857142857142" y="105.0952380952381"/>
    </contour>
  </outline>
</glyph>
<glyph name="ordfeminine" format="2">
  <advance width="750.8666666666667"/>
  <unicode hex="00AA"/>
  <note>
ordfeminine
</note>
  <outline>
    <contour>
      <point x="278.7047619047619" y="767.9047619047619" type="curve" smooth="yes"/>
      <point x="367.9714285714286" y="767.9047619047619"/>
      <point x="438.2809523809524" y="800.5380952380953"/>
      <point x="496.5904761904762" y="877.0571428571428" type="curve"/>
      <point x="498.5904761904762" y="877.0571428571428" type="line"/>
      <point x="531.8571428571429" y="779.9047619047619" type="line"/>
      <point x="643.5428571428572" y="779.9047619047619" type="line"/>
      <point x="643.5428571428572" y="1229.5809523809523" type="line" smooth="yes"/>
      <point x="643.5428571428572" y="1391.7761904761905"/>
      <point x="556.952380952381" y="1479.0"/>
      <point x="372.1952380952381" y="1479.0" type="curve" smooth="yes"/>
      <point x="284.6047619047619" y="1479.0"/>
      <point x="199.0" y="1459.3380952380953"/>
      <point x="100.48095238095237" y="1411.747619047619" type="curve"/>
      <point x="153.33809523809524" y="1295.7238095238095" type="line"/>
      <point x="225.0142857142857" y="1328.7238095238095"/>
      <point x="291.01428571428573" y="1347.3714285714286"/>
      <point x="353.6190476190476" y="1347.3714285714286" type="curve" smooth="yes"/>
      <point x="436.7047619047619" y="1347.3714285714286"/>
      <point x="480.76190476190476" y="1312.2714285714285"/>
      <point x="480.76190476190476" y="1231.1142857142856" type="curve" smooth="yes"/>
      <point x="480.76190476190476" y="1204.6619047619047" type="line"/>
      <point x="389.07142857142856" y="1200.6619047619047" type="line" smooth="yes"/>
      <point x="159.55238095238096" y="1190.3380952380953"/>
      <point x="57.48095238095238" y="1123.3380952380953"/>
      <point x="57.48095238095238" y="978.3952380952381" type="curve" smooth="yes"/>
      <point x="57.48095238095238" y="846.1714285714286"/>
      <point x="140.46666666666667" y="767.9047619047619"/>
    </contour>
    <contour>
      <point x="328.1666666666667" y="892.8857142857142" type="curve" smooth="yes"/>
      <point x="259.6857142857143" y="892.8857142857142"/>
      <point x="222.27619047619046" y="927.6190476190476"/>
      <point x="222.27619047619046" y="986.7047619047619" type="curve" smooth="yes"/>
      <point x="222.27619047619046" y="1059.8333333333333"/>
      <point x="280.4190476190476" y="1091.2"/>
      <point x="394.747619047619" y="1097.5523809523809" type="curve" smooth="yes"/>
      <point x="480.76190476190476" y="1103.2142857142858" type="line"/>
      <point x="480.76190476190476" y="1059.0714285714287" type="line" smooth="yes"/>
      <point x="480.76190476190476" y="955.9285714285714"/>
      <point x="418.64761904761906" y="892.8857142857142"/>
    </contour>
  </outline>
</glyph>
<glyph name="guillemetleft" format="2">
  <advance width="1133.2142857142858"/>
  <unicode hex="00AB"/>
  <note>
guillemotleft
</note>
  <outline>
    <contour>
      <point x="887.6904761904761" y="104.48095238095237" type="line"/>
      <point x="1051.2857142857142" y="195.13809523809525" type="line"/>
      <point x="787.3571428571429" y="550.5190476190476" type="line"/>
      <point x="1051.2857142857142" y="906.2380952380952" type="line"/>
      <point x="887.6904761904761" y="998.8809523809524" type="line"/>
      <point x="541.947619047619" y="564.1809523809524" type="line"/>
      <point x="541.947619047619" y="537.1809523809524" type="line"/>
    </contour>
    <contour>
      <point x="428.06666666666666" y="104.48095238095237" type="line"/>
      <point x="591.3380952380952" y="195.13809523809525" type="line"/>
      <point x="328.73333333333335" y="550.5190476190476" type="line"/>
      <point x="591.3380952380952" y="906.2380952380952" type="line"/>
      <point x="428.06666666666666" y="998.8809523809524" type="line"/>
      <point x="82.0" y="564.1809523809524" type="line"/>
      <point x="82.0" y="537.1809523809524" type="line"/>
    </contour>
  </outline>
</glyph>
<glyph name="registered" format="2">
  <advance width="1704.0"/>
  <unicode hex="00AE"/>
  <note>
registered
</note>
  <outline>
    <contour>
      <point x="852.0" y="-20.0" type="curve" smooth="yes"/>
      <point x="990.3380952380952" y="-20.0"/>
      <point x="1116.6761904761904" y="14.338095238095239"/>
      <point x="1233.0142857142857" y="82.67619047619047" type="curve" smooth="yes"/>
      <point x="1464.6904761904761" y="219.6904761904762"/>
      <point x="1604.0" y="464.0285714285714"/>
      <point x="1604.0" y="731.0" type="curve" smooth="yes"/>
      <point x="1604.0" y="867.9857142857143"/>
      <point x="1569.3380952380953" y="993.6476190476191"/>
      <point x="1501.6761904761904" y="1110.647619047619" type="curve" smooth="yes"/>
      <point x="1364.6904761904761" y="1343.647619047619"/>
      <point x="1117.6761904761904" y="1483.0"/>
      <point x="852.0" y="1483.0" type="curve" smooth="yes"/>
      <point x="717.0" y="1483.0"/>
      <point x="592.0" y="1449.0"/>
      <point x="475.0" y="1382.0" type="curve" smooth="yes"/>
      <point x="242.0" y="1247.0"/>
      <point x="100.0" y="998.0"/>
      <point x="100.0" y="731.0" type="curve" smooth="yes"/>
      <point x="100.0" y="599.0"/>
      <point x="133.0" y="475.0"/>
      <point x="198.0" y="360.0" type="curve" smooth="yes"/>
      <point x="328.0" y="129.0"/>
      <point x="576.0" y="-20.0"/>
    </contour>
    <contour>
      <point x="852.0" y="105.0952380952381" type="curve" smooth="yes"/>
      <point x="739.6190476190476" y="105.0952380952381"/>
      <point x="635.5761904761905" y="133.1095238095238"/>
      <point x="539.2095238095238" y="188.8" type="curve" smooth="yes"/>
      <point x="346.8" y="300.5190476190476"/>
      <point x="226.0952380952381" y="505.9142857142857"/>
      <point x="226.0952380952381" y="731.0" type="curve" smooth="yes"/>
      <point x="226.0952380952381" y="842.7047619047619"/>
      <point x="254.1095238095238" y="947.0714285714286"/>
      <point x="310.46190476190475" y="1044.1142857142856" type="curve" smooth="yes"/>
      <point x="422.84285714285716" y="1238.5238095238096"/>
      <point x="628.2523809523809" y="1357.904761904762"/>
      <point x="852.0" y="1357.904761904762" type="curve" smooth="yes"/>
      <point x="967.0428571428571" y="1357.904761904762"/>
      <point x="1072.0857142857142" y="1328.8904761904762"/>
      <point x="1169.7904761904763" y="1271.8619047619047" type="curve" smooth="yes"/>
      <point x="1363.2" y="1156.804761904762"/>
      <point x="1478.5666666666666" y="952.4095238095238"/>
      <point x="1478.5666666666666" y="731.0" type="curve" smooth="yes"/>
      <point x="1478.5666666666666" y="618.6190476190476"/>
      <point x="1450.5523809523809" y="513.9142857142857"/>
      <point x="1394.2" y="417.54761904761904" type="curve" smooth="yes"/>
      <point x="1281.1571428571428" y="224.47619047619048"/>
      <point x="1077.0857142857142" y="105.0952380952381"/>
    </contour>
    <contour>
      <point x="564.9761904761905" y="300.92857142857144" type="line"/>
      <point x="748.7142857142857" y="300.92857142857144" type="line"/>
      <point x="748.7142857142857" y="642.3952380952381" type="line"/>
      <point x="855.1571428571428" y="642.3952380952381" type="line"/>
      <point x="1035.3714285714286" y="300.92857142857144" type="line"/>
      <point x="1234.4761904761904" y="300.92857142857144" type="line"/>
      <point x="1017.3333333333334" y="680.0285714285715" type="line"/>
      <point x="1115.3190476190475" y="727.0142857142857"/>
      <point x="1163.0238095238096" y="807.7047619047619"/>
      <point x="1163.0238095238096" y="918.0" type="curve" smooth="yes"/>
      <point x="1163.0238095238096" y="1093.9714285714285"/>
      <point x="1041.1095238095238" y="1178.942857142857"/>
      <point x="813.0428571428571" y="1178.942857142857" type="curve" smooth="yes"/>
      <point x="564.9761904761905" y="1178.942857142857" type="line"/>
    </contour>
    <contour>
      <point x="748.7142857142857" y="767.4047619047619" type="line"/>
      <point x="748.7142857142857" y="1042.6380952380953" type="line"/>
      <point x="813.7047619047619" y="1042.6380952380953" type="line" smooth="yes"/>
      <point x="926.1714285714286" y="1042.6380952380953"/>
      <point x="976.2857142857143" y="1000.8619047619047"/>
      <point x="976.2857142857143" y="910.3523809523809" type="curve" smooth="yes"/>
      <point x="976.2857142857143" y="812.5333333333333"/>
      <point x="914.2" y="767.4047619047619"/>
      <point x="813.7190476190476" y="767.4047619047619" type="curve" smooth="yes"/>
    </contour>
  </outline>
</glyph>
